<?xml version="1.0" standalone="no"?>
<!DOCTYPE svg PUBLIC "-//W3C//DTD SVG 20010904//EN"
 "http://www.w3.org/TR/2001/REC-SVG-20010904/DTD/svg10.dtd">
<svg version="1.0" xmlns="http://www.w3.org/2000/svg"
 width="50.000000pt" height="42.000000pt" viewBox="0 0 50.000000 42.000000"
 preserveAspectRatio="xMidYMid meet">
<metadata>
Created by potrace 1.15, written by Peter Selinger 2001-2017
</metadata>
<g transform="translate(0.000000,42.000000) scale(0.100000,-0.100000)"
fill="#000000" stroke="none">
<path d="M60 396 c0 -19 -6 -25 -27 -28 l-28 -3 0 -180 0 -180 245 0 245 0 0
180 0 180 -142 3 -143 3 0 24 c0 24 -2 25 -75 25 -73 0 -75 -1 -75 -24z m200
-133 c57 -52 56 -129 -1 -177 -85 -72 -219 24 -176 126 33 79 119 103 177 51z"/>
<path d="M154 246 c-76 -34 -48 -156 36 -156 67 0 107 93 60 140 -11 11 -24
20 -29 20 -5 0 -15 2 -23 5 -7 2 -27 -2 -44 -9z"/>
</g>
</svg>
