<?xml version="1.0" standalone="no"?>
<!DOCTYPE svg PUBLIC "-//W3C//DTD SVG 20010904//EN"
 "http://www.w3.org/TR/2001/REC-SVG-20010904/DTD/svg10.dtd">
<svg version="1.0" xmlns="http://www.w3.org/2000/svg"
 width="300.000000pt" height="200.000000pt" viewBox="0 0 300.000000 200.000000"
 preserveAspectRatio="xMidYMid meet">
<metadata>
Created by potrace 1.15, written by Peter Selinger 2001-2017
</metadata>
<g transform="translate(0.000000,200.000000) scale(0.100000,-0.100000)"
fill="#000000" stroke="none">
<path d="M1927 1717 c-39 -33 -45 -46 -46 -105 -1 -25 -7 -35 -26 -44 -14 -6
-25 -18 -25 -27 0 -10 -3 -12 -11 -4 -13 13 -55 5 -69 -12 -8 -10 -8 -19 0
-34 13 -25 26 -27 34 -6 6 17 51 20 61 5 3 -5 14 -10 24 -10 16 0 60 -37 50
-43 -45 -26 -68 -34 -78 -24 -18 18 -23 0 -13 -47 10 -48 8 -56 -15 -56 -26 0
-42 27 -49 79 -5 41 -10 51 -25 51 -13 0 -19 -7 -19 -21 0 -14 5 -19 14 -16 8
3 -3 -22 -25 -56 -21 -34 -39 -70 -39 -80 0 -9 -4 -16 -9 -15 -5 2 -9 0 -10
-4 -1 -5 -9 -16 -18 -26 -17 -16 -18 -15 -23 33 -5 50 -5 50 -42 53 -33 3 -38
7 -38 28 0 13 -4 24 -10 24 -5 0 -10 -6 -10 -14 0 -24 -34 -23 -57 3 l-23 24
0 -32 c0 -29 -2 -31 -35 -31 -19 0 -35 -1 -35 -2 -1 -2 -3 -45 -7 -95 l-5 -93
105 0 c99 0 139 -10 101 -24 -9 -4 -14 -9 -11 -13 4 -3 2 -14 -4 -25 -6 -11
-13 -17 -17 -13 -3 3 -14 -18 -23 -47 -14 -44 -14 -59 -4 -98 18 -64 34 -102
52 -122 11 -13 17 -43 19 -103 2 -47 8 -94 14 -105 13 -23 13 -60 1 -60 -9 0
-34 -60 -37 -90 -1 -8 -19 -58 -39 -110 -34 -86 -36 -100 -31 -160 9 -86 27
-150 44 -150 7 0 10 5 7 10 -3 6 5 10 19 10 13 0 37 5 52 10 21 9 29 7 40 -7
7 -10 14 -15 14 -10 0 11 -23 51 -35 59 -6 5 -6 8 1 8 17 0 26 58 13 82 -9 16
-7 23 10 35 12 8 21 25 21 38 0 14 14 66 30 116 17 50 32 114 34 142 3 29 9
63 14 77 l10 25 7 -27 c4 -14 15 -34 25 -43 14 -13 17 -23 10 -39 -4 -12 -4
-29 0 -37 5 -8 5 -33 0 -55 -14 -58 -12 -128 5 -178 9 -25 15 -48 14 -53 -6
-27 62 -83 102 -83 17 0 38 -31 39 -57 0 -22 4 -23 84 -23 l84 0 -13 53 c-20
81 -43 178 -53 227 -5 25 -13 54 -18 65 -9 21 -13 25 132 -98 37 -31 71 -57
75 -57 4 0 21 13 38 29 46 43 44 91 -7 140 -50 47 -138 109 -184 129 -45 20
-46 24 -17 153 36 162 38 173 39 210 0 64 -24 81 -118 87 -63 3 -85 9 -98 23
-9 11 -23 19 -31 19 -7 0 -13 7 -13 16 0 11 5 14 18 9 57 -22 168 -55 186 -55
12 0 27 -5 34 -12 9 -9 13 -7 18 5 3 9 13 17 21 17 10 0 12 6 8 19 -4 14 0 23
16 31 18 10 21 18 17 55 -6 52 -4 57 45 84 45 25 47 25 47 5 0 -14 3 -14 15
-4 12 10 15 10 15 -1 0 -10 3 -10 12 -1 10 10 10 15 -1 22 -12 7 -12 11 -2 24
7 9 11 29 9 46 -3 16 0 30 5 30 5 0 7 -19 5 -44 -7 -57 14 -53 37 8 15 40 15
43 -10 99 -14 32 -25 64 -25 71 0 21 -83 178 -100 188 -10 6 -26 5 -45 -3 -16
-7 -33 -13 -37 -13 -3 -1 -10 -4 -14 -8 -4 -5 -23 -8 -41 -8 -29 0 -33 -3 -28
-19 4 -14 0 -23 -16 -31 -18 -10 -25 -8 -46 14 -13 14 -28 26 -33 26 -6 0 -10
5 -10 11 0 7 10 5 25 -5 24 -16 27 -16 54 4 16 11 41 20 55 20 16 0 26 6 26
15 0 7 6 18 13 22 31 19 26 41 -18 82 -25 23 -50 41 -57 42 -7 1 -29 3 -48 4
-28 3 -44 -3 -73 -28z"/>
<path d="M1169 1375 c-1 -41 -2 -81 -3 -87 -1 -8 15 -14 42 -16 l42 -3 0 53
c0 29 3 70 6 91 l7 37 -47 0 -46 0 -1 -75z"/>
<path d="M1081 1224 c-1 -17 -4 -46 -7 -63 l-6 -31 52 3 c28 2 55 9 59 16 6
10 10 8 15 -5 6 -15 9 -15 31 6 15 14 25 18 25 11 0 -8 6 -11 16 -7 12 4 14 1
9 -14 -4 -14 -2 -20 8 -20 22 0 34 21 42 73 l7 47 -30 0 c-17 0 -34 -5 -37
-11 -4 -6 -13 -8 -21 -5 -8 3 -14 1 -14 -4 0 -5 8 -11 18 -13 9 -3 -23 -5 -73
-4 -49 0 -80 2 -67 4 27 5 29 23 3 23 -11 0 -22 6 -24 13 -3 6 -6 -2 -6 -19z"/>
</g>
</svg>
