<?xml version="1.0" standalone="no"?>
<!DOCTYPE svg PUBLIC "-//W3C//DTD SVG 20010904//EN"
 "http://www.w3.org/TR/2001/REC-SVG-20010904/DTD/svg10.dtd">
<svg version="1.0" xmlns="http://www.w3.org/2000/svg"
 width="300.000000pt" height="200.000000pt" viewBox="0 0 300.000000 200.000000"
 preserveAspectRatio="xMidYMid meet">
<metadata>
Created by potrace 1.15, written by Peter Selinger 2001-2017
</metadata>
<g transform="translate(0.000000,200.000000) scale(0.100000,-0.100000)"
fill="#000000" stroke="none">
<path d="M0 1594 l0 -407 38 -34 37 -35 -38 22 -37 22 0 -581 0 -581 196 0
c108 0 194 3 192 8 -54 107 -85 214 -94 327 -4 53 -10 82 -17 78 -16 -10 0
-228 22 -308 22 -79 21 -95 -2 -37 -50 125 -72 384 -42 491 19 64 75 185 82
177 3 -3 -2 -17 -11 -30 -15 -23 -66 -168 -66 -187 0 -5 4 -9 8 -9 4 0 14 21
20 47 31 115 120 263 158 263 7 0 22 13 33 28 19 28 24 29 125 35 177 10 340
69 486 177 65 48 65 48 156 52 53 2 97 -1 105 -7 8 -6 39 -24 69 -40 30 -16
61 -35 68 -42 7 -7 16 -13 20 -13 4 0 32 -24 63 -52 118 -112 198 -234 239
-363 l22 -70 -36 -60 c-70 -116 -126 -300 -126 -415 l0 -50 306 0 305 0 -7 22
c-26 82 9 161 87 200 50 25 63 28 173 28 104 0 117 -2 106 -15 -7 -8 -26 -15
-42 -15 l-29 0 22 -29 c32 -43 36 -112 11 -156 l-21 -35 119 0 120 0 0 35 0
34 -62 3 c-55 3 -63 5 -63 23 0 18 8 20 63 23 l62 3 0 64 c0 63 1 65 25 65 24
0 25 -2 25 -65 l0 -65 60 0 c57 0 60 -1 60 -25 0 -24 -3 -25 -60 -25 l-60 0 0
-35 0 -35 65 0 65 0 0 186 0 186 -32 -4 c-17 -3 -48 0 -69 6 -45 13 -116 64
-124 88 -3 9 -16 19 -28 21 -12 2 5 5 38 7 170 7 85 17 -204 24 -179 4 -334
12 -345 16 -18 8 -17 9 10 9 16 1 58 12 91 25 34 13 64 22 67 19 3 -3 12 0 21
7 8 7 24 10 35 7 11 -3 20 -1 20 4 0 5 9 9 20 9 13 0 20 7 20 19 0 11 4 22 9
25 4 3 11 23 15 45 l6 39 62 6 c106 11 138 17 133 26 -15 24 126 -17 203 -59
l52 -29 0 659 0 660 -57 -3 -58 -3 -7 -80 c-14 -147 -75 -298 -155 -379 -61
-61 -185 -159 -267 -210 -93 -59 -156 -75 -318 -83 -109 -5 -139 -3 -222 16
-53 12 -96 27 -96 32 0 5 -14 9 -31 9 -16 0 -28 4 -25 9 8 12 -18 21 -43 14
-18 -5 -19 -8 -9 -21 11 -13 9 -14 -12 -7 -70 20 -190 110 -250 186 -46 58
-52 80 -14 50 27 -21 27 -21 41 -1 12 17 11 27 -13 82 -22 51 -28 85 -34 183
-4 66 -13 139 -19 163 l-12 42 -159 0 c-98 0 -160 -4 -160 -10 0 -5 -11 -12
-25 -16 -14 -3 -22 -10 -19 -15 3 -5 -9 -9 -25 -9 -17 0 -31 -5 -31 -11 0 -17
-54 -4 -127 30 l-62 29 36 -46 c19 -26 39 -49 44 -52 18 -12 26 -60 27 -157 1
-97 0 -103 -29 -142 -16 -23 -29 -45 -29 -51 0 -5 -4 -10 -9 -10 -6 0 -18 -13
-27 -29 -10 -17 -28 -32 -41 -36 -13 -3 -23 -10 -23 -15 0 -6 -6 -10 -14 -10
-8 0 -16 -5 -18 -10 -2 -6 -20 -13 -40 -16 l-37 -6 -4 73 c-1 41 -5 -24 -7
-143 -1 -120 -3 -224 -4 -230 -1 -10 36 -14 139 -18 77 -3 131 -7 120 -8 -11
-1 -34 -11 -51 -21 -33 -20 -165 -46 -188 -38 -17 7 -26 -22 -26 -85 0 -27 -3
-48 -7 -48 -5 -1 -45 -2 -90 -3 l-81 -3 -6 36 c-3 19 -6 57 -6 84 0 27 -3 47
-6 44 -3 -4 -33 4 -67 15 l-62 22 68 3 67 3 0 259 0 260 -67 -2 -68 -2 63 -3
62 -4 0 -104 c0 -95 -2 -104 -17 -98 -34 12 -88 52 -113 83 -14 16 -38 44 -53
61 -16 17 -26 37 -23 44 2 7 -2 19 -9 25 -19 16 -10 30 14 23 18 -5 19 -2 8
34 -25 88 -5 212 41 248 7 6 14 18 15 27 2 9 9 23 16 32 12 15 0 16 -138 16
l-151 0 0 -406z"/>
<path d="M2385 188 c-21 -19 -26 -32 -27 -76 -1 -78 22 -106 92 -110 63 -4 70
3 70 71 0 59 -21 102 -60 122 -38 20 -44 19 -75 -7z"/>
</g>
</svg>
