<?xml version="1.0" standalone="no"?>
<!DOCTYPE svg PUBLIC "-//W3C//DTD SVG 20010904//EN"
 "http://www.w3.org/TR/2001/REC-SVG-20010904/DTD/svg10.dtd">
<svg version="1.0" xmlns="http://www.w3.org/2000/svg"
 width="300.000000pt" height="200.000000pt" viewBox="0 0 300.000000 200.000000"
 preserveAspectRatio="xMidYMid meet">
<metadata>
Created by potrace 1.15, written by Peter Selinger 2001-2017
</metadata>
<g transform="translate(0.000000,200.000000) scale(0.100000,-0.100000)"
fill="#000000" stroke="none">
<path d="M0 1000 l0 -1000 333 0 334 0 -1 23 c-1 18 4 22 29 22 23 0 31 -5 33
-22 3 -22 7 -23 121 -23 116 0 118 0 117 23 -1 18 4 22 29 22 23 0 31 -5 33
-22 3 -22 7 -23 121 -23 116 0 118 0 117 23 -1 18 4 22 29 22 23 0 31 -5 33
-22 l3 -23 835 1 834 0 0 1000 0 999 -1500 0 -1500 0 0 -1000z m1960 -547 c39
-27 49 -45 50 -90 0 -33 -6 -50 -29 -75 -25 -28 -36 -33 -76 -33 -40 0 -51 5
-76 33 -43 47 -41 102 5 148 39 39 85 45 126 17z m383 -21 c51 -51 37 -136
-28 -167 -52 -24 -83 -19 -121 19 -27 27 -34 42 -34 74 0 100 112 145 183 74z"/>
</g>
</svg>
