<?xml version="1.0" standalone="no"?>
<!DOCTYPE svg PUBLIC "-//W3C//DTD SVG 20010904//EN"
 "http://www.w3.org/TR/2001/REC-SVG-20010904/DTD/svg10.dtd">
<svg version="1.0" xmlns="http://www.w3.org/2000/svg"
 width="326.000000pt" height="472.000000pt" viewBox="0 0 326.000000 472.000000"
 preserveAspectRatio="xMidYMid meet">
<metadata>
Created by potrace 1.15, written by Peter Selinger 2001-2017
</metadata>
<g transform="translate(0.000000,472.000000) scale(0.100000,-0.100000)"
fill="#000000" stroke="none">
<path d="M69 4696 c-75 -51 -69 164 -69 -2343 0 -2226 0 -2248 20 -2281 11
-18 34 -41 52 -52 33 -20 54 -20 1558 -20 1504 0 1525 0 1558 20 18 11 41 34
52 52 20 33 20 55 20 2281 0 2507 6 2292 -69 2343 l-36 24 -1525 0 -1525 0
-36 -24z m2841 -962 c0 -425 -2 -508 -14 -520 -18 -17 -33 -18 -39 -1 -3 9
-34 11 -123 8 -140 -4 -137 -4 -237 2 -60 3 -82 0 -93 -11 -12 -11 -18 -11
-29 -2 -20 17 -528 17 -533 1 -5 -16 -22 -13 -22 4 0 12 -14 14 -79 10 -69 -4
-81 -2 -85 13 -20 68 -289 953 -296 975 l-9 27 780 0 779 0 0 -506z"/>
</g>
</svg>
