<?xml version="1.0" standalone="no"?>
<!DOCTYPE svg PUBLIC "-//W3C//DTD SVG 20010904//EN"
 "http://www.w3.org/TR/2001/REC-SVG-20010904/DTD/svg10.dtd">
<svg version="1.0" xmlns="http://www.w3.org/2000/svg"
 width="127.000000pt" height="248.000000pt" viewBox="0 0 127.000000 248.000000"
 preserveAspectRatio="xMidYMid meet">
<metadata>
Created by potrace 1.15, written by Peter Selinger 2001-2017
</metadata>
<g transform="translate(0.000000,248.000000) scale(0.100000,-0.100000)"
fill="#000000" stroke="none">
<path d="M90 2458 c-33 -17 -51 -35 -68 -68 l-22 -45 2 -1121 3 -1121 28 -36
c53 -70 30 -67 602 -67 577 0 563 -2 611 69 l24 36 0 1131 0 1131 -23 34 c-12
18 -40 44 -62 56 l-40 23 -505 0 c-505 0 -506 0 -550 -22z m705 -263 c0 -19
-8 -20 -154 -23 -155 -3 -179 2 -168 33 6 13 28 15 164 13 150 -3 158 -4 158
-23z m375 -960 l0 -865 -535 0 -535 0 0 865 0 865 535 0 535 0 0 -865z"/>
</g>
</svg>
