<?xml version="1.0" standalone="no"?>
<!DOCTYPE svg PUBLIC "-//W3C//DTD SVG 20010904//EN"
 "http://www.w3.org/TR/2001/REC-SVG-20010904/DTD/svg10.dtd">
<svg version="1.0" xmlns="http://www.w3.org/2000/svg"
 width="300.000000pt" height="200.000000pt" viewBox="0 0 300.000000 200.000000"
 preserveAspectRatio="xMidYMid meet">
<metadata>
Created by potrace 1.15, written by Peter Selinger 2001-2017
</metadata>
<g transform="translate(0.000000,200.000000) scale(0.100000,-0.100000)"
fill="#000000" stroke="none">
<path d="M0 1000 l0 -1000 1500 0 1501 0 -2 485 c-2 341 -5 485 -13 486 -6 1
-14 1 -18 0 -5 0 -8 9 -9 21 -1 22 -1 22 -9 -2 l-8 -25 -1 28 c-1 28 23 39 32
15 4 -10 6 -10 6 0 1 7 6 10 11 7 6 -3 10 3 10 15 0 12 -4 19 -9 16 -5 -3 -11
3 -14 13 -3 14 -1 18 10 14 12 -5 14 24 12 191 -1 108 -6 196 -10 196 -5 0 -9
16 -9 35 0 19 5 35 10 35 6 0 10 85 10 235 l0 235 -1500 0 -1500 0 0 -1000z"/>
</g>
</svg>
