<?xml version="1.0" standalone="no"?>
<!DOCTYPE svg PUBLIC "-//W3C//DTD SVG 20010904//EN"
 "http://www.w3.org/TR/2001/REC-SVG-20010904/DTD/svg10.dtd">
<svg version="1.0" xmlns="http://www.w3.org/2000/svg"
 width="1400.000000pt" height="940.000000pt" viewBox="0 0 1400.000000 940.000000"
 preserveAspectRatio="xMidYMid meet">
<metadata>
Created by potrace 1.15, written by Peter Selinger 2001-2017
</metadata>
<g transform="translate(0.000000,940.000000) scale(0.100000,-0.100000)"
fill="#000000" stroke="none">
<path d="M3367 8994 c-4 -4 -7 -29 -7 -56 0 -47 2 -50 35 -64 31 -13 39 -12
71 1 35 14 35 15 32 67 l-3 53 -60 3 c-34 2 -64 0 -68 -4z"/>
<path d="M10126 8734 c-11 -10 -16 -34 -16 -69 0 -75 13 -85 110 -85 98 0 110
9 110 89 0 31 -5 62 -12 69 -19 19 -173 16 -192 -4z m108 -3 c3 -5 15 -7 26
-4 14 4 20 1 18 -8 -2 -7 7 -15 19 -17 27 -4 29 -48 3 -82 -13 -17 -27 -22
-71 -22 -61 -1 -102 9 -94 22 3 5 1 11 -3 14 -5 3 -9 19 -10 35 0 23 4 31 21
33 12 2 21 10 19 17 -2 9 4 12 18 8 11 -3 23 -1 26 4 3 5 9 9 14 9 5 0 11 -4
14 -9z"/>
<path d="M3347 7854 c-4 -4 -7 -29 -7 -56 0 -47 2 -50 35 -64 31 -13 39 -12
71 1 35 14 35 15 32 67 l-3 53 -60 3 c-34 2 -64 0 -68 -4z"/>
<path d="M3367 6974 c-4 -4 -7 -29 -7 -56 0 -47 2 -50 35 -64 31 -13 39 -12
71 1 35 14 35 15 32 67 l-3 53 -60 3 c-34 2 -64 0 -68 -4z"/>
<path d="M10096 6594 c-11 -10 -16 -34 -16 -69 0 -75 13 -85 110 -85 97 0 110
10 110 85 0 75 -13 85 -110 85 -58 0 -83 -4 -94 -16z m108 -3 c3 -5 15 -7 26
-4 14 4 20 1 18 -8 -2 -7 7 -15 19 -17 17 -2 21 -10 21 -33 -1 -16 -5 -32 -10
-35 -4 -3 -6 -9 -3 -14 8 -12 -30 -22 -85 -22 -55 0 -93 10 -85 22 3 5 1 11
-3 14 -5 3 -9 19 -10 35 0 23 4 31 21 33 12 2 21 10 19 17 -2 9 4 12 18 8 11
-3 23 -1 26 4 3 5 9 9 14 9 5 0 11 -4 14 -9z"/>
<path d="M4787 6124 c-4 -4 -7 -29 -7 -56 0 -47 2 -50 35 -64 31 -13 39 -12
71 1 35 14 35 15 32 67 l-3 53 -60 3 c-34 2 -64 0 -68 -4z"/>
<path d="M3367 5674 c-4 -4 -7 -29 -7 -56 0 -47 2 -50 35 -64 31 -13 39 -12
71 1 35 14 35 15 32 67 l-3 53 -60 3 c-34 2 -64 0 -68 -4z"/>
<path d="M9240 5421 c0 -59 0 -60 35 -71 26 -9 44 -9 70 0 35 11 35 12 35 71
l0 59 -70 0 -70 0 0 -59z"/>
<path d="M87 5464 c-4 -4 -7 -29 -7 -56 0 -47 2 -50 35 -64 31 -13 39 -12 71
1 35 14 35 15 32 67 l-3 53 -60 3 c-34 2 -64 0 -68 -4z"/>
<path d="M1917 5454 c-4 -4 -7 -29 -7 -56 0 -47 2 -50 35 -64 31 -13 39 -12
71 1 35 14 35 15 32 67 l-3 53 -60 3 c-34 2 -64 0 -68 -4z"/>
<path d="M2417 5454 c-4 -4 -7 -29 -7 -56 0 -47 2 -50 35 -64 31 -13 39 -12
71 1 35 14 35 15 32 67 l-3 53 -60 3 c-34 2 -64 0 -68 -4z"/>
<path d="M347 5434 c-4 -4 -7 -29 -7 -56 0 -47 2 -50 35 -64 31 -13 39 -12 71
1 35 14 35 15 32 67 l-3 53 -60 3 c-34 2 -64 0 -68 -4z"/>
<path d="M3147 5434 c-4 -4 -7 -29 -7 -56 0 -47 2 -50 35 -64 31 -13 39 -12
71 1 35 14 35 15 32 67 l-3 53 -60 3 c-34 2 -64 0 -68 -4z"/>
<path d="M6607 5374 c-4 -4 -7 -29 -7 -56 0 -45 2 -49 35 -65 33 -16 37 -16
71 0 34 17 35 18 32 70 l-3 52 -60 3 c-34 2 -64 0 -68 -4z"/>
<path d="M11697 5184 c-4 -4 -7 -29 -7 -56 0 -47 2 -50 35 -64 31 -13 39 -12
71 1 35 14 35 15 32 67 l-3 53 -60 3 c-34 2 -64 0 -68 -4z"/>
<path d="M10852 4978 c-7 -7 -12 -39 -12 -73 0 -34 5 -66 12 -73 7 -7 44 -12
94 -12 102 0 114 9 114 85 0 76 -12 85 -114 85 -50 0 -87 -5 -94 -12z m113 -9
c4 -6 13 -8 20 -5 7 2 16 -2 19 -10 3 -8 14 -14 25 -14 25 0 26 -47 1 -80 -14
-19 -26 -22 -80 -22 -54 0 -66 3 -80 22 -25 33 -24 80 1 80 11 0 22 6 25 14 3
8 12 12 19 10 7 -3 16 -1 20 5 3 6 10 11 15 11 5 0 12 -5 15 -11z"/>
<path d="M13884 4806 c-3 -7 -4 -33 -2 -57 3 -37 8 -46 32 -58 20 -9 37 -11
55 -5 24 9 26 15 29 72 l3 62 -56 0 c-38 0 -57 -4 -61 -14z"/>
<path d="M10996 3394 c-11 -10 -16 -34 -16 -69 0 -75 13 -85 110 -85 97 0 110
10 110 85 0 75 -13 85 -110 85 -58 0 -83 -4 -94 -16z m109 -5 c4 -6 13 -8 20
-5 7 2 16 -2 19 -10 3 -8 14 -14 25 -14 25 0 26 -47 1 -80 -14 -19 -26 -22
-80 -22 -54 0 -66 3 -80 22 -25 33 -24 80 1 80 11 0 22 6 25 14 3 8 12 12 19
10 7 -3 16 -1 20 5 3 6 10 11 15 11 5 0 12 -5 15 -11z"/>
<path d="M3387 3084 c-4 -4 -7 -29 -7 -56 0 -47 2 -50 35 -64 31 -13 39 -12
71 1 35 14 35 15 32 67 l-3 53 -60 3 c-34 2 -64 0 -68 -4z"/>
<path d="M10966 1804 c-11 -10 -16 -34 -16 -69 0 -75 13 -85 110 -85 97 0 110
10 110 85 0 75 -13 85 -110 85 -58 0 -83 -4 -94 -16z m109 -5 c4 -6 13 -8 20
-5 7 2 16 -2 19 -10 3 -8 14 -14 25 -14 25 0 26 -47 1 -80 -14 -19 -26 -22
-80 -22 -54 0 -66 3 -80 22 -25 33 -24 80 1 80 11 0 22 6 25 14 3 8 12 12 19
10 7 -3 16 -1 20 5 3 6 10 11 15 11 5 0 12 -5 15 -11z"/>
<path d="M3027 364 c-4 -4 -7 -29 -7 -56 0 -47 2 -50 35 -64 31 -13 39 -12 71
1 35 14 35 15 32 67 l-3 53 -60 3 c-34 2 -64 0 -68 -4z"/>
<path d="M10956 314 c-11 -10 -16 -34 -16 -69 0 -75 13 -85 106 -85 103 0 114
7 114 76 0 88 -6 94 -105 94 -63 0 -87 -4 -99 -16z m109 -5 c4 -6 13 -8 20 -5
7 2 16 -2 19 -10 3 -8 14 -14 25 -14 25 0 26 -47 1 -80 -14 -19 -26 -22 -80
-22 -54 0 -66 3 -80 22 -25 33 -24 80 1 80 11 0 22 6 25 14 3 8 12 12 19 10 7
-3 16 -1 20 5 3 6 10 11 15 11 5 0 12 -5 15 -11z"/>
</g>
</svg>
