<?xml version="1.0" standalone="no"?>
<!DOCTYPE svg PUBLIC "-//W3C//DTD SVG 20010904//EN"
 "http://www.w3.org/TR/2001/REC-SVG-20010904/DTD/svg10.dtd">
<svg version="1.0" xmlns="http://www.w3.org/2000/svg"
 width="427.000000pt" height="321.000000pt" viewBox="0 0 427.000000 321.000000"
 preserveAspectRatio="xMidYMid meet">
<metadata>
Created by potrace 1.15, written by Peter Selinger 2001-2017
</metadata>
<g transform="translate(0.000000,321.000000) scale(0.100000,-0.100000)"
fill="#000000" stroke="none">
<path d="M2858 2885 c-1 -1 -25 -5 -53 -8 -183 -19 -261 -79 -290 -222 -10
-48 -13 -80 -7 -84 5 -3 12 -15 14 -26 4 -17 8 -14 23 17 21 43 35 48 106 37
61 -10 159 -1 159 14 0 11 83 0 114 -15 12 -6 28 -14 36 -18 8 -4 19 -20 23
-36 5 -16 20 -50 33 -75 13 -26 24 -58 24 -70 0 -21 -48 -105 -68 -119 -5 -3
-18 -19 -30 -37 -27 -39 -54 -35 -85 13 -25 39 -37 43 -37 13 0 -16 -4 -19
-20 -14 -23 7 -27 -10 -4 -19 23 -9 7 -26 -25 -26 -20 0 -31 -7 -39 -25 -16
-34 -15 -37 7 -30 10 3 23 -1 30 -9 9 -11 4 -17 -26 -29 l-38 -16 37 0 c37 -1
37 -1 27 -31 -9 -24 -8 -33 5 -46 9 -8 16 -24 16 -34 0 -10 3 -25 6 -34 4 -10
-1 -18 -12 -23 -23 -8 -44 -35 -37 -46 2 -4 19 -7 37 -5 17 1 37 -2 44 -6 17
-10 15 -46 -3 -53 -28 -10 -105 27 -127 61 l-20 31 6 -43 c11 -72 32 -111 68
-126 46 -20 86 -53 103 -87 9 -16 29 -36 45 -44 19 -10 30 -23 30 -36 0 -18 2
-19 15 -9 21 18 19 38 -10 72 -28 33 -33 83 -12 112 17 23 67 12 67 -14 0 -10
9 -22 21 -25 15 -5 18 -10 10 -18 -6 -6 -11 -15 -11 -19 0 -13 38 -9 43 5 2 6
8 9 12 5 4 -4 -2 -17 -14 -29 -11 -12 -23 -31 -27 -41 -3 -10 -9 -18 -14 -18
-15 0 -29 -35 -23 -58 8 -33 23 -27 41 18 9 22 20 40 25 40 12 0 8 -19 -13
-60 -11 -22 -20 -47 -20 -56 0 -9 -16 -59 -36 -111 -35 -95 -41 -151 -16 -145
10 2 11 -4 6 -20 -6 -22 -6 -22 13 -5 11 9 23 14 27 10 4 -5 6 -1 4 7 -1 8 2
14 9 15 6 0 15 4 20 9 5 5 3 6 -4 2 -14 -8 -18 6 -6 18 4 3 8 13 9 21 3 19 44
85 52 85 4 0 19 10 32 23 14 13 32 24 40 24 8 0 24 4 35 8 16 5 17 5 5 -4 -8
-5 -11 -13 -7 -17 7 -8 -26 -49 -120 -146 -81 -83 -203 -244 -237 -312 -17
-34 -28 -76 -32 -125 -6 -61 -12 -79 -36 -106 -34 -40 -36 -61 -4 -69 23 -6
36 -30 36 -73 0 -19 7 -22 63 -27 171 -14 368 -26 418 -26 78 0 85 -10 72
-108 -6 -42 -8 -81 -5 -86 6 -11 72 0 157 28 38 13 105 34 149 47 l78 24 -6
55 c-3 30 -9 79 -12 108 l-7 52 104 -2 104 -2 62 43 c35 23 67 50 72 59 8 14
11 14 26 2 14 -12 17 -10 22 8 3 12 9 22 14 22 5 0 7 -11 3 -25 -4 -15 -2 -25
5 -25 6 0 11 7 11 15 0 8 5 15 11 15 7 0 9 -10 5 -25 -8 -31 7 -33 22 -2 11
20 11 19 6 -11 -6 -35 14 -47 23 -12 3 11 9 17 14 14 5 -3 5 -13 -1 -24 -7
-13 -7 -21 1 -25 6 -4 13 2 16 14 9 34 20 24 18 -15 -2 -32 -8 -39 -54 -65
-82 -47 -58 -61 37 -22 31 13 32 15 32 73 0 41 -4 60 -12 61 -7 0 -44 19 -82
42 l-68 42 -3 106 c-2 118 -24 200 -58 224 -28 19 -33 11 -13 -20 9 -14 13
-25 8 -25 -5 0 -15 11 -22 25 -7 13 -17 22 -21 20 -4 -3 -11 19 -14 49 -6 45
-13 60 -44 89 -20 19 -46 38 -58 42 -21 6 -22 4 -18 -27 3 -18 -5 1 -18 43
-29 94 -32 98 -74 116 -32 13 -36 13 -48 -4 -7 -9 -11 -30 -9 -45 1 -15 1 -28
-1 -28 -12 0 -54 48 -47 54 4 4 -1 12 -11 17 -13 8 -15 15 -7 28 6 13 5 23 -3
32 -7 8 -11 12 -10 10 2 -2 -2 -10 -8 -18 -9 -10 -8 -13 0 -13 7 0 9 -5 6 -10
-4 -6 -11 -8 -16 -4 -6 3 -8 -9 -5 -33 2 -21 5 -46 5 -55 1 -19 27 -48 43 -48
6 0 5 7 -3 17 -12 14 -12 16 0 8 11 -6 13 -3 9 13 -4 15 -2 19 9 15 8 -3 12
-11 9 -18 -2 -7 0 -30 4 -51 5 -22 6 -40 1 -42 -4 -1 -4 -26 -1 -55 8 -56 -3
-75 -27 -51 -8 8 -21 14 -30 14 -27 0 -140 98 -152 131 -6 17 -28 48 -50 69
-21 21 -42 48 -46 59 -3 12 -13 21 -21 21 -8 0 -20 12 -26 26 -10 21 -17 25
-40 20 -15 -3 -30 -1 -33 3 -4 8 -13 8 -44 2 -2 -1 2 -8 9 -16 11 -13 10 -14
-3 -9 -8 3 -18 12 -21 20 -4 10 -2 13 7 8 7 -5 6 0 -3 10 -9 11 -16 14 -18 7
-2 -7 -16 -1 -34 14 -16 14 -35 22 -41 18 -6 -3 -1 9 11 29 12 19 22 42 22 51
0 18 -39 67 -40 50 0 -22 -17 -14 -32 15 -30 59 -54 92 -66 94 -7 2 11 19 40
39 39 26 54 42 56 62 2 15 -2 27 -8 27 -6 0 -8 5 -4 11 4 8 12 2 21 -15 21
-41 36 -32 28 17 -13 86 -28 140 -45 157 -10 10 -19 23 -21 29 -2 6 -17 14
-32 17 -24 4 -35 -2 -63 -33 -19 -20 -34 -41 -34 -45 0 -4 -7 -8 -16 -8 -11 0
-14 5 -9 18 4 9 10 28 14 42 7 25 28 65 67 124 11 18 24 43 27 57 5 19 21 30
80 52 41 15 81 25 88 22 8 -3 22 -25 32 -50 11 -25 22 -45 25 -45 4 0 7 42 7
93 0 97 -8 120 -45 132 -13 4 -19 19 -22 63 -4 54 -18 90 -77 200 -13 23 -29
42 -37 42 -8 0 -17 7 -20 15 -4 8 -14 15 -24 15 -9 0 -25 9 -35 20 -10 11 -22
17 -27 14 -5 -3 -15 -1 -22 5 -13 11 -90 23 -98 16z m598 -1702 c0 -10 5 -17
12 -15 6 1 12 -4 12 -12 0 -8 4 -16 9 -18 12 -4 72 -53 125 -101 33 -31 36
-38 19 -34 -20 4 -21 3 -12 -15 9 -17 8 -19 -6 -10 -13 7 -23 4 -37 -10 -18
-18 -18 -19 4 -57 29 -49 88 -100 88 -77 0 9 -7 19 -15 22 -17 7 -55 69 -55
90 0 16 42 -24 104 -100 30 -36 36 -50 27 -59 -9 -9 -17 -6 -31 13 -19 25 -20
25 -20 3 0 -12 5 -25 10 -28 6 -3 10 -11 10 -17 0 -6 -6 -6 -15 2 -23 19 -30
4 -7 -17 38 -36 58 -49 70 -45 7 2 12 -4 12 -13 0 -12 -4 -14 -19 -5 -11 5
-26 8 -33 5 -8 -3 -31 6 -52 20 -20 14 -41 25 -46 25 -17 0 -40 44 -40 77 0
18 -9 50 -21 72 -11 22 -18 45 -15 50 8 12 -38 104 -47 94 -4 -3 -7 3 -7 15 0
11 -12 48 -27 82 -22 52 -24 63 -12 71 8 5 15 9 15 9 1 0 1 -8 0 -17z"/>
<path d="M288 2803 c-10 -2 -18 -10 -18 -16 0 -24 281 -810 545 -1522 37 -99
86 -236 110 -305 48 -138 167 -452 195 -515 10 -22 16 -43 14 -47 -3 -5 -26
-8 -51 -8 -34 0 -53 6 -69 21 -28 26 -59 19 -49 -11 4 -13 1 -22 -9 -26 -8 -3
-98 1 -198 10 -439 39 -513 45 -517 41 -2 -2 -1 -11 2 -18 5 -14 30 -19 222
-42 85 -10 105 -14 114 -19 5 -3 96 -15 202 -26 107 -11 225 -25 262 -31 67
-11 69 -12 62 -38 -21 -81 -35 -162 -35 -203 l0 -48 41 0 c54 0 129 20 129 34
0 6 -9 17 -20 23 -27 18 -52 70 -45 94 10 30 45 48 110 55 41 5 64 13 73 26 7
10 22 18 33 18 23 0 25 27 4 57 -9 12 -20 55 -25 95 -13 94 -26 148 -39 161
-27 27 4 56 40 36 15 -8 24 -7 36 3 9 7 41 13 74 13 31 0 60 2 62 5 3 3 2 25
-3 48 -6 37 -21 57 -89 125 -54 54 -81 75 -81 64 0 -10 5 -15 10 -12 6 3 10
-1 10 -9 0 -8 -4 -18 -10 -21 -5 -3 -10 -1 -10 5 0 6 -5 8 -12 4 -7 -4 -8 -3
-4 4 5 9 -6 10 -39 6 l-45 -7 6 31 6 31 -68 -5 c-92 -8 -95 -9 -92 -40 2 -15
-2 -29 -7 -31 -12 -4 -82 132 -113 217 -11 30 -45 123 -76 207 -31 83 -56 158
-56 165 0 8 -4 18 -9 23 -10 10 -144 359 -257 669 -30 82 -63 168 -73 190 -10
23 -51 131 -90 241 -40 110 -79 219 -88 243 -15 41 -24 46 -65 35z"/>
<path d="M2805 2453 c-53 -15 -83 -54 -50 -67 8 -3 15 -15 15 -26 0 -15 11
-26 35 -36 35 -14 36 -14 62 16 21 25 31 30 53 25 16 -3 31 -2 34 3 6 9 -28
26 -69 35 -11 3 1 5 28 6 48 1 58 10 33 30 -16 14 -110 23 -141 14z"/>
<path d="M2111 1621 c-8 -5 -15 -29 -16 -53 -2 -23 -12 -80 -24 -125 -12 -48
-21 -113 -21 -157 0 -42 -4 -76 -10 -76 -17 0 -25 73 -25 232 0 102 -3 148 -9
130 -4 -15 -9 -88 -10 -162 l-1 -135 -48 32 c-27 18 -53 30 -58 27 -5 -3 3
-30 19 -59 22 -39 26 -55 17 -59 -7 -2 -16 -18 -20 -35 -8 -35 -47 -51 -128
-51 -47 0 -126 -25 -114 -36 3 -4 20 -1 38 5 63 22 169 7 129 -19 -8 -5 -26
-6 -40 -2 -40 11 -126 5 -185 -14 -74 -23 -78 -34 -11 -34 64 0 156 -19 156
-33 0 -9 -34 -6 -76 8 -15 5 -29 -1 -48 -18 -31 -29 -28 -32 38 -42 35 -6 47
-5 42 4 -4 6 -2 11 3 11 6 0 11 -8 11 -19 0 -11 12 -23 30 -31 17 -7 33 -16
35 -20 6 -10 -45 3 -116 29 -31 11 -65 17 -77 14 -24 -6 -29 -19 -9 -27 8 -3
7 -9 -7 -20 -17 -14 -17 -16 -3 -22 9 -3 22 -2 29 2 7 4 10 3 5 -1 -4 -5 2
-19 14 -31 l21 -23 -21 6 c-11 3 -21 10 -21 15 0 5 -4 6 -10 3 -6 -4 -2 -15
10 -27 30 -32 24 -45 -7 -17 -16 13 -29 27 -31 32 -6 12 -80 47 -99 46 -12 0
-7 -6 14 -14 17 -8 48 -34 68 -59 30 -37 38 -57 47 -117 l11 -71 51 6 c28 3
65 6 83 6 21 0 48 12 79 36 33 25 49 33 52 24 3 -8 9 -5 17 10 l12 22 6 -21
c4 -17 -1 -25 -19 -33 -13 -6 -24 -14 -24 -18 0 -15 27 -30 55 -30 47 0 77
-26 73 -64 -3 -30 -2 -31 47 -37 56 -6 85 -17 85 -30 0 -32 89 13 101 50 3 8
14 14 24 15 25 2 127 60 150 86 10 11 26 20 37 20 10 0 18 5 18 11 0 6 9 24
21 40 11 16 31 59 43 96 13 38 29 80 37 96 9 21 10 30 1 39 -15 15 -15 62 -1
108 12 39 19 161 9 155 -4 -3 -10 -30 -14 -62 -4 -32 -11 -71 -16 -88 -5 -16
-17 -57 -27 -90 -10 -35 -28 -70 -44 -85 -14 -14 -29 -32 -33 -40 -7 -19 0
205 9 248 6 33 -8 45 -19 15 -9 -23 -21 -7 -41 59 -12 40 -21 55 -31 51 -10
-3 -14 3 -14 19 0 13 -4 28 -9 33 -4 6 -21 44 -36 85 -29 81 -95 222 -106 230
-4 3 -11 18 -14 33 -7 28 -28 34 -54 18z"/>
<path d="M210 954 c-25 -7 -13 -71 16 -90 13 -9 26 -24 29 -35 8 -23 30 -24
70 -3 17 9 53 17 81 18 51 1 51 1 41 26 -24 54 -38 68 -75 74 -67 9 -147 14
-162 10z"/>
<path d="M3345 274 c-9 -9 -15 -34 -15 -62 0 -26 -4 -53 -9 -61 -7 -11 -74
-13 -387 -9 -209 2 -458 2 -554 -1 -172 -6 -175 -6 -178 -29 -2 -14 -25 -38
-58 -63 -30 -22 -54 -42 -54 -44 0 -3 126 -5 281 -5 276 0 280 0 274 20 -4 11
-2 20 4 20 6 0 11 -9 11 -20 0 -18 7 -20 55 -20 l55 0 0 38 0 39 47 -12 c28
-7 54 -22 68 -38 l21 -27 414 0 415 1 -100 53 c-208 112 -275 151 -275 163 0
7 14 16 30 20 39 10 39 23 1 39 -26 11 -33 11 -46 -2z"/>
</g>
</svg>
