<?xml version="1.0" standalone="no"?>
<!DOCTYPE svg PUBLIC "-//W3C//DTD SVG 20010904//EN"
 "http://www.w3.org/TR/2001/REC-SVG-20010904/DTD/svg10.dtd">
<svg version="1.0" xmlns="http://www.w3.org/2000/svg"
 width="311.000000pt" height="249.000000pt" viewBox="0 0 311.000000 249.000000"
 preserveAspectRatio="xMidYMid meet">
<metadata>
Created by potrace 1.15, written by Peter Selinger 2001-2017
</metadata>
<g transform="translate(0.000000,249.000000) scale(0.100000,-0.100000)"
fill="#000000" stroke="none">
<path d="M803 1506 c14 -19 7 -58 -27 -159 -21 -61 -43 -159 -56 -242 -11 -77
-25 -156 -30 -175 -16 -58 -89 -121 -155 -132 -18 -3 -22 -17 -35 -118 l-15
-115 -34 -11 c-33 -11 -32 -11 43 -23 69 -11 76 -14 76 -36 0 -25 -16 -34 -58
-36 -20 -1 -13 -5 23 -15 30 -8 99 -14 169 -14 104 0 117 2 112 16 -3 9 -9 33
-12 55 -6 37 -5 39 21 39 26 0 27 -1 23 -50 -3 -48 -2 -49 22 -43 14 3 26 6
27 7 1 1 -6 35 -16 76 -57 230 -66 278 -64 355 3 152 47 278 114 326 31 22 32
22 65 4 19 -10 41 -29 49 -42 9 -13 20 -21 25 -18 15 9 12 25 -5 25 -9 0 -30
30 -51 75 -36 76 -49 94 -39 52 5 -19 -4 -32 -51 -72 -70 -60 -105 -131 -132
-264 -10 -52 -23 -96 -29 -98 -29 -10 -20 262 13 389 32 127 71 178 134 178
36 0 13 17 -31 23 -26 3 -50 14 -63 29 -12 13 -18 19 -13 14z"/>
<path d="M2321 1395 c-87 -16 -281 -75 -281 -86 0 -4 17 -5 38 -2 36 5 40 3
51 -25 16 -39 50 -70 138 -126 73 -46 103 -84 103 -129 0 -34 -62 -151 -81
-155 -17 -3 -204 72 -269 107 l-35 19 -1 88 c-1 56 -7 106 -18 134 -16 42 -16
45 1 58 22 17 18 16 -80 -30 -67 -32 -188 -107 -278 -173 -109 -80 -159 -120
-159 -128 0 -4 -4 -5 -10 -2 -5 3 -10 2 -10 -4 0 -5 -9 -12 -20 -16 -11 -3
-19 -9 -19 -13 3 -18 -2 -26 -9 -15 -6 9 -19 3 -47 -22 -22 -19 -46 -35 -54
-35 -8 0 -12 -3 -8 -6 6 -7 -16 -34 -28 -34 -4 0 -20 -9 -35 -20 -21 -15 -29
-17 -33 -8 -2 7 -13 -25 -24 -72 -11 -47 -18 -87 -16 -90 3 -3 82 75 176 172
95 98 196 198 226 223 54 44 56 45 126 45 88 0 216 -32 268 -66 21 -14 82 -45
134 -70 154 -71 275 -168 308 -246 30 -73 14 -133 -54 -208 l-36 -41 -265 -4
c-146 -3 -298 -8 -338 -13 -44 -5 -76 -4 -79 1 -3 6 -9 42 -13 82 -5 51 -14
82 -30 104 -12 18 -19 39 -16 47 5 12 2 15 -10 10 -8 -3 -25 -6 -37 -6 -18 -1
-15 -5 14 -20 49 -26 73 -78 65 -139 -7 -50 -26 -71 -64 -71 -16 0 -22 -4 -19
-13 4 -11 -24 -18 -116 -31 -194 -27 -367 -72 -367 -95 0 -13 37 -20 167 -31
330 -27 946 9 1185 69 183 47 189 50 181 79 -3 15 -12 36 -19 47 -7 11 -25 65
-40 120 -29 111 -40 136 -91 212 -31 45 -35 58 -31 95 7 60 40 124 98 194 52
60 70 103 70 165 l0 35 113 -4 c105 -4 113 -3 132 18 18 19 18 24 5 47 -44 78
-258 114 -459 78z m91 -116 c69 -10 77 -14 83 -36 9 -37 -20 -125 -52 -155
l-28 -27 -27 33 c-15 19 -52 49 -83 66 -73 42 -112 75 -131 113 l-16 30 88 -6
c49 -3 124 -11 166 -18z m-468 -100 c14 -26 17 -44 12 -72 -10 -55 -35 -63
-131 -43 -42 9 -99 16 -126 16 -27 0 -49 3 -49 8 0 8 133 96 194 129 48 25 69
18 100 -38z"/>
<path d="M2737 1106 c-31 -7 -59 -10 -62 -8 -12 12 -28 -61 -27 -128 0 -96 27
-175 60 -174 44 1 22 -25 -25 -31 -27 -3 -55 -8 -63 -9 -27 -6 294 -3 370 3
68 5 75 8 72 26 -2 11 -6 67 -9 125 -6 102 -7 106 -36 129 -31 26 -175 82
-205 80 -9 0 -43 -6 -75 -13z"/>
</g>
</svg>
