<?xml version="1.0" standalone="no"?>
<!DOCTYPE svg PUBLIC "-//W3C//DTD SVG 20010904//EN"
 "http://www.w3.org/TR/2001/REC-SVG-20010904/DTD/svg10.dtd">
<svg version="1.0" xmlns="http://www.w3.org/2000/svg"
 width="706.000000pt" height="600.000000pt" viewBox="0 0 706.000000 600.000000"
 preserveAspectRatio="xMidYMid meet">
<metadata>
Created by potrace 1.15, written by Peter Selinger 2001-2017
</metadata>
<g transform="translate(0.000000,600.000000) scale(0.100000,-0.100000)"
fill="#000000" stroke="none">
<path d="M6630 5975 c-19 -21 -20 -23 -4 -29 16 -6 33 8 34 25 0 4 25 7 55 7
32 0 52 -4 49 -10 -4 -5 -16 -7 -27 -4 -36 9 -65 -3 -60 -25 3 -10 12 -19 20
-19 9 0 13 -6 10 -14 -4 -10 -1 -13 9 -9 7 3 14 9 14 15 0 5 7 2 16 -6 21 -21
33 -13 27 19 -5 23 -4 24 24 15 50 -18 126 -1 93 20 -22 14 6 13 32 -1 11 -6
18 -7 15 -2 -3 4 8 9 24 10 16 1 29 -2 29 -7 0 -6 -6 -10 -14 -10 -9 0 -12 -7
-9 -19 4 -16 0 -19 -21 -17 -40 5 -31 -11 19 -33 25 -11 48 -27 51 -35 8 -20
44 -16 44 6 0 9 -9 23 -21 31 -20 15 -10 35 11 22 6 -4 10 13 10 45 l0 51
-205 -2 c-197 -2 -205 -3 -225 -24z"/>
<path d="M2810 3963 c-102 -7 -332 -45 -430 -69 -58 -15 -112 -27 -120 -29 -8
-1 -24 -6 -35 -10 -11 -4 -60 -24 -110 -43 -367 -142 -614 -370 -733 -677 -64
-164 -83 -283 -83 -520 0 -484 135 -893 397 -1205 112 -134 352 -359 590 -552
71 -58 136 -113 143 -122 11 -13 6 -24 -38 -72 -29 -31 -63 -79 -77 -105 -54
-107 -72 -264 -36 -309 16 -20 20 -21 33 -8 10 12 18 13 32 4 15 -9 21 -7 33
8 8 11 14 14 14 7 0 -7 9 -11 23 -9 17 2 22 9 22 35 0 17 3 29 7 27 10 -6 48
14 48 26 0 10 -25 37 -40 42 -25 8 69 218 98 218 4 0 19 -21 33 -47 23 -47 24
-55 27 -300 l3 -253 170 0 169 0 0 59 0 59 109 0 109 0 -5 -59 -4 -59 173 0
173 0 -3 230 c-4 197 -2 237 13 285 10 30 21 55 26 55 9 0 61 -65 78 -98 7
-13 19 -46 27 -73 15 -49 15 -49 -13 -73 -24 -21 -26 -26 -13 -41 7 -9 21 -14
31 -12 13 4 16 -2 15 -27 -1 -29 1 -31 32 -30 17 1 32 -2 32 -7 0 -5 9 -9 20
-9 11 0 20 5 20 12 0 6 9 3 21 -8 20 -18 21 -18 35 1 17 23 19 151 3 210 -22
85 -79 176 -156 249 l-36 33 40 36 c22 20 91 75 154 123 63 47 124 95 136 106
12 12 27 17 34 13 7 -5 10 -4 5 3 -3 6 61 71 145 149 363 331 513 565 613 954
78 305 88 662 24 919 -79 324 -306 590 -645 756 -198 97 -474 169 -755 199
-132 13 -446 18 -578 8z m-267 -287 c106 -44 138 -190 61 -276 -45 -49 -81
-64 -148 -58 -144 12 -213 177 -121 286 49 58 137 78 208 48z m1103 -5 c110
-50 139 -193 56 -280 -63 -66 -150 -77 -223 -28 -54 36 -79 82 -79 144 0 81
35 135 110 167 47 20 87 19 136 -3z"/>
<path d="M2404 3586 c-87 -87 8 -217 117 -160 68 35 71 135 5 175 -47 29 -82
25 -122 -15z"/>
<path d="M3499 3579 c-63 -67 -17 -168 77 -169 32 0 46 6 69 30 64 67 20 170
-73 170 -36 0 -49 -5 -73 -31z"/>
<path d="M1350 1161 c-127 -18 -251 -70 -327 -136 -66 -56 -112 -159 -120
-265 -13 -188 44 -345 175 -482 47 -49 77 -89 75 -98 -4 -11 -2 -12 5 -2 7 10
22 2 66 -34 56 -47 57 -47 38 -68 -19 -21 -42 -59 -42 -70 0 -3 15 -6 33 -6
27 0 36 6 45 26 13 28 32 24 32 -7 0 -19 8 -19 205 -19 115 1 205 5 205 10 0
5 -13 25 -30 43 l-29 34 28 27 c19 18 34 25 47 20 13 -4 15 -3 6 3 -10 8 -5
16 20 35 64 49 179 172 207 222 92 162 106 416 31 544 -22 37 -25 46 -10 37 6
-3 10 -1 10 5 0 7 -6 10 -12 7 -7 -2 -31 13 -54 33 -100 91 -241 139 -429 145
-66 2 -145 0 -175 -4z m-111 -186 c36 -35 36 -102 2 -139 -51 -54 -138 -38
-167 31 -43 103 86 187 165 108z m634 -3 c60 -63 17 -172 -68 -172 -29 0 -45
8 -71 34 -38 38 -43 70 -19 116 19 38 41 49 91 50 31 0 46 -6 67 -28z"/>
<path d="M4515 1164 c-226 -33 -381 -130 -435 -269 -45 -118 -37 -302 20 -439
43 -103 161 -235 304 -339 17 -12 16 -15 -8 -51 -35 -52 -34 -66 7 -66 27 0
36 6 47 27 l13 28 11 -27 10 -28 147 0 c141 0 147 1 152 21 6 23 27 17 27 -7
0 -10 12 -14 40 -14 39 0 40 1 29 23 -6 12 -21 32 -32 45 -23 25 -24 24 53 81
40 30 56 37 63 28 6 -8 7 -7 4 4 -4 11 16 37 55 75 118 115 179 245 193 409
27 310 -169 488 -550 500 -66 2 -133 1 -150 -1z m415 -248 c69 -36 134 -116
112 -138 -19 -19 -75 -12 -96 13 l-21 25 -21 -25 c-29 -34 -80 -33 -109 1
l-22 25 -21 -23 c-29 -34 -84 -33 -111 2 -19 24 -20 24 -30 6 -13 -25 -60 -42
-87 -31 -12 4 -29 18 -38 30 -14 21 -16 21 -22 5 -18 -47 -115 -49 -130 -4
l-6 21 -17 -20 c-27 -34 -55 -44 -90 -32 -17 6 -31 16 -31 23 0 20 69 95 103
113 59 30 81 32 342 30 232 -2 264 -4 295 -21z m-631 -332 l21 -27 21 27 c28
36 80 36 108 0 l21 -27 21 27 c27 34 78 36 109 3 l23 -23 23 23 c31 31 79 31
107 -1 l21 -24 19 24 c25 33 81 33 109 1 l21 -23 23 23 c24 24 67 30 93 14 12
-8 10 -16 -12 -50 -52 -78 -133 -111 -275 -111 -57 0 -69 3 -87 23 -11 13 -16
17 -11 10 5 -8 6 -16 3 -20 -4 -3 -73 -6 -154 -7 -140 -1 -151 0 -198 25 -61
31 -122 104 -104 125 20 24 75 17 98 -12z"/>
<path d="M6571 238 c-19 -22 -34 -45 -34 -51 0 -7 -9 -13 -19 -13 -10 0 -18 6
-18 13 0 6 -4 14 -8 17 -5 3 -6 -8 -4 -25 4 -29 13 -33 60 -29 12 1 22 -3 22
-9 0 -6 -10 -11 -21 -11 -18 0 -19 -3 -9 -15 12 -15 6 -35 -11 -35 -5 0 -9 7
-9 15 0 8 -5 15 -10 15 -7 0 -8 -6 -2 -16 11 -19 4 -62 -11 -71 -7 -4 -8 0 -3
12 8 22 -13 38 -31 23 -10 -8 -13 -6 -13 6 0 9 -8 16 -20 16 -11 0 -20 5 -20
10 0 6 14 10 30 10 17 0 30 -4 30 -10 0 -5 5 -10 11 -10 6 0 9 6 6 14 -3 7 0
20 6 27 7 8 8 11 3 7 -4 -4 -15 -1 -23 7 -19 19 -37 19 -29 0 8 -22 -10 -18
-35 8 -22 22 -22 20 -3 -27 3 -8 -4 -24 -17 -37 l-22 -22 31 5 c21 3 33 0 37
-10 3 -10 0 -12 -10 -8 -8 3 -14 0 -12 -7 1 -7 -6 -11 -17 -9 -11 2 -15 -1
-11 -7 4 -7 23 -9 48 -5 30 4 38 3 28 -4 -10 -7 84 -11 292 -12 l307 -1 0 90
c0 62 -4 91 -12 94 -10 4 -10 6 0 6 6 1 12 8 12 17 0 9 -5 12 -12 8 -7 -4 -8
-3 -4 5 4 6 0 18 -8 27 -9 8 -16 11 -16 5 0 -6 -7 -11 -15 -11 -8 0 -15 -5
-15 -10 0 -6 7 -10 16 -8 10 2 19 -2 21 -8 3 -10 -23 -12 -69 -5 -5 1 -8 8 -8
17 0 15 -2 15 -23 1 -21 -14 -25 -13 -47 12 -13 14 -21 19 -17 9 4 -11 -4 -24
-26 -41 -35 -26 -71 -42 -62 -28 3 5 -1 12 -7 15 -18 7 20 36 38 29 8 -3 14
-1 14 4 0 19 -43 11 -65 -13 -26 -28 -50 -31 -60 -6 -6 15 -8 15 -18 2 -18
-23 -38 -23 -44 0 -7 27 -23 26 -18 -1 3 -16 0 -19 -12 -15 -11 4 -14 2 -9 -9
3 -10 -1 -15 -14 -15 -31 0 -33 18 -5 55 24 30 32 34 61 30 22 -3 32 0 28 6
-3 5 -13 9 -22 7 -10 -1 -21 0 -27 3 -5 3 -25 -12 -44 -33z"/>
<path d="M4012 172 c7 -9 20 -22 28 -29 8 -6 12 -15 8 -19 -5 -4 1 -13 12 -21
11 -8 19 -22 19 -31 -1 -15 -2 -15 -6 0 -2 10 -9 19 -14 19 -19 3 -24 5 -35
12 -7 4 -24 0 -40 -8 -15 -7 -31 -12 -36 -9 -4 3 -8 1 -8 -4 0 -4 -9 -18 -21
-31 -12 -12 -18 -25 -14 -29 3 -3 9 -1 13 5 11 17 48 9 44 -10 -2 -14 21 -16
198 -17 l201 0 -3 22 c-2 18 -9 23 -30 23 -17 -1 -24 3 -19 8 14 14 2 37 -18
37 -9 0 -22 10 -27 23 -6 12 -9 17 -8 10 4 -17 -23 -36 -42 -29 -9 3 -14 13
-10 21 3 8 0 14 -7 12 -12 -2 -13 4 -2 38 5 16 4 16 -7 -3 -8 -12 -17 -19 -22
-15 -4 4 -4 0 0 -10 7 -20 -6 -23 -24 -5 -7 7 -12 8 -12 2 0 -5 -7 -19 -17
-30 -15 -20 -17 -20 -33 -4 -11 11 -16 27 -13 43 5 27 -7 39 -44 43 -21 2 -22
0 -11 -14z"/>
<path d="M1863 128 c-10 -17 -11 -32 0 -39 5 -3 1 -9 -8 -12 -9 -4 -13 -3 -10
3 3 6 0 10 -8 10 -18 0 -29 -24 -17 -36 5 -5 -8 -9 -31 -9 -23 -1 -38 3 -36
10 2 5 11 9 20 7 8 -1 19 2 22 8 4 6 1 11 -6 9 -37 -5 -43 2 -19 21 14 11 20
20 14 20 -15 0 -46 -35 -37 -43 14 -15 -12 -6 -29 10 -11 9 -18 11 -18 5 0 -7
4 -12 8 -12 5 0 17 -18 27 -40 l18 -40 140 0 c129 0 138 1 126 17 -13 14 -12
15 6 6 15 -8 24 -6 37 8 17 18 17 19 -1 28 -10 6 -22 7 -26 3 -5 -4 -4 -1 0 7
6 11 4 13 -8 8 -11 -4 -14 -2 -10 9 4 12 0 14 -23 8 -16 -4 -31 -10 -34 -14
-8 -11 -50 -32 -50 -25 0 3 14 19 31 34 22 21 27 31 18 36 -7 5 -19 0 -30 -14
-23 -28 -55 -24 -52 7 3 25 -2 28 -14 10z"/>
</g>
</svg>
