<?xml version="1.0" standalone="no"?>
<!DOCTYPE svg PUBLIC "-//W3C//DTD SVG 20010904//EN"
 "http://www.w3.org/TR/2001/REC-SVG-20010904/DTD/svg10.dtd">
<svg version="1.0" xmlns="http://www.w3.org/2000/svg"
 width="541.000000pt" height="361.000000pt" viewBox="0 0 541.000000 361.000000"
 preserveAspectRatio="xMidYMid meet">
<metadata>
Created by potrace 1.15, written by Peter Selinger 2001-2017
</metadata>
<g transform="translate(0.000000,361.000000) scale(0.100000,-0.100000)"
fill="#000000" stroke="none">
<path d="M0 3539 c0 -57 4 -75 18 -85 22 -17 59 -18 65 -1 6 20 -4 47 -19 47
-8 0 -14 7 -14 15 0 17 25 20 35 5 10 -16 38 -12 31 5 -12 33 16 13 30 -21 18
-43 12 -66 -13 -57 -10 3 -15 3 -11 -1 3 -4 14 -9 24 -10 10 -2 25 -21 35 -47
23 -58 23 -69 -2 -69 -11 0 -17 -4 -14 -10 4 -6 91 -10 227 -10 122 0 219 2
217 4 -2 2 -74 7 -159 10 -179 8 -184 9 -198 39 -6 12 -11 16 -11 10 -2 -27
-18 -11 -30 30 -7 23 -20 54 -28 70 -8 16 -10 27 -4 27 6 0 11 -4 11 -10 0 -6
30 -10 69 -10 56 0 69 3 67 15 -1 8 -11 21 -21 29 -16 11 3 14 136 18 l154 6
35 -34 c30 -29 43 -34 83 -34 26 0 47 2 47 4 0 2 -7 17 -15 32 l-15 29 163 6
c89 4 165 4 169 0 6 -6 25 -86 50 -213 9 -45 16 -58 30 -58 10 0 18 5 18 10 0
6 -4 10 -9 10 -7 0 -51 158 -51 184 0 3 20 6 44 6 l44 0 -14 30 c-21 41 -11
52 42 44 30 -4 44 -3 44 5 0 6 -6 11 -13 11 -7 0 -30 9 -52 20 -27 14 -59 20
-102 20 -60 0 -63 -1 -53 -19 5 -11 10 -21 10 -23 0 -2 -62 0 -137 5 -90 5
-147 13 -165 22 -17 10 -55 15 -113 15 -78 0 -86 -2 -74 -16 11 -14 8 -15 -32
-9 -24 4 -45 11 -47 16 -2 5 -106 9 -243 9 l-239 0 0 -71z"/>
<path d="M3510 3599 c0 -6 -10 -25 -22 -42 -13 -18 -23 -34 -24 -37 -2 -20
-49 -80 -62 -80 -14 0 -14 -2 -3 -9 11 -7 11 -15 2 -41 -6 -18 -11 -35 -11
-36 0 -2 15 -4 33 -4 36 0 44 10 119 145 66 119 65 115 13 115 -26 0 -45 -5
-45 -11z"/>
<path d="M3945 3600 c-22 -4 -30 -8 -17 -9 12 0 22 -6 22 -11 0 -14 -72 -110
-82 -110 -4 0 -8 -4 -8 -9 0 -17 -67 -78 -95 -86 -27 -8 -28 -9 -7 -12 24 -5
30 -31 10 -51 -16 -16 -9 -21 35 -24 20 -1 37 -3 37 -3 0 -1 -11 -39 -24 -85
-22 -74 -26 -103 -12 -89 2 2 15 47 29 100 27 102 33 113 147 263 117 153 110
136 54 135 -27 -1 -67 -5 -89 -9z"/>
<path d="M4378 3537 c-38 -39 -68 -73 -68 -76 0 -3 -25 -29 -55 -57 -30 -29
-55 -57 -55 -63 0 -6 -11 -13 -25 -17 -14 -3 -25 -12 -25 -19 0 -7 -9 -24 -20
-38 -17 -22 -18 -26 -4 -31 9 -3 30 -6 48 -6 27 0 45 11 95 60 33 33 61 65 61
70 0 6 6 11 13 11 6 1 64 55 127 120 l114 119 -69 -1 -70 0 -67 -72z"/>
<path d="M4880 3590 c-13 -11 -29 -20 -37 -20 -8 0 -12 -4 -9 -9 3 -5 -7 -13
-22 -19 -73 -27 -69 -25 -49 -29 24 -6 22 -30 -4 -38 -11 -4 -44 -4 -72 -2
l-52 6 57 -12 c59 -12 86 -27 51 -27 -20 0 -76 -44 -67 -53 3 -3 -10 -14 -29
-26 -18 -11 -46 -32 -61 -46 -15 -14 -31 -25 -36 -25 -5 0 -7 -6 -4 -14 8 -21
-51 -30 -140 -23 -81 7 -73 -8 10 -19 66 -8 82 -17 65 -38 -11 -13 -9 -16 11
-20 12 -3 35 -7 49 -10 18 -4 32 0 44 14 19 21 55 26 71 10 5 -5 39 -16 74
-23 44 -9 65 -18 65 -27 0 -24 92 -40 132 -24 l33 13 -30 -59 c-16 -32 -34
-61 -40 -65 -14 -9 -12 -25 3 -25 7 0 29 32 47 71 19 39 38 73 42 75 9 6 58
-17 58 -27 0 -11 57 -25 160 -40 47 -7 87 -14 88 -15 2 -1 -7 -21 -21 -44 -23
-38 -26 -40 -32 -21 -8 27 -25 18 -25 -14 0 -22 -3 -24 -32 -19 -22 3 -14 -2
22 -15 30 -11 64 -21 75 -21 11 0 38 -7 60 -15 22 -8 49 -14 60 -14 37 -1 -5
17 -71 30 l-63 12 30 60 30 59 45 -7 44 -6 0 189 c0 182 -1 190 -19 185 -11
-3 -21 -13 -24 -23 -3 -13 -11 -16 -32 -12 -27 5 -27 6 -9 18 89 61 83 51 84
142 l0 82 -102 -1 c-81 0 -97 -3 -75 -11 15 -5 27 -13 27 -17 0 -11 -46 -31
-73 -32 -15 -1 -9 -5 18 -14 l40 -13 -40 -1 c-42 -1 -89 -21 -50 -21 10 0 15
-3 10 -8 -18 -15 -85 -33 -96 -26 -7 4 -7 -1 1 -16 l12 -23 -82 6 c-45 3 -84
8 -88 11 -3 4 3 13 14 20 14 10 146 118 173 142 2 2 -41 4 -96 4 -86 0 -103
-3 -123 -20z m107 -174 c77 -17 128 -34 101 -35 -22 -1 -88 -32 -88 -42 0 -4
8 -10 18 -12 9 -3 -8 -5 -38 -6 -47 -2 -51 -4 -30 -12 20 -8 22 -12 10 -19 -8
-5 -33 -10 -55 -11 -22 -1 -31 -3 -20 -6 27 -7 43 -23 22 -23 -9 0 -20 -6 -24
-13 -19 -30 -60 -40 -135 -33 -102 10 -111 18 -68 54 163 139 206 172 221 172
10 0 48 -6 86 -14z m334 -79 c-1 -4 -1 -11 -1 -16 0 -4 -20 -14 -45 -21 -46
-13 -55 -23 -33 -36 15 -10 -16 -22 -57 -24 l-30 -1 25 -14 25 -14 -33 -7
c-18 -4 -35 -11 -38 -15 -3 -5 -14 -9 -25 -9 -10 0 -19 -4 -19 -10 0 -5 -17
-10 -37 -10 l-38 1 45 39 c25 22 50 40 57 40 6 0 13 4 15 8 2 4 36 31 76 59
55 38 79 50 94 44 11 -4 19 -10 19 -14z"/>
<path d="M421 3244 c20 -22 102 -106 182 -189 264 -274 317 -330 317 -340 0
-6 17 -9 40 -7 39 4 50 14 30 27 -5 3 -7 12 -4 19 3 8 -3 17 -13 20 -28 9 -85
65 -78 76 3 5 0 10 -8 10 -12 0 -61 51 -162 168 -16 19 -56 62 -87 96 -61 63
-66 71 -45 79 6 3 2 6 -10 6 -11 1 -33 15 -47 32 -23 27 -34 32 -89 36 l-62 5
36 -38z"/>
<path d="M0 3251 c0 -9 10 -23 23 -30 l22 -15 -25 -7 c-24 -7 -23 -7 6 -8 30
-1 128 -78 421 -328 31 -26 71 -61 89 -77 19 -15 34 -32 34 -37 0 -14 -70 -10
-115 6 -50 18 -53 18 -29 0 19 -15 19 -15 -1 -9 -11 3 -34 12 -51 20 -17 7
-42 18 -55 23 -21 9 -22 10 -4 11 18 1 17 2 -5 14 l-25 14 35 6 c19 3 53 7 75
9 22 2 -5 4 -60 5 -60 1 -95 6 -90 11 6 5 21 11 35 14 17 3 13 5 -15 6 -50 2
-85 11 -85 22 0 5 7 9 16 9 8 0 12 5 9 10 -3 6 -14 10 -23 10 -20 0 -73 56
-63 66 3 4 2 5 -4 2 -5 -4 -23 0 -40 7 -27 12 -28 13 -7 14 20 1 21 3 10 21
-7 11 -22 20 -34 20 -26 0 -34 8 -27 27 5 12 7 12 14 1 5 -7 9 -8 9 -2 0 6 -9
19 -20 29 -20 18 -20 17 -20 -87 l0 -105 38 -25 c20 -13 45 -27 55 -31 9 -3
17 -11 17 -18 0 -6 -7 -8 -16 -5 -9 3 -32 7 -52 7 -24 1 -29 3 -14 6 26 5 20
23 -9 23 -18 0 -19 -8 -19 -101 l0 -100 83 4 c45 3 109 11 142 19 33 8 65 13
70 11 6 -2 19 -33 29 -68 11 -38 24 -65 32 -65 10 0 8 10 -6 43 -29 64 -28 67
38 67 50 1 55 2 39 14 -16 12 -15 14 10 19 16 3 40 3 55 0 15 -3 42 0 59 6 27
9 37 8 64 -9 40 -25 90 -27 81 -4 -3 9 -6 21 -6 28 0 6 -17 20 -37 31 -46 25
-75 55 -69 72 3 8 -2 13 -12 13 -10 0 -25 9 -35 20 -9 11 -24 20 -32 20 -8 0
-15 6 -15 13 0 7 -15 27 -32 44 -146 140 -196 184 -215 189 -13 3 -23 12 -23
20 0 8 1 14 3 14 1 1 52 3 112 7 61 3 112 7 114 9 2 2 -55 4 -127 4 -126 0
-132 1 -158 25 -31 29 -29 30 20 10 44 -19 48 -12 6 10 -17 9 -39 14 -49 10
-9 -3 -45 -1 -79 3 -54 8 -62 7 -62 -7z"/>
<path d="M830 3254 c0 -4 26 -41 58 -83 85 -110 240 -316 292 -388 36 -51 50
-63 72 -63 26 0 27 1 16 28 -7 15 -26 43 -43 63 -35 41 -66 86 -208 294 l-102
150 -43 3 c-23 2 -42 0 -42 -4z"/>
<path d="M1240 3234 c0 -3 16 -33 36 -67 20 -34 55 -96 76 -137 22 -41 51 -85
64 -97 13 -12 19 -23 14 -25 -5 -2 10 -41 34 -88 36 -69 49 -86 69 -88 22 -3
25 0 19 20 -11 36 -83 158 -93 158 -6 0 -8 4 -4 10 6 10 -62 153 -76 158 -5 2
-9 10 -9 18 0 8 -11 37 -25 64 -14 28 -23 50 -19 50 3 0 -1 7 -10 15 -14 14
-76 22 -76 9z"/>
<path d="M1630 3228 c0 -7 159 -469 165 -478 3 -5 13 -10 22 -10 18 0 14 21
-21 120 -13 36 -44 133 -69 215 -42 141 -46 150 -71 153 -14 2 -26 2 -26 0z"/>
<path d="M2015 3133 c7 -43 20 -134 30 -203 22 -171 25 -180 41 -180 19 0 18
10 -11 244 -14 110 -25 203 -25 208 0 4 -11 8 -24 8 l-23 0 12 -77z"/>
<path d="M2575 3177 c-2 -6 -9 -46 -15 -87 -6 -41 -16 -93 -22 -115 -14 -54
-15 -59 -23 -147 -6 -67 -4 -78 9 -78 14 0 33 50 34 90 1 8 3 27 5 43 3 15 0
27 -7 27 -7 0 -6 4 2 9 11 7 51 196 52 242 0 20 -29 34 -35 16z"/>
<path d="M2905 3108 c-34 -103 -96 -274 -115 -316 -25 -54 -26 -85 -2 -80 21
4 106 229 90 239 -5 4 -3 9 5 12 20 7 58 112 50 133 -4 11 -2 15 4 11 5 -4 15
5 22 19 15 33 15 34 -13 34 -21 0 -27 -8 -41 -52z"/>
<path d="M3232 3068 c-17 -35 -54 -103 -81 -153 -27 -49 -56 -101 -63 -115 -8
-14 -27 -46 -42 -72 l-28 -48 25 0 c21 0 33 13 66 71 23 39 39 75 35 80 -3 5
-1 9 4 9 9 0 172 269 172 283 0 4 -13 7 -28 7 -24 0 -32 -8 -60 -62z"/>
<path d="M3600 3092 c0 -9 -157 -225 -249 -343 -70 -89 -76 -104 -41 -104 18
0 32 10 52 40 15 22 89 119 166 216 76 96 142 181 146 187 5 9 -5 12 -33 12
-23 0 -41 -4 -41 -8z"/>
<path d="M3930 3042 c-98 -111 -221 -241 -303 -322 -53 -52 -97 -98 -97 -102
0 -4 13 -8 28 -8 23 0 66 39 247 220 121 121 222 225 223 230 2 6 -14 10 -35
10 -30 0 -44 -6 -63 -28z"/>
<path d="M4336 3003 c-4 -4 -21 -6 -39 -5 -27 3 -46 -8 -119 -70 -47 -40 -128
-108 -180 -151 -51 -43 -122 -105 -158 -137 -65 -58 -65 -58 -38 -65 32 -8 12
-23 284 200 243 199 283 234 268 235 -6 0 -14 -3 -18 -7z"/>
<path d="M4583 2983 c-17 -9 -34 -24 -36 -34 -4 -14 -15 -19 -39 -20 -18 0
-27 -3 -20 -6 18 -7 15 -21 -6 -27 -10 -3 -34 -21 -54 -39 -49 -44 -80 -67
-93 -67 -5 0 -32 -21 -59 -45 -27 -25 -55 -45 -63 -45 -8 0 -32 -18 -53 -40
-21 -22 -41 -40 -45 -40 -4 0 -18 -9 -32 -20 -14 -11 -35 -20 -47 -20 -15 0
-22 -6 -22 -20 0 -16 7 -20 37 -20 21 0 40 -6 42 -12 4 -8 6 -7 6 4 1 9 43 45
99 83 533 363 534 364 510 369 -67 14 -95 14 -125 -1z"/>
<path d="M4883 2940 c-6 -7 -23 -12 -37 -12 -15 0 -29 -5 -33 -11 -4 -6 0 -8
10 -4 9 3 19 2 22 -3 4 -6 0 -11 -7 -12 -7 0 -18 -2 -24 -2 -6 -1 -23 -15 -38
-33 -14 -17 -63 -53 -109 -79 -45 -26 -102 -61 -127 -78 -53 -36 -95 -60 -132
-78 -16 -7 -28 -17 -28 -23 0 -11 -77 -55 -96 -55 -6 0 -19 -9 -28 -19 -17
-19 -17 -20 18 -27 21 -3 48 -1 64 5 23 10 37 7 89 -14 38 -15 82 -25 113 -25
27 0 50 -3 50 -7 0 -5 -13 -32 -29 -60 -16 -29 -25 -53 -20 -53 5 0 22 25 37
56 l27 56 40 -6 c123 -20 128 -20 117 0 -11 23 -5 44 13 44 14 0 29 -28 26
-47 -1 -7 8 -13 20 -13 15 0 19 -4 15 -16 -5 -13 -4 -14 7 -6 9 8 24 9 48 2
54 -16 152 -33 177 -32 l23 2 -23 -39 c-13 -22 -38 -56 -55 -77 -33 -39 -34
-54 -5 -54 10 1 27 21 42 53 l25 52 5 -40 c6 -52 19 -33 14 21 -6 68 8 77 93
63 41 -7 70 -16 67 -21 -4 -6 -25 -7 -50 -3 -33 5 -48 2 -59 -9 -17 -17 -20
-40 -4 -30 7 4 10 1 7 -7 -3 -8 4 -19 15 -25 18 -10 14 -14 -37 -33 -31 -11
-62 -21 -69 -21 -7 0 -18 -5 -25 -12 -9 -9 -18 -9 -36 0 -14 6 -74 23 -133 37
-59 15 -128 33 -153 41 -25 7 -98 25 -162 40 -119 27 -168 27 -168 -1 0 -9
-12 -21 -27 -28 -16 -6 -43 -22 -62 -35 -19 -12 -41 -20 -48 -18 -17 7 -31
-20 -25 -50 5 -26 12 -30 28 -14 21 21 132 58 145 48 11 -8 10 -9 -3 -4 -10 3
-20 1 -23 -4 -3 -5 5 -10 17 -12 22 -4 22 -5 -5 -16 -16 -7 -51 -12 -78 -12
-27 0 -49 -4 -49 -9 0 -11 125 -35 139 -26 25 15 20 -27 -8 -84 -17 -34 -28
-61 -23 -61 5 0 21 28 37 63 16 34 30 63 31 65 4 6 164 -20 164 -27 0 -3 -14
-38 -32 -77 l-32 -71 -89 2 c-64 2 -92 -1 -102 -11 -18 -19 -34 -18 -31 2 1 9
13 22 27 29 23 13 22 14 -31 29 -30 9 -77 20 -105 25 -27 5 -63 14 -78 20 -15
6 -54 8 -87 5 -32 -3 -61 -1 -64 4 -5 8 -85 5 -94 -3 -1 -1 0 -10 4 -19 5 -13
13 -16 33 -11 21 5 24 4 14 -6 -7 -7 -13 -17 -13 -21 0 -11 75 -48 98 -48 10
0 22 -4 28 -10 5 -5 26 -11 47 -12 29 -2 36 -6 31 -20 -2 -9 0 -19 6 -23 7 -4
14 2 17 14 6 25 19 27 27 4 6 -15 8 -15 17 -3 8 11 9 8 6 -13 -2 -15 0 -30 5
-33 5 -3 9 -40 8 -82 0 -67 4 -154 13 -294 1 -20 5 -40 9 -43 3 -4 27 -3 53 0
46 7 53 19 12 21 -12 1 -28 2 -34 3 -8 0 -13 15 -13 34 0 39 16 62 48 70 19 4
22 1 22 -21 0 -15 5 -44 11 -66 9 -33 14 -37 34 -33 23 4 24 1 27 -47 l3 -51
65 0 65 0 -2 58 c-1 36 3 57 10 57 8 0 7 4 -1 12 -16 16 -16 128 -1 128 7 0
18 -8 26 -17 13 -17 14 -16 10 5 -3 12 -1 22 4 22 5 0 9 -10 10 -22 0 -13 2
-42 4 -65 2 -28 -1 -43 -10 -47 -8 -3 -13 0 -11 7 1 7 1 9 -1 4 -3 -4 -9 -5
-14 -2 -5 4 -6 -1 -3 -9 3 -9 12 -16 19 -16 15 0 25 -31 25 -77 0 -18 5 -33
11 -33 8 0 10 17 6 55 -5 49 -4 55 13 55 10 0 22 5 25 10 4 6 -5 10 -19 10
-25 0 -26 3 -26 55 0 55 0 55 26 49 26 -7 26 -6 21 32 -3 22 -14 80 -25 129
-11 50 -26 113 -32 142 -7 30 -18 53 -26 55 -11 2 -6 21 23 81 l38 79 54 -5
c30 -3 58 -12 62 -19 5 -7 10 -46 11 -85 1 -40 2 -83 2 -95 1 -14 -5 -23 -14
-24 -8 -1 -39 -2 -67 -2 -32 -1 -53 -7 -53 -13 0 -9 20 -10 69 -5 l69 6 7 -85
c4 -47 6 -88 3 -90 -2 -2 -27 -5 -56 -6 -35 -2 -52 -7 -52 -16 0 -9 14 -11 54
-8 l54 5 7 -50 c4 -27 7 -70 7 -96 l1 -46 36 6 c20 3 46 6 59 6 12 0 22 4 22
10 0 5 -8 9 -17 8 -10 -1 -33 0 -50 0 l-33 2 0 60 c0 59 0 60 38 79 33 17 206
50 347 65 l50 6 -69 -63 c-64 -58 -69 -65 -64 -96 6 -43 2 -44 -144 -49 -48
-2 -64 -15 -29 -25 24 -6 32 -49 14 -73 -8 -11 -19 -28 -24 -39 -9 -17 -7 -17
10 3 10 12 22 22 24 22 6 0 18 -73 21 -123 1 -27 6 -32 26 -33 14 -1 47 -11
73 -23 27 -11 53 -21 58 -21 5 0 6 47 3 115 -4 67 -3 115 2 115 23 -1 36 -19
31 -43 -6 -21 -3 -24 16 -22 12 1 70 3 129 4 l107 1 -2 125 c-2 110 -8 148
-19 115 -2 -6 -26 -14 -53 -19 -41 -6 -46 -9 -27 -15 12 -4 22 -14 22 -22 0
-13 -31 -19 -87 -16 -28 1 -31 -25 -5 -44 14 -11 14 -13 2 -14 -12 0 -15 -12
-14 -52 1 -29 0 -38 -3 -20 -4 31 -6 32 -53 32 -44 0 -50 3 -56 24 -9 36 2 46
52 46 49 0 59 14 17 25 -15 3 -31 12 -35 18 -5 8 -8 6 -8 -5 0 -10 -7 -18 -16
-18 -11 0 -14 9 -12 37 3 32 12 45 73 96 56 47 75 58 100 56 17 -2 36 0 42 4
7 4 18 -2 27 -15 l16 -22 0 27 c0 15 5 27 10 27 6 0 10 -6 10 -12 0 -7 3 -23
6 -34 4 -16 0 -23 -18 -29 l-23 -7 25 -7 25 -7 3 225 c1 123 1 225 -1 227 -2
2 -22 -2 -44 -9 l-41 -12 23 -87 c32 -122 38 -161 26 -154 -6 4 -28 -9 -49
-29 -38 -34 -43 -35 -228 -64 -288 -44 -295 -45 -305 -30 -15 24 -11 115 6
129 15 13 109 36 180 45 54 7 162 26 202 35 37 9 43 5 43 -26 0 -21 -4 -23
-29 -18 -16 4 -32 1 -35 -5 -5 -8 -13 -8 -29 0 -21 9 -21 9 -4 -5 11 -8 26
-12 35 -9 12 5 14 1 10 -15 -7 -26 13 -30 32 -7 18 22 30 18 30 -9 0 -27 -5
-29 -130 -46 -47 -7 -89 -17 -95 -22 -7 -7 -3 -8 10 -4 11 3 66 12 122 20 56
8 107 17 113 21 7 5 9 30 4 76 -5 55 -4 69 7 71 8 0 19 2 24 3 6 2 16 3 23 4
6 0 12 14 12 31 0 24 -4 30 -22 30 -13 0 -85 5 -161 10 -81 7 -144 7 -153 2
-11 -6 17 -11 85 -16 56 -4 109 -10 118 -13 9 -4 -78 -28 -193 -54 -152 -34
-211 -44 -217 -35 -13 19 -1 105 18 126 10 11 20 18 23 16 2 -3 16 0 31 6 14
5 42 12 61 14 19 3 44 7 55 10 11 3 28 8 37 10 13 4 15 0 11 -17 -4 -15 -3
-20 5 -15 7 4 12 13 12 20 0 17 35 48 43 39 4 -3 7 -2 7 3 0 5 20 10 44 11 58
2 71 -22 19 -36 -20 -6 -39 -9 -42 -7 -3 2 -12 -2 -19 -10 -9 -10 -9 -14 -1
-14 18 0 186 39 262 61 l67 20 0 355 c0 275 -3 355 -12 358 -7 2 -38 11 -68
20 -49 14 -110 28 -190 42 -14 2 -36 7 -50 9 -19 4 -21 3 -10 -4 12 -8 8 -12
-20 -18 -19 -4 -38 -6 -42 -5 -5 1 -8 -2 -8 -7 0 -5 15 -12 33 -16 47 -11 7
-19 -51 -10 l-46 7 53 30 c62 36 57 43 -39 53 -45 4 -69 3 -77 -5z m147 -111
c12 -7 11 -9 -5 -9 -11 -1 -38 -10 -60 -20 l-40 -19 35 6 c35 5 35 5 -18 -31
-30 -20 -55 -36 -57 -36 -1 0 -36 -20 -77 -45 -42 -25 -81 -45 -88 -45 -8 0
-23 -9 -35 -20 -19 -18 -28 -19 -64 -11 -24 5 -41 5 -41 0 0 -5 14 -9 31 -9
19 0 28 -4 23 -11 -3 -6 -14 -9 -24 -6 -9 2 -22 -4 -28 -14 -15 -23 -72 -39
-139 -39 -83 0 -76 9 76 97 31 18 81 45 111 60 30 16 58 32 61 36 3 4 55 37
115 73 105 62 111 64 159 58 28 -3 57 -10 65 -15z m180 -59 c-17 -16 -34 -30
-38 -30 -4 0 -20 -11 -36 -25 -16 -14 -37 -25 -47 -25 -10 0 -22 -6 -26 -13
-4 -8 -16 -16 -25 -20 -10 -3 -18 -12 -18 -20 0 -19 -53 -47 -89 -47 -23 0
-29 -4 -25 -15 5 -12 -1 -15 -27 -14 -19 1 -47 4 -64 8 l-30 7 30 16 c132 70
408 208 416 208 5 0 -4 -13 -21 -30z m-2 -549 c3 -9 -2 -11 -17 -6 -12 3 -21
2 -21 -4 0 -5 -10 -11 -22 -13 -17 -2 -6 -9 38 -25 33 -13 75 -26 92 -29 33
-7 40 -18 21 -30 -6 -3 -14 -2 -18 5 -10 16 -120 52 -161 52 -19 1 -55 -6 -80
-16 -85 -31 -181 -57 -195 -51 -7 2 -19 -2 -26 -10 -13 -16 -54 -12 -73 6 -16
16 84 52 128 47 26 -4 44 -1 50 7 10 11 102 43 146 50 8 1 26 7 40 13 49 20
55 22 74 20 11 -1 21 -8 24 -16z m-132 -750 c-14 -8 -26 -19 -26 -23 0 -13 12
-9 25 9 11 14 13 13 17 -10 4 -18 -2 -37 -18 -59 -28 -38 -31 -53 -5 -20 24
27 31 28 31 2 0 -11 -4 -20 -10 -20 -5 0 -10 -7 -10 -15 0 -8 -3 -15 -6 -15
-13 0 -74 33 -74 39 0 4 11 18 25 31 14 13 25 28 25 34 0 6 -18 -9 -39 -34
-22 -25 -42 -43 -44 -40 -3 3 -7 34 -8 70 l-3 65 65 5 c78 6 90 2 55 -19z"/>
<path d="M790 2575 c0 -2 61 -56 135 -120 111 -95 141 -116 163 -113 27 3 27
3 -23 48 -27 25 -79 73 -115 106 -36 34 -75 66 -87 73 -21 11 -73 16 -73 6z"/>
<path d="M516 2561 c8 -7 95 -71 235 -170 20 -14 49 -35 65 -47 16 -11 39 -19
52 -18 12 1 29 2 38 3 23 2 2 25 -37 41 -18 8 -28 18 -25 26 3 8 -1 14 -8 14
-29 0 -77 33 -173 117 -44 39 -53 43 -102 43 -32 0 -51 -4 -45 -9z"/>
<path d="M245 2545 c-38 -7 -71 -13 -72 -14 -2 0 -41 -1 -88 -1 l-85 0 0 -125
0 -125 58 7 c31 4 65 7 75 7 16 0 21 9 18 29 0 4 6 7 14 7 9 0 15 -9 15 -21 0
-20 3 -20 76 -14 42 4 83 8 92 9 11 1 23 -17 38 -59 12 -32 26 -61 33 -63 15
-5 15 -3 -14 62 -30 69 -30 68 -2 61 12 -4 52 -1 87 6 36 6 79 11 95 11 88 -3
120 -1 128 7 5 5 16 7 23 4 8 -3 14 0 14 7 0 8 -10 11 -26 7 -30 -5 -84 14
-104 37 -7 9 -19 16 -27 16 -24 0 -73 30 -73 44 0 7 -13 19 -30 26 -16 7 -30
16 -30 21 0 15 -74 57 -110 62 -19 2 -66 -1 -105 -8z"/>
<path d="M4063 2406 c-17 -6 -40 -19 -50 -27 -22 -19 -138 -89 -147 -89 -4 0
-16 -9 -28 -20 -11 -10 -34 -22 -49 -25 -31 -7 -30 -25 1 -25 10 0 26 -7 34
-16 12 -12 16 -12 16 -2 0 15 25 32 200 133 90 52 116 71 103 77 -24 9 -42 8
-80 -6z"/>
<path d="M4205 2348 c-33 -17 -62 -34 -65 -37 -3 -4 -27 -17 -55 -29 -27 -12
-45 -22 -40 -22 30 -2 -67 -39 -105 -40 -40 -1 -42 -2 -20 -11 14 -6 59 -14
100 -19 41 -5 94 -12 118 -16 35 -5 42 -4 42 10 0 13 -11 16 -55 16 -30 0 -55
3 -55 8 0 4 68 41 150 82 110 55 146 76 133 82 -38 14 -90 6 -148 -24z"/>
<path d="M2817 2317 c-39 -33 -45 -46 -46 -105 -1 -25 -7 -35 -26 -44 -14 -6
-25 -18 -25 -27 0 -10 -3 -12 -11 -4 -13 13 -55 5 -69 -12 -8 -10 -8 -19 0
-34 13 -25 26 -27 34 -6 6 17 51 20 61 5 3 -5 14 -10 24 -10 16 0 60 -37 50
-43 -45 -26 -68 -34 -78 -24 -18 18 -23 0 -13 -47 10 -48 8 -56 -15 -56 -26 0
-42 27 -49 79 -5 41 -10 51 -25 51 -13 0 -19 -7 -19 -21 0 -14 5 -19 14 -16 8
3 -3 -22 -25 -56 -21 -34 -39 -70 -39 -80 0 -9 -4 -16 -9 -15 -5 2 -9 0 -10
-4 -1 -5 -9 -16 -18 -26 -17 -16 -18 -15 -23 33 -5 50 -5 50 -42 53 -33 3 -38
7 -38 28 0 13 -4 24 -10 24 -5 0 -10 -6 -10 -14 0 -24 -34 -23 -57 3 l-23 24
0 -32 c0 -29 -2 -31 -35 -31 -19 0 -35 -1 -35 -2 -1 -2 -3 -45 -7 -95 l-5 -93
105 0 c99 0 139 -10 101 -24 -9 -4 -14 -9 -11 -13 4 -3 2 -14 -4 -25 -6 -11
-13 -17 -17 -13 -3 3 -14 -18 -23 -47 -14 -44 -14 -59 -4 -98 18 -64 34 -102
52 -122 11 -13 17 -43 19 -103 2 -47 8 -94 14 -105 13 -23 13 -60 1 -60 -9 0
-34 -60 -37 -90 -1 -8 -19 -58 -39 -110 -37 -93 -37 -95 -27 -175 14 -113 27
-154 56 -184 21 -21 26 -22 26 -8 0 9 -5 17 -12 17 -6 0 -8 3 -5 7 4 3 0 17
-8 30 -15 22 -14 23 9 23 14 0 37 5 52 10 21 9 29 7 40 -7 7 -10 14 -15 14
-10 0 11 -23 51 -35 59 -6 5 -6 8 1 8 17 0 26 58 13 82 -9 16 -7 23 10 35 12
8 21 25 21 38 0 14 14 66 30 116 17 50 32 114 34 142 3 29 9 63 14 77 l10 25
7 -27 c4 -14 15 -34 25 -43 14 -13 17 -23 10 -39 -4 -12 -4 -29 0 -37 5 -8 5
-33 0 -55 -14 -58 -12 -128 5 -178 9 -25 15 -48 14 -53 -6 -27 62 -83 102 -83
6 0 18 -8 25 -17 15 -20 19 -73 6 -73 -12 0 -68 62 -76 84 -4 12 -12 16 -22
12 -9 -4 -23 -1 -30 5 -11 9 -14 5 -14 -24 0 -46 22 -67 70 -67 21 0 41 -4 44
-9 11 -17 189 -32 204 -16 3 3 -5 44 -18 92 -12 49 -28 122 -36 163 -8 41 -18
86 -24 99 -6 13 -9 25 -7 27 2 2 33 -23 69 -55 37 -33 82 -71 102 -86 34 -26
35 -26 61 -9 59 39 62 100 7 153 -50 47 -138 109 -184 129 -45 20 -46 24 -17
153 36 162 38 173 39 210 0 64 -24 81 -118 87 -63 3 -85 9 -98 23 -9 11 -23
19 -31 19 -7 0 -13 7 -13 16 0 11 5 14 18 9 57 -22 168 -55 186 -55 12 0 27
-5 34 -12 9 -9 13 -7 18 5 3 9 13 17 21 17 10 0 12 6 8 19 -4 14 0 23 16 31
18 10 21 18 17 55 -6 52 -4 57 45 84 45 25 47 25 47 5 0 -14 3 -14 15 -4 12
10 15 10 15 -1 0 -10 3 -10 12 -1 10 10 10 15 -1 22 -12 7 -12 11 -2 24 7 9
11 29 9 46 -3 16 0 30 5 30 5 0 7 -19 5 -44 -7 -57 14 -53 37 8 15 40 15 43
-10 99 -14 32 -25 64 -25 71 0 21 -83 178 -100 188 -10 6 -26 5 -45 -3 -16 -7
-33 -13 -37 -13 -3 -1 -10 -4 -14 -8 -4 -5 -23 -8 -41 -8 -29 0 -33 -3 -28
-19 4 -14 0 -23 -16 -31 -18 -10 -25 -8 -46 14 -13 14 -28 26 -33 26 -6 0 -10
5 -10 11 0 7 10 5 25 -5 24 -16 27 -16 54 4 16 11 41 20 55 20 16 0 26 6 26
15 0 7 6 18 13 22 31 19 26 41 -18 82 -25 23 -50 41 -57 42 -7 1 -29 3 -48 4
-28 3 -44 -3 -73 -28z"/>
<path d="M620 2190 c-8 -5 -46 -10 -84 -10 -38 0 -83 -4 -100 -10 -17 -5 -94
-19 -171 -30 -77 -12 -156 -25 -175 -30 -19 -5 -47 -12 -63 -15 -26 -5 -27 -7
-27 -74 0 -92 8 -131 26 -124 11 4 12 8 3 19 -18 21 -4 28 23 11 12 -8 38 -18
56 -22 18 -4 30 -10 27 -15 -3 -5 1 -11 7 -14 7 -3 3 -3 -9 0 -17 4 -23 1 -23
-11 0 -11 5 -15 16 -11 8 3 12 2 9 -4 -7 -12 6 -38 20 -40 6 -1 9 -6 7 -11 -1
-5 4 -9 10 -10 7 0 4 -4 -7 -9 -17 -7 -17 -9 -2 -9 21 -1 22 -27 1 -39 -13 -7
-14 -13 -5 -29 5 -11 8 -22 6 -25 -2 -2 5 -9 15 -16 16 -10 20 -10 20 2 0 7 6
19 13 25 8 6 13 26 12 48 -2 21 1 43 6 49 5 6 10 24 11 40 1 16 10 37 20 47
10 10 16 22 13 27 -3 4 3 6 14 3 16 -4 18 1 17 36 0 27 -5 40 -12 37 -7 -3
-14 4 -17 15 -4 15 -2 19 8 15 8 -3 17 -1 20 5 4 5 10 7 15 4 10 -6 80 33 80
45 0 5 29 12 65 15 36 4 65 11 65 16 0 5 7 9 15 9 8 0 15 7 15 15 0 8 5 15 10
15 6 0 10 -6 10 -14 0 -13 111 -86 131 -86 5 0 9 6 9 14 0 17 97 28 124 14 12
-7 22 -6 29 1 6 6 25 11 42 12 l30 1 -35 13 c-32 12 -33 14 -10 15 14 1 -4 8
-39 15 -40 7 -67 18 -73 29 -5 9 -21 22 -36 27 -21 8 -23 12 -12 19 10 7 -4
10 -45 10 -33 0 -67 -5 -75 -10z"/>
<path d="M2059 1975 c-1 -41 -2 -81 -3 -87 -1 -8 15 -14 42 -16 l42 -3 0 53
c0 29 3 70 6 91 l7 37 -47 0 -46 0 -1 -75z"/>
<path d="M1971 1824 c-1 -17 -4 -46 -7 -63 l-6 -31 52 3 c28 2 55 9 59 16 6
10 10 8 15 -5 6 -15 9 -15 31 6 15 14 25 18 25 11 0 -8 6 -11 16 -7 12 4 14 1
9 -14 -4 -14 -2 -20 8 -20 22 0 34 21 42 73 l7 47 -30 0 c-17 0 -34 -5 -37
-11 -4 -6 -13 -8 -21 -5 -8 3 -14 1 -14 -4 0 -5 8 -11 18 -13 9 -3 -23 -5 -73
-4 -49 0 -80 2 -67 4 27 5 29 23 3 23 -11 0 -22 6 -24 13 -3 6 -6 -2 -6 -19z"/>
<path d="M471 1616 c-7 -8 -4 -20 9 -41 10 -16 17 -32 14 -37 -3 -4 28 -8 69
-8 63 0 80 -4 111 -25 21 -14 42 -23 47 -20 5 4 9 1 9 -5 0 -9 130 -100 143
-100 3 0 7 16 9 35 4 32 0 38 -31 57 -20 12 -79 49 -131 84 -89 57 -100 62
-167 67 -50 4 -75 2 -82 -7z"/>
</g>
</svg>
