<?xml version="1.0" standalone="no"?>
<!DOCTYPE svg PUBLIC "-//W3C//DTD SVG 20010904//EN"
 "http://www.w3.org/TR/2001/REC-SVG-20010904/DTD/svg10.dtd">
<svg version="1.0" xmlns="http://www.w3.org/2000/svg"
 width="620.000000pt" height="420.000000pt" viewBox="0 0 620.000000 420.000000"
 preserveAspectRatio="xMidYMid meet">
<metadata>
Created by potrace 1.15, written by Peter Selinger 2001-2017
</metadata>
<g transform="translate(0.000000,420.000000) scale(0.100000,-0.100000)"
fill="#000000" stroke="none">
<path d="M60 4035 c0 -71 4 -105 11 -105 6 0 27 -13 46 -30 41 -37 61 -38 65
-4 3 23 4 24 23 10 19 -14 19 -15 1 -35 -24 -26 -52 -27 -94 -1 -36 22 -52 19
-52 -9 0 -15 10 -19 51 -23 59 -6 79 -20 63 -46 -8 -12 -27 -18 -63 -20 -34
-2 -51 -7 -51 -16 0 -17 38 -27 69 -19 18 4 22 2 19 -8 -4 -10 -18 -13 -47
-11 -35 2 -41 -1 -41 -17 0 -17 7 -20 56 -20 50 0 63 -5 132 -50 64 -43 84
-51 122 -51 67 0 83 16 24 24 -96 13 -109 17 -90 28 14 8 15 13 5 24 -17 21 3
59 42 80 47 24 140 16 174 -16 32 -30 32 -55 -1 -85 l-25 -24 41 -42 c23 -24
48 -56 56 -71 13 -26 18 -28 57 -22 23 4 42 7 43 8 0 1 47 129 103 286 57 157
109 290 117 296 8 7 31 15 51 19 30 5 40 2 65 -22 43 -41 91 -145 96 -209 4
-44 8 -54 23 -54 33 0 69 -23 75 -47 5 -19 10 -22 28 -16 11 4 49 7 83 7 71
-2 79 7 86 94 3 34 12 64 26 83 13 17 21 32 19 33 -1 2 -48 18 -103 36 -55 18
-149 58 -209 88 l-109 56 -88 -15 c-48 -8 -99 -11 -114 -7 -14 3 -65 1 -113
-6 -62 -9 -97 -10 -122 -3 -58 17 -100 3 -100 -34 0 -30 67 -45 114 -25 21 9
42 16 45 16 10 0 1 -59 -9 -65 -12 -8 -203 16 -215 26 -5 6 -4 14 3 21 7 7 12
22 12 34 0 13 12 32 26 43 l27 21 -227 0 -226 0 0 -105z"/>
<path d="M1474 4113 c8 -16 33 -46 55 -67 22 -22 38 -43 35 -48 -3 -5 -11 -5
-17 0 -7 5 -30 12 -52 15 l-40 7 39 -15 c22 -8 42 -17 44 -20 2 -2 -10 -16
-27 -31 -42 -35 -61 -74 -61 -124 0 -23 -7 -54 -16 -69 -15 -25 -15 -30 0 -59
9 -17 16 -33 16 -35 0 -3 -17 -8 -37 -12 -20 -4 -57 -17 -82 -29 -26 -13 -71
-28 -103 -35 -73 -16 -108 -47 -108 -98 0 -21 -3 -55 -6 -75 -6 -31 -2 -40 21
-62 16 -15 49 -33 74 -40 25 -8 68 -26 95 -40 59 -31 137 -35 209 -10 31 10
52 12 63 6 13 -7 -1 -18 -72 -53 -49 -24 -90 -50 -92 -57 -2 -7 19 -23 50 -37
l53 -24 0 -55 c0 -45 5 -60 31 -93 65 -81 59 -79 372 -99 56 -4 102 -10 102
-13 0 -4 -23 -15 -51 -26 -28 -11 -53 -24 -56 -29 -4 -5 49 -7 123 -4 145 6
198 21 239 70 14 16 25 24 25 17 0 -21 -66 -75 -108 -87 -62 -19 -222 -27
-263 -13 -32 10 -41 8 -98 -20 -43 -22 -59 -34 -50 -39 26 -14 122 -20 136 -9
20 17 43 3 43 -26 0 -31 17 -33 22 -3 2 12 9 23 17 26 8 3 11 0 7 -7 -4 -6 -2
-11 5 -11 10 0 10 -3 1 -12 -22 -22 -13 -45 38 -97 45 -46 54 -51 94 -51 47 0
148 -34 236 -80 30 -16 69 -32 85 -36 49 -10 106 -31 165 -58 30 -14 68 -26
83 -26 16 0 38 -5 49 -11 19 -10 20 -9 13 7 -18 45 -17 51 19 68 20 9 36 19
36 22 0 3 -9 17 -20 31 -15 20 -17 29 -9 39 18 21 45 17 63 -11 18 -27 21 -55
7 -55 -5 0 -15 -17 -22 -37 -14 -47 -28 -65 -42 -56 -6 3 -7 1 -3 -6 4 -6 36
-24 70 -40 35 -16 66 -34 70 -40 9 -14 46 -15 46 -1 0 6 -7 10 -16 10 -11 0
-15 6 -11 19 2 10 0 26 -5 35 -8 14 -5 16 19 14 15 -2 29 2 31 7 1 6 -1 10 -5
11 -5 0 -27 4 -50 8 l-42 8 20 38 c18 35 19 43 8 75 -8 20 -19 41 -26 47 -10
8 -7 17 18 40 23 23 30 36 26 56 -3 18 1 31 17 43 20 18 20 18 1 19 -18 0 -18
2 5 20 31 24 44 25 61 3 11 -13 11 -17 2 -20 -18 -6 -16 -23 2 -23 10 0 15
-10 15 -27 0 -39 -13 -56 -44 -55 -39 0 -35 -39 7 -61 112 -59 152 -90 141
-109 -3 -5 4 -36 16 -70 22 -65 19 -79 -22 -83 -38 -4 -39 -5 -32 -16 3 -6 15
-9 25 -6 11 3 17 1 13 -4 -3 -5 1 -9 8 -9 7 0 26 -7 42 -15 39 -21 53 -5 21
25 -14 13 -25 28 -25 34 0 5 17 -7 38 -27 59 -57 188 -82 218 -42 9 12 13 11
22 -9 7 -17 22 -25 51 -30 28 -4 46 -14 57 -31 15 -23 14 -26 -11 -60 -15 -19
-23 -35 -17 -35 6 0 12 6 15 13 2 6 8 8 13 4 11 -10 -17 -28 -34 -22 -17 6
-45 -16 -157 -124 -50 -48 -102 -95 -117 -105 -66 -43 -209 -59 -276 -30 -20
9 -58 17 -84 19 -26 1 -71 10 -100 18 -29 9 -87 23 -128 32 -41 10 -87 24
-102 31 -15 8 -42 14 -61 14 -44 0 -115 25 -142 50 -13 12 -35 19 -65 19 -25
0 -83 14 -130 31 -47 16 -86 30 -87 30 -2 0 -3 -8 -3 -19 0 -10 -8 -25 -17
-32 -15 -12 -16 -12 -8 1 7 12 5 12 -11 -1 -10 -9 -26 -16 -36 -16 -21 0 -32
51 -17 79 13 23 18 19 -55 52 -79 37 -147 60 -124 43 9 -7 20 -26 24 -43 l8
-29 7 25 c6 24 7 23 26 -20 24 -53 36 -110 24 -110 -5 0 -15 -16 -21 -35 -13
-38 -29 -43 -77 -23 -15 6 -35 10 -43 9 -9 -2 -5 8 12 25 l27 27 -30 28 c-35
33 -36 54 -5 118 l23 49 -65 33 c-35 19 -72 44 -81 55 -10 13 -38 26 -70 33
-126 27 -229 104 -216 162 8 34 11 35 -130 -8 -44 -13 -93 -28 -110 -33 -16
-5 -68 -20 -113 -34 l-84 -25 -60 30 c-33 17 -62 28 -65 25 -3 -3 8 -24 24
-47 27 -42 29 -43 78 -41 31 2 57 -2 70 -11 17 -13 18 -19 7 -53 -11 -37 -10
-42 20 -84 17 -25 47 -65 67 -89 34 -43 36 -44 41 -20 6 22 7 21 19 -16 8 -22
20 -47 28 -56 8 -9 22 -32 31 -50 58 -112 122 -216 171 -281 56 -71 58 -73 97
-69 21 1 41 7 44 11 3 4 22 15 43 24 38 15 39 17 32 56 -9 54 15 54 40 0 11
-24 27 -42 39 -45 138 -29 152 -28 234 6 29 13 42 24 42 38 0 11 5 23 10 26 6
4 8 11 4 16 -3 5 -3 22 1 37 5 23 10 27 37 26 18 0 34 -6 35 -11 2 -6 12 -9
22 -6 12 3 28 -10 52 -42 19 -26 44 -56 57 -68 44 -41 19 -102 -53 -128 -27
-10 -35 -19 -35 -37 0 -25 1 -25 71 -18 39 3 83 13 99 21 36 19 79 19 86 2 6
-17 -11 -64 -32 -85 -15 -14 -15 -17 1 -28 20 -15 85 -12 128 5 19 7 27 18 27
35 0 14 4 27 9 30 4 3 2 38 -5 78 -7 40 -13 89 -13 108 0 28 7 15 34 -64 32
-93 33 -100 19 -128 -27 -51 -16 -72 41 -80 42 -6 57 -4 95 15 l45 23 2 85 c3
109 7 132 23 137 21 7 40 -28 40 -74 l0 -42 53 -5 c28 -3 80 -11 114 -18 55
-11 66 -11 105 6 50 21 85 51 74 62 -4 4 -11 1 -15 -6 -10 -16 -81 -7 -81 10
0 6 14 7 35 3 30 -5 35 -3 35 12 0 16 2 17 10 4 8 -12 10 -12 11 5 2 39 -3 80
-12 91 -14 18 22 43 67 45 48 3 64 -5 64 -34 1 -59 6 -64 93 -71 104 -9 156
-8 176 4 11 7 -4 8 -44 5 l-60 -6 49 26 c28 14 61 25 74 25 18 0 23 4 18 17
-4 9 -1 20 5 24 9 5 6 14 -9 34 -11 14 -26 52 -33 83 -6 31 -15 65 -20 75 -8
14 -5 17 14 17 13 0 36 13 52 30 16 16 32 30 37 30 4 0 26 -17 49 -37 28 -25
56 -69 90 -139 35 -72 55 -103 70 -107 19 -5 21 -10 15 -48 -9 -56 11 -79 71
-79 23 0 43 -4 43 -9 0 -13 51 -20 90 -12 27 6 34 12 32 27 -10 76 -14 116
-15 163 -2 44 -7 57 -29 75 -73 59 -96 141 -58 204 20 32 26 79 29 203 1 52 3
57 26 63 14 4 25 12 25 19 0 7 5 18 12 25 8 8 17 6 34 -11 23 -22 31 -39 17
-35 -5 1 -25 -4 -45 -12 -36 -13 -37 -15 -44 -79 -4 -36 -10 -76 -15 -88 -5
-14 -4 -23 4 -27 9 -3 9 -5 0 -5 -7 -1 -13 -5 -13 -11 0 -5 31 7 70 26 l70 36
-7 41 c-3 23 -10 45 -16 48 -5 4 -7 19 -3 34 7 26 8 27 22 9 13 -15 15 -16 11
-2 -4 10 1 18 14 21 15 4 19 0 19 -19 0 -13 5 -24 11 -24 6 0 9 9 6 20 -7 28
18 26 38 -2 l17 -23 -7 23 c-5 16 -2 22 9 22 9 0 25 5 35 12 15 9 25 6 55 -17
37 -28 48 -25 20 6 -14 16 -12 17 31 21 l46 3 49 -100 c45 -89 48 -100 33
-107 -15 -6 -15 -7 4 -7 12 -1 24 -9 28 -21 3 -11 10 -20 15 -20 12 0 5 17
-44 115 -22 44 -39 88 -38 97 2 10 -2 27 -8 38 -9 17 -8 26 4 44 11 17 12 26
3 35 -16 16 -27 13 -27 -8 0 -30 -20 -38 -102 -45 -43 -3 -111 -9 -152 -12
l-75 -6 -17 57 c-9 33 -14 74 -11 96 3 22 1 37 -4 33 -5 -3 -9 -15 -10 -27 -1
-19 -2 -18 -14 8 -8 17 -14 40 -15 51 0 12 -7 27 -15 34 -8 7 -15 23 -15 36 0
27 -55 86 -103 110 -36 18 -74 54 -57 54 6 0 15 12 21 27 8 21 6 30 -6 42 -11
12 -15 12 -15 2 0 -7 -6 -11 -14 -8 -7 3 -23 -1 -35 -9 -19 -14 -22 -14 -27 1
-4 9 -12 14 -19 11 -19 -7 -39 10 -32 28 5 13 10 14 25 5 21 -13 52 -6 52 11
0 5 -13 10 -29 10 -31 0 -51 28 -29 42 33 21 60 20 81 -2 16 -16 18 -24 10
-27 -14 -5 -18 -33 -5 -33 44 1 31 56 -21 89 -28 17 -43 20 -83 14 -58 -7 -93
-30 -94 -59 0 -11 -9 -30 -20 -42 -27 -29 -25 -64 5 -92 22 -20 34 -50 21 -50
-19 0 -192 65 -204 76 -9 9 -22 12 -36 8 -11 -4 -26 -7 -33 -7 -7 0 -10 -4 -7
-8 9 -14 -26 -57 -56 -69 -27 -11 -30 -17 -30 -55 0 -23 -3 -57 -6 -74 -7 -32
-7 -31 -32 30 -20 52 -23 66 -13 82 8 12 9 23 3 29 -6 6 -29 -12 -62 -49 -29
-32 -49 -49 -46 -38 17 59 14 83 -18 113 -17 16 -44 32 -61 36 -28 6 -151 54
-205 80 -14 6 -30 22 -36 34 -6 12 -19 30 -28 41 -17 18 -16 19 14 26 33 7 76
-13 87 -41 7 -18 23 -18 59 1 16 8 39 15 52 15 12 0 22 5 22 10 0 6 15 19 33
30 27 17 50 20 146 20 96 0 122 -3 158 -21 24 -11 43 -25 43 -30 0 -11 99
-119 109 -119 3 0 19 28 34 63 36 79 88 112 194 122 83 9 122 -6 187 -67 37
-36 43 -39 81 -32 22 4 49 8 59 9 10 1 28 12 38 25 16 20 27 23 68 21 44 -2
50 1 62 26 17 35 61 40 66 6 4 -24 -31 -53 -63 -53 -12 0 -29 -6 -39 -13 -16
-12 -14 -14 22 -26 48 -16 78 -8 86 23 9 36 81 84 135 91 25 3 54 10 63 16 10
5 29 9 43 9 14 0 25 5 25 10 0 6 16 10 35 10 28 0 35 -4 35 -20 0 -12 -7 -20
-17 -20 -16 0 -16 -1 -1 -16 39 -39 75 25 42 73 -11 15 -35 57 -55 94 -33 60
-35 69 -22 82 14 13 12 17 -13 31 -59 31 17 19 210 -35 38 -10 72 -17 74 -14
3 3 -3 17 -14 32 -14 19 -31 28 -55 29 -19 2 -45 8 -59 13 -21 10 -17 11 28 8
l52 -4 0 38 c0 46 -10 48 -100 24 -91 -24 -197 -29 -260 -10 -30 9 -100 22
-155 30 -294 44 -525 97 -680 158 -49 19 -106 38 -126 42 l-36 7 -7 -54 c-3
-29 -7 -59 -8 -65 -1 -7 -10 -13 -21 -13 -16 0 -18 4 -12 23 17 53 16 94 -5
146 -25 64 -17 101 31 147 64 60 55 117 -23 149 -30 13 -37 20 -25 22 10 3 17
14 17 29 0 22 -3 24 -27 18 -16 -4 -32 -11 -37 -15 -6 -5 -16 -9 -24 -9 -9 0
-3 13 17 35 27 31 31 43 31 95 0 47 -3 60 -17 63 -22 6 -303 6 -303 1 0 -3 7
-16 16 -29 9 -13 12 -29 9 -36 -9 -13 -202 -108 -225 -110 -8 -1 38 -7 103
-15 104 -12 121 -12 134 1 12 12 43 21 43 13 -1 -46 -24 -125 -40 -141 -21
-18 -22 -18 -35 -1 -18 23 -19 11 -3 -16 16 -25 -3 -50 -25 -32 -11 9 -13 7
-13 -10 1 -14 -6 -24 -17 -26 -13 -3 -24 11 -45 56 -30 67 -12 59 -173 78 -49
6 -50 6 -37 -15 10 -17 10 -25 0 -41 -11 -18 -10 -21 12 -30 49 -18 45 -59 -8
-84 -54 -25 -100 -21 -122 12 -10 15 -17 30 -16 35 1 4 -4 7 -12 7 -7 0 -35
10 -62 21 l-48 22 43 38 c43 38 43 39 15 34 -16 -2 -50 -7 -76 -10 -27 -4 -48
-10 -48 -15 0 -9 -70 -34 -128 -45 -26 -5 -31 -10 -22 -20 8 -10 6 -23 -8 -52
-37 -72 -89 -100 -123 -66 -16 16 -7 54 16 67 11 6 22 14 25 17 3 3 19 14 35
23 26 15 27 16 5 10 -14 -4 -45 -17 -70 -29 -25 -12 -56 -26 -70 -30 -14 -4
-87 -36 -163 -71 l-137 -63 -45 17 c-25 9 -45 20 -45 24 0 4 -9 8 -19 8 -24 0
-131 86 -131 106 0 8 6 17 13 19 8 3 11 23 10 57 -1 49 10 85 32 100 5 4 56 5
112 2 100 -5 116 -1 91 24 -15 15 -43 15 -68 0 -17 -11 -22 -10 -30 2 -5 8 -7
17 -4 21 7 13 135 37 231 44 78 6 94 5 99 -8 7 -20 -11 -54 -38 -68 -19 -10
-24 -9 -36 10 -8 11 -23 21 -33 21 -24 0 -93 -36 -82 -43 4 -3 67 -7 138 -8
158 -5 410 24 470 52 22 11 96 39 165 63 186 67 199 73 197 96 -1 20 -8 20
-337 20 l-335 0 -200 -75 c-110 -41 -210 -75 -223 -75 -21 0 -23 3 -17 33 10
48 35 77 85 98 l45 18 -58 0 c-38 1 -56 -3 -52 -9 4 -6 -1 -22 -10 -36 l-17
-26 -32 36 c-29 33 -36 36 -84 36 l-53 0 15 -27z m26 -498 c16 -19 7 -92 -13
-112 -19 -19 -80 -10 -126 18 -26 16 -31 24 -25 42 11 35 28 40 34 9 5 -23 7
-24 13 -9 4 10 7 28 7 39 0 28 32 19 41 -12 6 -23 7 -22 8 8 1 27 5 32 25 32
13 0 29 -7 36 -15z m1281 -16 c11 -5 40 -38 65 -72 25 -34 56 -68 67 -74 12
-7 49 -12 82 -11 57 2 60 1 60 -23 0 -22 -4 -24 -57 -27 -62 -3 -109 14 -131
48 -6 11 -17 20 -24 20 -6 0 -21 16 -33 35 -11 19 -35 46 -52 60 -25 21 -28
28 -18 40 15 18 16 18 41 4z m-648 -19 c41 -16 47 -29 17 -37 -11 -3 -18 -9
-15 -13 3 -5 0 -12 -6 -16 -6 -3 -14 -2 -18 3 -3 6 -55 13 -116 16 -116 6
-205 22 -205 38 0 5 48 9 108 10 59 0 125 4 147 8 22 5 42 8 45 7 3 0 22 -8
43 -16z m287 -123 c34 -43 75 -58 163 -62 67 -4 88 -9 126 -32 54 -34 111
-120 111 -170 0 -79 -68 -147 -179 -180 -144 -41 -444 43 -540 152 -17 20 -31
42 -31 50 0 8 -6 15 -14 15 -12 0 -46 40 -46 55 0 13 40 3 49 -12 9 -15 10
-15 11 -3 0 9 16 40 35 70 21 33 35 68 35 88 0 30 2 32 38 32 20 1 51 9 69 18
24 13 47 16 92 12 50 -4 63 -9 81 -33z m-881 -18 c32 2 49 -3 66 -19 21 -20
231 -79 282 -80 26 0 39 -16 19 -23 -7 -3 -50 -9 -94 -12 -62 -6 -79 -11 -75
-21 12 -32 -7 -61 -59 -89 -29 -15 -66 -37 -81 -48 -28 -19 -31 -19 -64 -3
-19 9 -33 22 -30 29 2 6 40 27 84 46 64 26 82 38 86 56 3 18 -1 25 -19 29 -12
3 -48 27 -81 53 -52 42 -55 43 -24 10 40 -43 37 -54 -11 -34 -37 15 -98 85
-98 111 0 13 4 14 28 4 15 -6 47 -10 71 -9z m2181 -152 c14 -8 23 -20 21 -28
-3 -8 -4 -39 -3 -69 2 -75 -20 -110 -95 -146 -55 -28 -65 -29 -198 -29 -101
-1 -156 -5 -200 -18 -64 -18 -157 -22 -219 -8 -29 7 -63 4 -142 -14 -57 -13
-148 -27 -203 -30 -79 -6 -104 -11 -117 -26 -35 -39 -169 -62 -230 -39 -39 15
-24 21 29 11 62 -11 142 3 188 33 29 20 59 27 136 36 54 5 137 19 186 30 71
16 109 18 200 13 91 -5 123 -2 172 12 44 13 97 18 195 19 111 1 141 4 170 20
80 42 116 105 90 157 -6 13 -28 39 -48 56 l-37 33 40 0 c22 0 51 -6 65 -13z
m-1144 -512 c45 -19 69 -71 53 -112 -28 -69 -32 -73 -64 -73 -45 0 -102 26
-110 50 -3 11 -13 20 -21 20 -10 0 -12 5 -7 13 4 6 6 22 4 35 -3 28 15 51 54
68 39 17 49 17 91 -1z m1197 -77 c9 -5 17 -13 17 -17 0 -5 11 -12 24 -15 28
-7 106 -91 106 -115 0 -9 -4 -22 -8 -29 -12 -18 -120 40 -188 101 -47 43 -52
50 -39 64 8 8 15 19 15 24 0 10 43 2 73 -13z m-112 -307 c11 -18 27 -31 38
-31 26 0 33 -13 34 -67 0 -31 6 -52 19 -65 10 -10 18 -26 18 -36 0 -10 7 -28
16 -40 17 -24 13 -27 -16 -12 -13 7 -21 6 -26 -2 -4 -7 -3 -10 1 -5 13 11 45
-23 45 -47 0 -12 9 -55 20 -95 12 -41 20 -92 18 -113 l-3 -40 -85 96 c-92 102
-197 266 -179 277 7 4 1 22 -16 49 -15 24 -34 58 -41 77 -13 30 -13 34 6 45
11 7 20 18 20 25 0 17 19 22 68 19 37 -3 47 -8 63 -35z m-2188 -145 c12 -8 55
-22 96 -32 45 -10 94 -31 124 -51 27 -18 60 -36 73 -39 13 -3 24 -12 24 -20 0
-43 -187 -157 -310 -189 -163 -42 -330 29 -330 140 0 44 27 119 51 141 29 26
147 63 202 64 26 0 58 -6 70 -14z m2440 -58 c3 -18 6 -66 7 -107 0 -40 2 -78
3 -84 1 -6 -5 -12 -14 -14 -11 -3 -22 7 -30 26 -11 25 -15 28 -20 13 -5 -12
-9 -5 -13 23 -4 22 -11 57 -17 79 -10 36 -9 40 23 67 43 37 55 36 61 -3z
m-1241 -595 l-4 -102 -46 -4 -47 -3 53 -2 c73 -3 66 -22 -9 -22 l-62 0 6 40
c3 27 1 43 -8 48 -7 4 -15 29 -19 55 -7 46 -6 48 13 42 27 -8 84 10 106 35 10
11 19 19 20 18 0 -2 -1 -49 -3 -105z"/>
<path d="M3533 4129 c22 -13 22 -27 0 -51 -17 -19 -16 -20 7 -38 29 -22 48
-15 25 10 -19 20 -10 50 15 50 28 0 43 -25 30 -50 -13 -24 1 -50 26 -50 17 0
17 5 2 30 -18 28 2 46 32 30 18 -10 21 -18 16 -42 -4 -18 0 -41 11 -61 l16
-32 10 23 c8 17 7 29 -1 43 -16 25 -15 29 7 29 20 0 45 -23 35 -33 -4 -3 -3
-22 0 -41 6 -32 9 -35 26 -23 21 12 27 37 10 37 -5 0 -10 7 -10 15 0 18 -1 18
39 4 29 -10 31 -14 31 -57 0 -44 0 -45 20 -27 15 14 17 22 9 37 -6 11 -9 21
-7 23 9 9 118 -39 118 -51 0 -17 -22 -18 -37 -3 -8 8 -13 8 -17 0 -21 -34 53
-44 75 -10 20 29 49 16 49 -22 0 -35 28 -40 48 -9 15 25 32 18 25 -10 -7 -27
23 -27 37 0 14 27 46 26 54 -2 9 -35 7 -41 -9 -34 -9 3 -15 0 -15 -9 0 -8 4
-15 8 -15 16 0 53 42 48 55 -6 18 15 25 76 25 44 0 49 -2 38 -15 -7 -9 -19
-14 -26 -11 -21 8 -27 -12 -10 -35 14 -21 14 -21 33 -1 10 11 26 32 36 46 19
28 77 38 77 13 0 -19 -21 -37 -42 -37 -22 0 -24 -26 -3 -34 15 -6 55 45 55 70
0 16 26 25 46 17 9 -3 44 -7 78 -7 51 -1 61 -4 64 -19 5 -27 -35 -66 -60 -59
-16 4 -19 1 -16 -14 2 -13 12 -19 28 -19 19 0 30 10 47 44 12 24 24 48 25 53
2 5 16 6 31 3 44 -11 32 -75 -15 -75 -19 0 -25 -25 -8 -35 17 -10 58 25 65 56
7 32 25 38 45 14 17 -20 5 -45 -21 -45 -12 0 -19 -5 -16 -12 6 -21 41 -15 52
10 11 25 38 26 43 1 2 -11 -6 -19 -21 -23 -20 -5 -23 -11 -19 -32 3 -18 8 -22
15 -15 16 16 47 13 47 -3 0 -8 3 -21 6 -30 4 -11 -2 -19 -21 -26 -14 -5 -23
-15 -20 -20 4 -6 1 -17 -5 -25 -15 -18 -50 -20 -50 -3 0 6 -11 1 -25 -12 -15
-14 -25 -18 -25 -11 0 8 -6 11 -16 7 -14 -5 -15 -4 -4 9 15 19 1 19 -23 1 -12
-10 -14 -15 -6 -18 7 -2 9 -10 5 -16 -11 -19 -26 -14 -26 9 0 29 -28 55 -43
40 -8 -8 -5 -17 11 -34 22 -23 20 -37 -5 -37 -7 0 -13 11 -13 23 0 28 -34 72
-49 63 -13 -8 -3 -34 21 -58 10 -10 16 -23 13 -28 -7 -11 -166 -12 -235 -2
-38 6 -45 11 -48 32 -6 56 -13 70 -32 70 -23 0 -26 -13 -6 -29 20 -17 27 -51
11 -51 -30 0 -65 20 -65 38 0 10 -9 27 -20 37 -19 18 -22 18 -37 2 -16 -16
-16 -17 4 -17 11 0 23 -7 27 -15 3 -10 -1 -15 -13 -15 -33 0 -51 11 -51 33 0
11 -7 29 -17 39 -9 10 -11 18 -5 18 6 0 14 -4 17 -10 3 -5 10 -10 15 -10 6 0
2 9 -7 20 -12 14 -20 16 -30 9 -7 -6 -21 -8 -30 -5 -15 5 -15 4 1 -9 11 -8 17
-18 13 -22 -4 -3 -15 1 -25 10 -23 21 -31 21 -55 0 -18 -17 -20 -17 -42 12
-23 28 -24 29 -44 11 -17 -16 -23 -17 -36 -6 -9 8 -12 16 -6 19 5 3 7 18 4 33
l-5 28 -38 -30 c-21 -17 -42 -30 -46 -30 -5 0 -15 14 -22 30 -16 35 -25 37
-52 10 -25 -25 -39 -19 -32 15 3 20 0 25 -16 25 -11 0 -27 -7 -36 -15 -16 -16
-56 -21 -56 -6 0 5 10 11 22 14 l22 6 -27 29 c-15 15 -27 33 -27 39 0 12 -38
6 -58 -10 -7 -5 -16 -6 -20 -2 -4 4 -1 10 6 12 6 3 10 9 6 14 -3 5 -12 2 -21
-6 -21 -22 -48 -15 -49 13 -2 30 -9 36 -29 25 -14 -8 -14 -12 6 -37 26 -33 20
-50 -40 -120 -23 -26 -41 -53 -41 -60 0 -12 91 -46 124 -46 10 0 51 -14 92
-31 80 -33 106 -36 49 -4 -50 26 -43 37 13 19 26 -8 90 -22 142 -30 113 -18
341 -73 355 -85 5 -5 -7 -9 -30 -9 -22 0 -46 -4 -54 -9 -15 -10 63 -25 204
-40 50 -5 107 -17 127 -25 21 -9 59 -16 85 -15 l48 1 -40 12 c-42 14 -37 20
20 29 104 17 214 43 306 73 87 28 112 41 144 74 38 39 39 42 40 115 0 41 1 75
2 75 2 0 10 -16 18 -36 21 -52 19 -120 -5 -159 -21 -34 -50 -53 -50 -33 0 7
-17 -4 -37 -24 -37 -36 -92 -57 -187 -73 -21 -3 -36 -8 -33 -11 2 -2 42 3 88
12 97 19 165 52 220 107 33 33 39 46 39 81 0 44 -18 104 -50 165 -10 21 -17
47 -14 58 3 12 -2 35 -10 52 -20 37 -30 42 -14 6 16 -36 5 -40 -39 -13 -55 35
-118 58 -158 58 -18 0 -46 5 -61 10 -17 7 -31 7 -37 1 -5 -5 6 -11 30 -15 93
-16 45 -21 -185 -18 -262 2 -326 7 -301 23 8 5 109 9 224 10 187 2 200 3 116
10 -141 13 -142 26 -2 36 50 3 94 10 97 14 2 5 -18 11 -46 15 -33 4 -50 11
-50 20 0 13 12 20 90 52 23 10 22 11 -15 11 -23 1 -47 -5 -54 -11 -11 -10 -14
-10 -18 0 -9 23 -30 12 -57 -28 -14 -22 -38 -46 -53 -53 -64 -32 -276 -51
-374 -33 -28 5 -26 3 11 -11 63 -23 33 -28 -54 -9 -79 18 -190 67 -261 116
-24 16 -56 30 -71 30 -23 0 -17 -6 42 -46 130 -88 209 -116 449 -158 67 -12
146 -16 310 -14 266 2 316 -8 396 -80 57 -51 94 -114 81 -138 -6 -12 -11 -6
-20 23 -18 56 -39 76 -127 117 -105 50 -152 55 -390 49 -255 -8 -293 -6 -323
13 -13 9 -26 13 -29 10 -5 -4 -77 19 -138 44 -11 4 -49 18 -85 30 -36 13 -77
31 -92 41 -14 11 -32 19 -40 19 -8 0 -37 16 -64 35 -27 19 -57 35 -66 35 -9 0
-20 5 -23 10 -3 6 -18 10 -33 10 -23 -1 -25 -2 -9 -11z m107 -406 c25 -8 68
-18 95 -23 28 -5 77 -16 110 -24 33 -9 84 -21 114 -29 30 -7 57 -19 59 -26 3
-8 8 -9 15 -2 8 6 24 4 47 -6 19 -9 45 -17 58 -19 12 -1 36 -10 54 -18 17 -9
41 -16 52 -16 12 0 32 -6 46 -13 39 -21 230 -41 318 -34 74 6 185 37 250 71
17 9 47 32 66 52 35 36 50 35 36 -1 -16 -41 -67 -77 -136 -95 -38 -11 -87 -26
-110 -34 -135 -49 -379 -41 -574 19 -73 22 -177 45 -317 69 -82 14 -140 29
-151 39 -10 9 -33 16 -53 15 -39 -1 -139 29 -139 42 0 5 -9 10 -20 12 -28 4
-28 20 1 36 27 14 108 8 179 -15z"/>
<path d="M5239 4116 c-20 -14 -63 -34 -95 -45 -54 -18 -59 -22 -62 -51 -4 -41
10 -57 60 -65 23 -4 50 -17 62 -29 12 -12 33 -29 49 -39 15 -10 27 -24 27 -33
0 -8 8 -17 18 -21 9 -3 33 -21 53 -40 36 -35 37 -35 78 -20 23 7 43 18 44 23
1 5 -26 27 -59 49 -123 80 -237 185 -221 202 3 3 40 -25 83 -61 168 -143 370
-257 609 -344 138 -50 247 -83 253 -77 5 5 3 6 -91 38 -74 25 -89 40 -43 45
23 3 28 0 23 -12 -4 -9 -2 -16 3 -16 6 0 10 6 10 14 0 18 38 25 68 12 33 -14
39 0 12 29 -19 20 -20 25 -8 25 9 0 19 -6 21 -12 10 -24 7 126 -4 240 -8 83
-8 117 0 125 6 6 11 28 11 49 l0 38 -127 -1 c-94 -1 -120 -3 -97 -10 l31 -9 7
-107 c4 -60 16 -152 26 -206 14 -79 15 -100 5 -104 -22 -8 -314 140 -404 205
-94 67 -209 176 -222 210 -12 31 -72 30 -120 -2z"/>
<path d="M5524 3752 c18 -21 18 -22 -2 -61 l-21 -40 23 -13 c94 -52 214 -111
254 -124 26 -9 51 -20 56 -24 12 -12 -45 -100 -65 -100 -9 0 -42 9 -75 21 -65
23 -204 50 -216 43 -5 -3 -36 -8 -71 -10 -102 -8 -158 -23 -224 -60 -53 -30
-63 -39 -69 -69 -3 -19 -3 -50 0 -67 7 -35 95 -144 96 -118 0 8 17 29 38 45
35 28 42 30 124 30 49 0 88 0 88 1 0 1 -5 15 -11 33 -14 39 -1 57 56 80 33 14
82 18 278 20 l237 2 28 -28 29 -28 31 18 32 19 0 109 c0 79 -4 111 -12 114 -7
2 -58 16 -113 31 -55 15 -165 54 -245 86 -80 33 -163 66 -185 74 -22 8 -49 19
-60 25 -20 12 -20 11 -1 -9z"/>
<path d="M370 3723 c-44 -23 -53 -63 -18 -87 29 -21 111 -21 143 0 78 51 -38
131 -125 87z"/>
<path d="M100 3630 c-34 -5 -35 -6 -38 -59 -3 -50 -1 -55 33 -87 43 -39 43
-61 -2 -89 -25 -16 -32 -27 -33 -52 0 -18 2 -33 5 -33 3 0 37 20 77 45 40 25
79 45 86 45 36 0 141 -82 154 -120 28 -81 -143 -130 -260 -75 -30 14 -56 25
-58 25 -2 0 -4 -11 -4 -24 0 -25 21 -35 70 -36 54 -1 52 -16 -5 -54 -78 -52
-74 -67 39 -134 48 -30 105 -56 125 -59 20 -4 41 -13 47 -22 7 -9 63 -41 125
-71 63 -29 161 -76 217 -103 98 -47 109 -50 202 -55 89 -4 103 -2 136 18 30
17 47 20 81 15 24 -3 43 -10 43 -14 0 -5 -36 -23 -80 -42 -44 -18 -80 -36 -80
-40 0 -4 20 -10 45 -13 24 -4 47 -11 49 -15 3 -4 -53 -38 -124 -75 -72 -37
-130 -69 -130 -72 0 -2 30 -19 66 -37 l66 -33 267 81 c147 45 293 92 324 104
68 25 73 26 57 6 -8 -9 -10 -28 -6 -50 l7 -35 -47 0 c-53 0 -114 -37 -114 -70
0 -48 131 -110 231 -110 42 0 45 -2 44 -27 0 -26 9 -33 105 -80 58 -29 114
-53 124 -53 11 0 27 -6 35 -14 21 -18 81 -37 93 -30 5 3 16 -2 23 -13 7 -11
40 -28 72 -38 32 -10 77 -27 100 -37 33 -15 54 -18 102 -12 58 6 61 6 61 -15
0 -28 52 -51 115 -51 28 0 52 -6 61 -15 24 -23 93 -39 170 -40 53 0 70 -3 67
-12 -12 -30 75 -39 164 -17 25 7 27 6 15 -9 -8 -9 -11 -21 -8 -26 12 -18 96
-24 158 -11 59 13 66 18 210 152 81 77 148 143 148 148 0 22 -116 24 -187 4
-18 -5 -21 -3 -16 14 4 17 -1 22 -31 27 -20 4 -51 4 -70 1 -23 -5 -37 -2 -46
9 -30 36 -167 56 -252 36 -33 -8 -37 -7 -42 15 -4 13 -20 31 -38 40 -54 28
-163 54 -201 47 -29 -4 -38 -2 -43 12 -10 25 -110 66 -176 72 -42 4 -57 10
-61 23 -3 10 -40 31 -98 55 -83 33 -103 37 -171 36 l-78 -1 0 28 c0 34 -19 54
-80 81 -56 25 -179 28 -264 6 -33 -9 -74 -13 -95 -9 -24 4 -32 2 -22 -4 9 -7
-17 -20 -95 -45 -157 -52 -434 -137 -442 -136 -4 0 62 33 146 74 83 40 152 76
152 78 0 3 -34 13 -75 23 -41 10 -72 21 -68 24 5 3 51 23 103 43 128 50 132
53 84 66 -21 6 -47 11 -56 11 -10 0 -18 3 -18 8 0 9 226 110 260 115 60 10
-75 5 -170 -6 -93 -11 -114 -18 -183 -56 -86 -47 -111 -50 -48 -5 22 16 48 44
58 62 16 29 16 35 3 60 -15 26 -109 83 -160 96 -14 3 7 -9 45 -29 70 -34 105
-65 105 -91 0 -24 -64 -87 -140 -137 -72 -47 -77 -49 -135 -45 -61 4 -215 62
-221 83 -3 10 278 207 304 213 6 2 12 8 12 13 0 6 -5 7 -12 3 -6 -4 -17 1 -24
11 -14 19 -170 95 -194 94 -8 0 1 -6 20 -13 34 -13 140 -64 149 -72 8 -8 -33
-44 -49 -44 -10 0 -51 16 -93 35 -42 19 -81 35 -87 35 -6 0 -27 -11 -47 -24
l-35 -25 72 -36 c60 -30 70 -38 60 -51 -18 -21 -48 -17 -119 16 -56 27 -68 29
-93 19 -15 -6 -25 -15 -22 -20 3 -5 42 -28 87 -50 l81 -41 -25 -19 c-13 -10
-33 -18 -44 -18 -31 0 -200 92 -203 111 -4 21 219 172 285 192 45 14 46 15 16
15 -24 1 -31 5 -27 15 4 11 -20 28 -85 60 -50 26 -94 46 -98 45 -5 0 32 -21
81 -46 l90 -45 -25 -19 c-34 -26 -49 -24 -137 20 l-77 39 -38 -19 c-20 -11
-37 -24 -37 -29 0 -6 29 -25 65 -42 36 -18 65 -36 65 -40 0 -5 -12 -14 -26
-20 -23 -11 -34 -8 -98 26 -62 33 -75 37 -94 27 -12 -6 -22 -16 -22 -21 0 -5
34 -28 75 -51 42 -23 74 -46 72 -53 -2 -6 -15 -17 -29 -25 -24 -14 -31 -12
-124 40 -55 31 -100 63 -102 71 -2 10 35 40 105 85 136 89 146 93 202 103 l46
8 -56 1 c-42 1 -58 5 -63 17 -13 35 -6 42 51 49 78 10 79 10 80 58 1 36 -4 49
-35 82 -21 22 -48 48 -62 57 -20 14 -21 17 -7 17 9 1 17 5 17 10 0 9 -47 5
-99 -9 -23 -6 -22 -8 22 -33 26 -16 47 -31 47 -35 0 -5 -16 -23 -35 -42 -27
-26 -38 -31 -47 -22 -9 9 -5 19 18 44 l29 31 -36 -26 c-20 -15 -41 -27 -47
-27 -21 0 -13 27 13 44 14 9 25 22 25 28 0 7 -16 -3 -35 -22 -27 -26 -38 -31
-47 -22 -9 9 -4 20 22 47 19 19 29 35 24 35 -6 0 -23 -13 -39 -30 -35 -36 -42
-37 -79 -7 l-29 24 36 29 c21 16 37 33 37 37 0 5 -14 -3 -31 -17 -33 -28 -44
-31 -54 -16 -4 6 -15 8 -26 5 -38 -12 -41 7 -8 41 18 19 31 35 28 37 -2 2 -20
0 -39 -3z m1850 -1061 c62 -35 64 -72 5 -109 -32 -20 -35 -20 -69 -4 -32 16
-34 19 -21 37 27 38 -26 63 -76 37 -27 -15 -24 -29 21 -89 22 -29 40 -64 40
-77 0 -66 -168 -74 -261 -11 -45 30 -45 63 0 94 31 21 35 22 69 7 47 -19 49
-22 27 -38 -10 -7 -15 -18 -11 -24 10 -17 61 -15 76 3 11 13 8 23 -18 61 -35
48 -41 84 -17 104 53 44 165 48 235 9z m313 -135 l88 -37 -22 -24 c-29 -30
-42 -29 -127 7 -39 17 -80 30 -92 30 -20 0 -80 -37 -80 -50 0 -4 32 -20 70
-35 39 -15 70 -31 70 -35 0 -12 -24 -30 -43 -30 -10 0 -50 13 -88 30 -68 29
-71 29 -94 12 -14 -9 -25 -20 -25 -23 0 -3 36 -20 80 -38 44 -19 83 -38 87
-44 7 -12 -33 -47 -54 -47 -23 0 -223 98 -223 109 0 10 128 113 219 174 72 50
116 50 234 1z m263 -105 c27 -13 50 -32 52 -41 2 -11 -43 -55 -135 -132 -146
-122 -139 -119 -212 -89 l-36 15 48 43 c39 34 45 44 32 49 -29 11 -41 7 -86
-29 -48 -38 -66 -42 -93 -22 -15 11 -7 20 76 87 117 95 164 129 191 141 35 14
111 4 163 -22z m241 -75 c115 -33 121 -76 22 -149 -36 -27 -77 -48 -99 -51
-37 -6 -39 -8 -45 -54 -8 -56 -17 -62 -65 -45 -34 12 -35 13 -32 63 3 69 -20
78 -82 28 -44 -37 -69 -43 -96 -26 -18 11 -31 -2 140 142 69 57 132 107 140
111 17 7 41 3 117 -19z m341 -89 c63 -19 67 -37 18 -84 -32 -31 -38 -33 -80
-27 -25 4 -46 10 -46 13 0 4 10 17 22 30 16 18 19 26 10 35 -18 18 -53 -3
-154 -89 -81 -69 -88 -78 -70 -86 15 -7 30 -4 55 12 29 18 39 19 68 10 19 -6
40 -13 48 -15 24 -8 -28 -53 -73 -65 -30 -8 -58 -8 -108 1 -78 14 -103 28 -94
56 7 23 169 168 224 201 44 27 106 30 180 8z m188 -46 c4 -7 -19 -35 -57 -69
-60 -54 -62 -57 -38 -63 53 -14 71 -7 136 53 58 55 68 60 108 60 24 0 46 -4
49 -9 5 -8 -247 -255 -278 -273 -12 -7 -83 5 -94 16 -3 3 14 22 37 42 23 20
40 38 37 41 -2 3 -21 9 -42 13 -35 8 -41 6 -90 -37 -46 -39 -57 -44 -84 -38
-17 4 -30 11 -28 16 2 5 66 65 143 134 104 93 147 124 167 125 15 0 30 -5 34
-11z"/>
<path d="M960 3426 c-76 -73 -181 -136 -226 -136 -20 0 -23 4 -20 34 3 29 1
33 -18 31 -11 -1 -29 -3 -39 -4 -10 0 -22 -12 -27 -25 -5 -13 -19 -31 -31 -39
-21 -15 -19 -17 62 -58 46 -23 95 -50 108 -60 13 -11 31 -19 40 -19 10 0 55
-18 101 -41 l84 -40 86 21 c111 28 203 61 287 104 l68 35 -45 1 c-50 1 -113
20 -138 43 -9 8 -33 18 -52 22 -54 11 -110 51 -116 85 l-6 29 -50 -26 c-27
-14 -52 -22 -56 -18 -10 10 26 34 71 47 38 11 61 49 41 68 -30 27 -50 18 -124
-54z"/>
<path d="M5715 3250 c10 -11 26 -20 37 -20 11 0 18 -7 18 -21 0 -13 10 -23 30
-30 37 -13 40 -39 5 -39 -18 0 -25 -5 -25 -20 0 -22 16 -25 55 -10 37 14 30
50 -12 69 -37 16 -43 31 -13 31 11 0 20 7 20 15 0 9 9 15 24 15 23 0 25 -5 31
-65 6 -51 11 -65 24 -65 39 1 43 15 17 70 -26 56 -26 70 2 70 9 0 24 5 32 10
10 7 -31 10 -124 10 -138 0 -139 0 -121 -20z"/>
<path d="M5340 3133 c-62 -23 -64 -67 -5 -140 25 -30 45 -61 45 -68 0 -7 -10
-19 -22 -28 l-23 -15 33 -64 c18 -34 32 -67 32 -71 0 -4 -16 4 -35 19 -19 14
-35 21 -35 15 0 -6 5 -11 10 -11 21 0 9 -30 -19 -44 -16 -9 -31 -22 -34 -31
-8 -21 -17 -19 -51 11 -20 18 -26 28 -18 36 15 15 4 37 -41 85 l-39 41 32 -1
c19 -1 35 3 37 11 3 8 -7 12 -31 12 -25 0 -38 6 -46 20 -14 27 17 42 78 38 38
-2 49 -8 59 -28 12 -24 11 -25 -17 -28 -17 -2 -30 -8 -30 -14 0 -6 15 -8 35
-6 23 3 35 0 35 -8 0 -7 5 -16 11 -20 15 -9 2 65 -14 84 -16 20 -58 39 -102
46 -37 6 -42 4 -62 -25 -21 -30 -21 -34 -6 -63 9 -17 33 -50 55 -74 21 -23 36
-47 33 -53 -4 -6 -11 -6 -18 -1 -7 5 -37 17 -67 27 -30 10 -60 22 -67 27 -8 7
-10 3 -6 -12 3 -12 11 -23 17 -24 86 -22 129 -43 172 -87 44 -45 49 -47 65
-33 11 10 31 15 55 12 52 -4 54 17 2 28 l-43 10 33 17 c31 17 34 17 60 -1 15
-11 41 -18 60 -16 25 1 40 -5 58 -25 23 -25 24 -25 24 -4 0 12 22 48 49 80 34
41 51 71 56 101 7 41 6 43 -29 57 -19 8 -44 15 -55 15 -29 0 -59 45 -67 98 -8
56 -34 88 -83 102 -39 11 -58 11 -81 3z"/>
<path d="M1365 3075 c-38 -19 -100 -42 -137 -52 -38 -9 -68 -20 -68 -24 0 -3
10 -10 23 -16 37 -17 88 -64 98 -91 9 -24 11 -25 92 -18 45 4 105 9 133 13
l51 5 -34 51 c-28 41 -34 59 -32 94 5 74 -29 84 -126 38z"/>
<path d="M897 2857 c-79 -55 -86 -63 -71 -74 10 -7 41 -13 69 -13 40 0 61 6
96 30 25 16 51 41 59 55 12 22 11 27 -5 45 -28 30 -52 23 -148 -43z"/>
<path d="M4395 2911 c-39 -16 -57 -48 -62 -110 -6 -59 -5 -60 28 -80 19 -12
45 -21 59 -21 l25 -1 -22 -18 c-13 -11 -23 -29 -23 -41 0 -15 -5 -20 -17 -18
-10 2 -17 10 -15 16 3 18 -6 14 -18 -7 -7 -14 -6 -29 5 -55 8 -19 15 -46 16
-58 0 -16 19 -36 62 -68 62 -46 147 -156 147 -191 0 -10 8 -22 17 -27 22 -13
20 -103 -3 -115 -24 -13 -17 -37 11 -37 18 0 31 -9 43 -31 14 -25 21 -29 46
-25 16 4 39 6 53 6 21 0 23 3 17 23 l-6 22 23 -21 c13 -12 44 -24 69 -28 24
-4 64 -16 89 -27 54 -24 63 -18 28 19 -29 30 -81 139 -69 145 4 2 19 7 34 11
15 3 32 16 39 27 9 18 7 25 -15 48 -36 38 -33 66 12 106 37 35 57 40 57 14 0
-8 -12 -15 -27 -17 -30 -4 -35 -11 -18 -28 6 -6 19 -33 29 -60 10 -27 38 -98
60 -159 36 -94 92 -275 108 -352 3 -14 1 -23 -6 -23 -6 0 -15 10 -20 23 -5 12
-15 38 -23 57 l-14 34 0 -67 c0 -64 1 -67 24 -67 13 0 33 5 45 12 12 6 46 14
77 17 l55 6 -2 78 c-2 58 1 77 10 77 26 0 46 -26 73 -93 15 -38 36 -74 48 -81
11 -8 48 -14 80 -14 32 -1 74 -6 93 -12 23 -8 43 -8 66 -2 66 21 107 22 178 7
40 -8 75 -12 78 -10 3 3 5 26 5 50 -1 32 -10 59 -32 95 -18 28 -35 63 -38 78
-11 51 -15 62 -23 62 -5 0 -31 -22 -60 -50 -60 -58 -84 -64 -214 -57 -114 6
-230 42 -315 96 -58 38 -63 45 -111 146 -34 72 -57 138 -71 207 -27 128 -48
190 -95 269 -35 59 -44 96 -34 140 3 10 -16 32 -48 57 -46 37 -53 39 -65 25
-7 -9 -37 -27 -65 -39 -44 -20 -53 -28 -53 -49 0 -17 -7 -29 -22 -35 -20 -8
-18 -9 14 -9 28 -1 42 -8 62 -32 14 -17 26 -41 26 -54 0 -16 18 -41 54 -75 60
-56 69 -83 57 -158 -5 -36 -4 -60 6 -83 7 -18 11 -39 9 -46 -3 -7 -1 -13 4
-13 6 0 10 -5 10 -11 0 -6 -14 -1 -30 11 -17 12 -38 20 -47 18 -16 -3 -73 49
-73 66 0 4 -14 25 -32 47 -25 31 -32 49 -32 87 -1 32 3 47 12 47 7 0 40 -22
72 -50 58 -48 60 -52 60 -99 0 -32 -6 -56 -17 -68 -20 -22 -11 -24 11 -2 21
20 21 96 0 157 -15 45 -41 77 -101 125 l-28 22 30 -5 c27 -6 28 -5 11 6 -11 7
-39 13 -63 13 -50 1 -60 19 -49 81 6 32 4 36 -20 45 -26 10 -26 11 -9 30 16
18 16 21 -6 64 -12 25 -25 46 -29 46 -3 0 -24 16 -46 35 -34 30 -46 35 -89 34
-27 0 -59 -4 -70 -8z"/>
<path d="M6035 2894 c-33 -7 -76 -17 -95 -21 -34 -6 -118 -58 -152 -93 -9 -9
-35 -20 -57 -24 -61 -9 -112 -60 -114 -111 -1 -22 2 -54 6 -72 8 -30 6 -33
-29 -48 -21 -8 -44 -21 -52 -28 -21 -17 -71 -16 -107 1 -17 9 -55 14 -92 14
l-62 -1 -26 51 c-44 88 -105 146 -169 162 -32 8 -76 -15 -76 -39 0 -8 22 -59
49 -113 27 -53 56 -131 65 -172 41 -181 49 -208 75 -255 15 -27 31 -62 34 -76
8 -33 76 -78 172 -115 119 -45 315 -44 315 1 0 8 16 23 35 35 35 22 47 47 60
132 4 27 13 42 32 51 24 13 29 11 87 -32 86 -65 209 -129 204 -106 -1 10 -40
38 -85 64 -78 44 -133 86 -133 102 0 9 51 21 110 25 35 2 52 -3 77 -22 18 -14
33 -21 33 -16 0 5 -11 17 -25 26 -28 19 -24 40 6 31 35 -11 20 2 -48 41 -36
22 -99 71 -140 109 -70 67 -88 95 -60 95 8 0 7 4 -3 10 -44 28 -40 -19 5 -68
37 -41 36 -52 -1 -52 -18 0 -28 11 -43 44 -23 54 -57 86 -114 107 -35 14 -44
23 -51 52 -13 52 3 97 44 125 29 20 44 23 90 20 30 -3 73 -13 95 -23 58 -27
62 -28 40 -10 -11 10 -39 26 -63 37 -43 19 -43 20 -25 40 22 24 85 58 109 58
22 0 111 -54 152 -93 l32 -31 0 30 c0 26 -9 36 -60 69 -33 21 -60 42 -60 47 0
8 16 12 83 23 23 4 37 11 37 20 0 18 -25 18 -105 -1z m-918 -224 c44 -27 87
-88 118 -171 l27 -69 30 25 c39 33 108 35 138 3 17 -19 20 -35 20 -115 0 -92
0 -93 -24 -93 -30 0 -75 50 -83 93 -6 30 -6 30 -15 7 -25 -68 76 -157 147
-130 20 7 31 8 39 0 5 -5 18 -10 28 -10 24 0 23 -13 -2 -35 -11 -10 -20 -30
-19 -44 1 -26 1 -26 9 3 11 37 100 120 113 107 7 -7 30 1 66 20 l56 31 55 -31
55 -30 -37 -15 c-47 -20 -78 -60 -78 -102 0 -18 -5 -44 -11 -57 -13 -29 -70
-63 -125 -76 l-39 -9 35 -1 c31 -1 33 -3 16 -13 -26 -15 -130 -4 -201 21 -67
24 -145 68 -145 82 0 6 5 7 11 3 6 -3 -7 20 -29 52 -44 65 -65 119 -81 209
-20 110 -39 165 -86 251 -58 108 -54 135 12 94z m621 -176 c32 -22 62 -87 62
-134 0 -38 -2 -40 -30 -40 -34 0 -66 30 -75 71 -9 40 -30 36 -54 -8 -15 -29
-31 -30 -31 -2 0 12 -7 36 -16 55 -9 19 -15 36 -13 38 40 35 121 45 157 20z"/>
<path d="M206 2836 c10 -8 17 -16 14 -18 -3 -3 -33 -23 -68 -47 -51 -34 -66
-40 -78 -30 -12 10 -14 -22 -12 -237 2 -137 7 -258 11 -269 7 -16 7 -17 -2 -5
-14 19 -12 -115 2 -144 6 -12 6 -16 -2 -12 -15 10 -13 -344 2 -363 9 -12 9
-13 0 -7 -10 5 -13 -13 -13 -78 0 -82 4 -95 26 -78 5 4 1 0 -8 -10 -25 -22
-23 -28 10 -29 24 0 24 -1 7 -8 -11 -5 -23 -7 -27 -4 -5 2 -8 -136 -8 -306 0
-171 3 -311 8 -311 4 0 24 11 44 25 34 23 68 25 68 5 0 -5 -25 -23 -55 -40
-53 -30 -76 -50 -58 -50 5 0 14 5 21 12 6 6 15 8 19 4 4 -4 -5 -17 -21 -29
-17 -14 -27 -30 -25 -41 3 -16 12 -12 59 25 75 60 108 80 115 70 3 -5 -35 -39
-85 -75 l-90 -67 0 -121 0 -121 49 44 c87 79 96 121 15 74 -26 -15 -43 -22
-39 -16 14 24 194 161 210 161 9 0 30 9 46 21 23 16 38 19 67 14 33 -5 40 -12
59 -53 l22 -47 -31 -33 c-18 -17 -37 -46 -43 -64 -10 -32 -18 -38 -74 -59 -18
-7 -48 -23 -67 -35 -38 -26 -48 -10 -14 21 29 26 25 38 -8 21 -40 -21 -132
-122 -132 -145 0 -11 -14 -36 -30 -54 -39 -45 -39 -69 1 -31 30 29 31 29 45 9
8 -11 37 -51 64 -90 114 -162 107 -155 161 -155 27 0 49 5 49 10 0 6 -22 38
-49 73 -26 34 -56 76 -64 92 -24 43 -56 79 -65 71 -4 -4 -12 -21 -18 -38 l-10
-31 -33 51 c-30 46 -31 54 -22 89 6 22 22 50 36 63 l25 23 0 -21 c0 -30 16
-28 57 8 18 17 37 30 41 30 5 0 19 -18 32 -41 14 -22 41 -61 61 -87 20 -26 58
-78 84 -117 60 -89 128 -174 138 -175 4 0 -4 16 -19 36 l-28 36 32 25 c38 29
40 45 8 92 -13 20 -44 70 -70 112 -25 42 -55 84 -66 94 -19 18 -20 17 -41 -34
-12 -28 -25 -50 -30 -49 -10 4 -79 108 -79 119 0 15 28 10 34 -7 3 -8 11 -12
16 -9 18 11 60 83 60 103 0 10 14 31 31 48 27 26 32 27 42 12 15 -20 66 -101
88 -137 36 -62 59 -93 152 -209 54 -67 96 -126 93 -130 -3 -5 -45 -29 -93 -53
l-87 -44 103 -3 c98 -3 106 -1 130 21 33 31 84 57 110 57 13 0 30 15 46 39
l24 40 -23 43 c-13 24 -31 72 -41 108 -10 36 -20 67 -21 68 -5 8 -64 -33 -64
-44 0 -7 22 -32 49 -56 75 -68 74 -76 -18 -125 l-78 -42 -35 37 c-70 73 -204
246 -226 292 -7 14 -25 43 -41 65 l-30 40 46 7 c25 4 53 13 61 22 22 21 7 63
-29 81 l-30 16 43 39 c24 22 51 42 61 45 9 4 17 10 17 14 0 4 17 22 38 39 39
30 39 30 34 6 -2 -13 -1 -24 2 -24 16 0 106 86 106 101 0 16 19 39 31 39 4 0
31 -36 60 -80 29 -44 57 -80 61 -80 14 0 9 11 -27 60 -41 56 -43 67 -13 72 16
2 33 22 56 64 29 53 38 61 62 60 26 -1 27 -3 22 -41 -2 -22 -9 -48 -13 -57
-17 -31 6 -26 31 7 14 19 35 40 48 47 20 10 22 17 17 45 -4 20 -2 33 5 33 5 0
10 -11 10 -25 0 -14 2 -25 5 -25 11 0 75 45 75 53 0 22 -25 50 -56 63 -30 12
-35 19 -32 42 2 16 12 31 26 38 30 15 72 55 72 68 0 6 9 22 19 35 l19 24 12
-24 c35 -68 105 -169 117 -169 19 0 17 4 -36 78 -26 37 -61 90 -76 117 -16 28
-38 61 -51 75 -12 14 -52 70 -88 125 -36 55 -79 118 -95 140 -16 22 -41 63
-57 90 -34 63 -68 110 -114 156 -19 20 -48 53 -63 73 -25 31 -35 36 -70 36
-22 0 -48 6 -56 14 -17 16 -173 57 -181 49 -3 -3 0 -8 6 -10 6 -2 41 -23 77
-47 37 -24 79 -47 94 -51 16 -4 23 -9 17 -12 -6 -2 -31 1 -55 7 -24 6 -61 15
-82 19 -27 6 -48 20 -70 47 -18 21 -32 43 -32 49 0 5 -12 11 -28 13 l-27 3 26
-28 c41 -44 77 -93 72 -98 -3 -3 -33 22 -68 56 -59 58 -64 61 -102 56 -27 -4
-57 2 -98 18 -53 21 -59 21 -50 6 5 -10 16 -23 24 -31 9 -7 16 -18 16 -24 -1
-6 -18 7 -38 30 -41 45 -62 47 -62 4 0 -23 7 -32 38 -47 24 -12 38 -26 40 -41
l4 -23 -41 20 c-22 12 -43 21 -46 21 -14 0 11 -58 34 -78 l26 -22 -27 6 c-24
5 -28 3 -28 -15 0 -12 6 -21 13 -21 6 0 -8 -9 -32 -21 -45 -20 -47 -20 -116 7
-18 6 -18 5 4 -19 13 -14 37 -29 53 -32 23 -6 28 -11 22 -27 -4 -13 -1 -24 7
-29 11 -7 8 -19 -14 -62 -16 -29 -27 -61 -25 -72 4 -22 -34 -45 -63 -38 -25 7
-24 21 2 25 16 2 26 17 40 63 18 59 18 61 -1 100 -11 22 -29 53 -39 69 -30 45
-19 51 61 30 11 -3 19 3 23 18 4 13 16 32 26 43 18 20 19 29 17 158 -1 66 10
74 69 53 93 -34 175 -48 199 -35 13 7 35 9 51 5 15 -4 46 -11 68 -17 38 -9
106 -21 203 -35 23 -4 42 -4 42 -1 0 3 -12 19 -27 35 -61 66 -114 142 -129
186 -9 25 -20 48 -25 51 -4 3 -1 -11 7 -32 l15 -38 -40 45 c-22 25 -40 48 -41
53 0 4 -6 7 -13 7 -8 0 -22 9 -32 20 -10 11 -21 17 -25 15 -4 -3 -13 2 -20 11
-7 8 -19 13 -26 10 -8 -3 -17 1 -21 7 -7 12 -73 47 -88 47 -3 0 -4 -4 0 -9 3
-6 -7 -6 -26 -1 -26 8 -30 7 -25 -7 5 -13 4 -14 -9 -3 -11 9 -15 9 -15 1 0 -7
-5 -9 -10 -6 -15 9 3 29 57 67 38 25 46 28 61 16 15 -12 16 -11 3 5 -13 16
-13 20 -1 27 11 7 6 20 -25 65 -22 30 -50 72 -62 93 -25 41 -27 42 -65 22 -24
-11 -30 -11 -46 3 -10 10 -22 17 -27 17 -5 0 0 -6 11 -14z m303 -1031 c23 -1
38 -9 43 -21 6 -14 7 -12 3 8 -5 27 -4 27 22 16 42 -18 73 -39 73 -49 0 -5
-11 -14 -24 -20 -13 -6 -28 -21 -34 -33 -9 -19 -10 -20 -17 -3 -7 17 -9 16
-19 -5 -19 -37 -55 -44 -110 -19 -39 17 -46 24 -37 35 9 11 6 14 -15 14 -14 0
-33 7 -42 17 -16 17 -16 17 1 12 10 -4 17 -1 17 5 0 7 12 23 27 36 21 17 34
22 53 17 14 -4 40 -8 59 -10z m-264 -121 c-105 -59 -133 -79 -122 -90 8 -9
125 -33 160 -34 15 0 47 9 69 20 48 23 48 23 48 10 0 -6 -11 -20 -25 -32 -14
-12 -25 -32 -25 -44 0 -17 9 -24 44 -33 38 -9 45 -15 48 -38 2 -22 9 -29 31
-31 22 -3 27 -7 22 -20 -4 -9 -12 -30 -17 -47 -6 -16 -15 -34 -19 -39 -16 -17
-10 -45 12 -56 13 -7 40 -9 70 -5 39 6 55 3 77 -11 15 -10 31 -17 36 -16 5 2
3 -4 -4 -13 -7 -9 -16 -12 -19 -7 -3 5 -15 0 -26 -11 -11 -11 -13 -16 -5 -12
10 5 8 1 -4 -13 -23 -26 -44 -30 -25 -4 12 14 10 14 -8 -2 -12 -10 -21 -22
-20 -27 3 -12 -67 -61 -71 -49 -2 5 -8 8 -12 5 -5 -3 -7 -12 -4 -19 9 -24 -23
-25 -46 -1 l-23 24 33 27 c30 25 31 30 26 73 -4 25 -8 66 -9 91 -2 25 -4 59
-5 75 -2 22 -22 51 -80 111 l-77 81 -85 18 c-135 28 -133 25 -44 77 97 57 176
97 189 97 6 1 -35 -24 -90 -55z m865 -239 c-27 -28 -18 -32 24 -10 27 14 31
14 62 -7 19 -13 34 -25 34 -28 0 -4 -15 -12 -32 -18 -40 -15 -109 -72 -87 -72
19 0 87 36 119 63 14 12 0 -4 -30 -36 -30 -31 -62 -60 -72 -63 -9 -3 -35 5
-57 18 -36 20 -39 25 -34 55 4 26 2 33 -11 33 -10 0 -16 -8 -16 -22 0 -20 -1
-20 -18 -5 -31 29 -88 14 -117 -29 -14 -22 -14 -22 18 -13 56 16 88 10 151
-28 l61 -38 -60 -7 c-84 -10 -211 -12 -225 -3 -6 4 -9 13 -6 20 2 7 -5 21 -17
32 l-22 18 20 -24 c19 -23 19 -24 1 -17 -16 5 -17 4 -6 -9 10 -12 10 -15 -3
-15 -18 0 -30 15 -33 44 -1 12 -5 32 -9 46 -5 22 0 28 38 47 26 13 53 19 70
16 32 -6 36 -23 7 -30 -11 -3 -20 -9 -20 -13 0 -5 -3 -15 -6 -24 -3 -9 -1 -16
5 -16 6 0 11 5 11 11 0 14 41 48 58 49 7 0 39 14 72 31 33 17 63 28 68 25 5
-3 24 6 43 19 44 31 48 31 19 0z m-162 -389 c24 -20 48 -36 54 -36 6 0 8 -7 4
-15 -4 -13 -2 -14 14 -5 16 8 18 8 14 -4 -3 -8 -17 -16 -31 -19 -27 -5 -28 -4
-93 73 l-21 25 16 -34 c16 -32 16 -34 -5 -56 -12 -13 -20 -28 -16 -33 3 -5
-13 -24 -35 -41 l-40 -33 7 27 c6 26 5 26 -16 15 -12 -6 -39 -27 -59 -46 -21
-18 -40 -32 -43 -29 -2 2 -29 -20 -58 -50 -30 -30 -60 -55 -67 -55 -13 0 -20
31 -26 115 l-3 50 71 48 c77 51 85 54 85 33 0 -8 4 -17 9 -21 13 -7 171 135
171 154 1 11 4 10 13 -5 7 -12 32 -38 55 -58z"/>
<path d="M510 2732 c1 -4 19 -19 41 -35 21 -15 47 -43 56 -62 20 -42 26 -43
41 -10 13 28 20 30 56 14 23 -11 25 -16 19 -55 -5 -37 -2 -50 22 -84 15 -22
31 -40 35 -40 16 0 18 15 5 41 -22 41 -19 45 21 41 24 -3 34 -1 30 6 -3 6 -2
13 4 17 5 3 10 0 10 -9 0 -8 3 -22 6 -30 4 -11 2 -15 -7 -13 -8 2 -11 2 -6 0
4 -3 4 -10 0 -16 -8 -13 28 12 39 28 4 6 8 7 8 3 0 -4 13 -2 30 3 39 14 31 24
-30 40 -49 13 -62 23 -37 32 6 2 -15 10 -48 17 -33 6 -105 33 -160 60 -115 54
-135 62 -135 52z"/>
<path d="M5885 2097 c-8 -19 53 -120 115 -192 28 -33 71 -86 95 -119 l45 -58
0 121 0 121 -72 36 c-40 20 -91 49 -113 64 -61 41 -65 42 -70 27z"/>
<path d="M4177 1999 c-132 -30 -174 -101 -102 -173 19 -19 70 -52 112 -72 43
-20 79 -38 81 -39 2 -2 -2 -22 -8 -45 -26 -96 36 -203 148 -256 72 -34 188
-44 254 -21 37 12 48 12 69 1 13 -7 42 -16 64 -20 22 -3 53 -17 70 -29 45 -34
101 -48 158 -42 68 8 117 -12 117 -48 0 -38 28 -81 74 -113 l39 -27 -73 -7
c-105 -9 -156 -54 -146 -126 15 -104 161 -171 371 -172 l100 0 95 -76 c202
-163 335 -241 453 -269 84 -20 87 -19 87 14 0 27 -3 29 -57 40 -115 22 -219
84 -435 255 l-127 101 -108 -3 c-197 -6 -320 48 -299 131 15 61 132 61 245 2
79 -42 112 -41 155 2 56 56 24 83 -171 144 -66 21 -98 37 -112 56 -53 66 -10
97 144 101 210 7 370 -52 309 -113 -12 -12 -26 -15 -48 -11 -51 11 -254 19
-273 12 -13 -6 5 -17 68 -41 140 -54 219 -116 219 -171 0 -29 -37 -70 -81 -88
l-32 -13 99 -70 c114 -81 190 -125 254 -148 60 -21 160 -34 209 -28 l41 6 0
47 c0 30 -6 52 -15 60 -8 7 -18 30 -21 51 l-6 38 -29 -14 c-41 -22 -77 -18
-104 10 -30 29 -31 44 -4 130 24 79 20 107 -18 124 -27 12 -27 13 -8 27 39 28
120 5 145 -42 12 -21 11 -32 -3 -72 -23 -64 -23 -122 1 -122 13 0 23 18 40 73
12 39 22 89 22 109 0 34 -4 39 -71 81 l-72 45 -36 -21 c-99 -59 -269 9 -218
87 21 32 62 40 133 27 62 -12 74 -6 74 33 0 17 -2 18 -17 4 -28 -24 -63 -28
-99 -13 -44 18 -49 46 -25 125 26 81 26 76 -6 106 -14 13 -23 27 -19 31 15 16
86 7 113 -13 34 -25 39 -58 19 -118 -16 -46 -13 -76 8 -76 23 0 36 17 44 55 8
39 9 40 51 39 23 0 46 -5 52 -11 7 -7 0 -41 -21 -105 -16 -52 -30 -98 -30
-101 0 -7 101 -67 113 -67 4 0 7 13 7 29 0 21 -6 32 -21 36 -11 4 -19 12 -16
18 27 74 38 124 35 164 -3 44 -6 49 -43 70 -22 13 -48 23 -58 23 -10 0 -39 22
-65 48 -73 75 -165 92 -249 48 l-45 -25 -42 22 c-30 16 -60 22 -111 23 -38 1
-90 9 -114 18 -55 20 -102 20 -149 -1 -54 -24 -160 -24 -192 0 -14 10 -40 25
-58 33 -28 11 -32 17 -26 36 16 50 22 90 16 111 -17 68 -90 117 -189 125 -51
4 -68 1 -98 -17 -29 -17 -52 -21 -115 -21 -84 0 -155 -18 -203 -53 l-29 -20
-21 21 c-11 12 -23 40 -26 63 -9 65 -66 96 -144 78z m72 -66 c-1 -10 -1 -26 0
-35 1 -24 63 -90 104 -113 l34 -18 39 31 c75 60 183 78 276 46 91 -31 113 -90
48 -128 -29 -18 -52 -21 -143 -21 l-109 0 -29 -33 c-47 -53 -35 -113 27 -128
37 -10 95 3 128 27 39 29 79 17 84 -25 7 -55 -61 -99 -153 -100 -130 -2 -233
87 -223 193 3 26 12 61 20 78 l15 31 -82 31 c-84 32 -161 80 -172 107 -11 30
52 73 110 74 21 0 28 -4 26 -17z m626 -47 c61 -26 68 -64 31 -179 l-23 -75 52
2 c39 1 58 -4 74 -18 26 -24 26 -42 1 -106 -24 -60 -26 -103 -5 -120 25 -21
17 -30 -24 -30 -50 0 -91 31 -90 68 0 15 8 52 18 82 20 60 14 90 -18 90 -14 0
-22 -14 -35 -58 -9 -32 -16 -71 -16 -86 0 -28 -1 -28 -42 -23 -23 3 -48 13
-55 23 -15 21 -11 41 39 174 51 138 57 181 29 209 -11 11 -32 21 -46 21 -29 0
-32 8 -7 26 23 18 74 17 117 0z m545 -305 c14 -10 26 -30 28 -45 l3 -26 29 29
c16 16 41 32 55 35 34 9 80 -14 80 -39 0 -17 -8 -21 -51 -25 -80 -8 -135 -58
-150 -137 -6 -32 -8 -33 -55 -33 -45 0 -49 2 -49 24 0 13 11 52 24 87 27 73
22 103 -18 113 -32 8 -33 24 -3 36 29 12 76 4 107 -19z m-150 -34 c58 -28 63
-55 20 -98 -28 -28 -35 -31 -78 -26 -26 2 -55 8 -65 12 -16 7 -18 4 -15 -16 4
-31 43 -50 76 -38 33 13 62 2 62 -21 0 -27 -43 -36 -108 -22 -72 15 -119 52
-128 99 -20 105 116 168 236 110z m524 -23 c34 -33 11 -64 -47 -64 -64 0 -93
-22 -128 -99 -19 -42 -21 -43 -56 -38 -20 4 -40 10 -44 14 -5 5 -2 31 7 58 8
27 13 59 12 70 -3 17 3 20 38 23 26 2 45 -2 53 -11 9 -12 18 -8 50 24 42 43
87 52 115 23z m83 -450 c46 -18 60 -53 45 -110 -15 -54 -16 -111 -2 -119 6 -3
10 -13 10 -22 0 -12 -7 -14 -36 -10 -20 3 -44 13 -54 22 -10 9 -35 15 -64 15
-26 0 -57 5 -69 12 -81 43 -51 139 45 140 23 1 53 -2 66 -6 16 -6 22 -3 22 9
0 24 -43 40 -69 25 -37 -19 -81 8 -62 38 20 32 98 35 168 6z"/>
<path d="M3554 1817 c-7 -19 22 -95 53 -140 l27 -39 -21 -41 c-11 -23 -23 -50
-26 -59 -3 -9 -18 -25 -34 -35 -31 -20 -149 -24 -285 -10 l-78 9 0 -29 c0 -37
-28 -64 -105 -98 -72 -33 -152 -37 -234 -12 -70 22 -67 22 -74 -12 -7 -34 -36
-64 -92 -94 -38 -21 -51 -22 -235 -19 -219 3 -242 10 -248 70 -3 31 -5 32 -51
32 -41 0 -51 -4 -66 -26 -9 -14 -31 -32 -48 -40 -31 -15 -31 -15 30 -10 43 4
62 2 60 -5 -1 -7 26 -17 62 -25 78 -16 183 -50 234 -76 37 -18 37 -18 67 4 24
17 44 22 100 22 38 1 70 -2 70 -6 0 -4 -9 -13 -21 -22 -11 -8 -27 -23 -35 -35
-14 -19 -12 -22 24 -40 21 -11 52 -33 69 -48 29 -27 109 -60 120 -50 2 3 -16
13 -41 22 -25 10 -53 27 -63 38 -18 21 -18 21 7 4 14 -10 44 -17 72 -17 25 0
59 -5 74 -10 22 -9 29 -8 36 5 5 8 15 15 22 15 8 0 17 12 21 27 3 15 21 48 39
73 19 25 41 60 51 79 12 24 20 30 28 22 14 -14 50 -14 99 1 33 10 41 9 49 -3
23 -37 -1 -145 -55 -242 -35 -61 -29 -106 12 -108 l27 -1 -25 -7 c-14 -4 -26
-4 -28 1 -2 4 -21 -6 -43 -24 -80 -64 -34 -110 100 -100 68 4 76 7 106 41 31
33 32 37 18 58 -18 28 -12 87 12 113 13 15 47 33 145 79 14 6 17 9 7 6 -11 -3
-16 -1 -12 6 4 6 14 8 23 4 25 -9 104 25 97 43 -4 12 -3 13 9 3 12 -10 36 -4
123 34 59 26 119 54 131 62 13 8 39 20 57 26 18 7 47 31 67 57 24 31 45 48 73
55 21 6 45 21 53 33 16 25 37 30 29 8 -4 -11 -1 -13 11 -9 15 6 15 5 3 -10 -7
-9 -11 -17 -8 -17 6 0 81 31 85 35 2 2 -15 27 -37 55 -23 29 -41 56 -41 61 0
23 -36 5 -50 -24 -20 -43 -72 -60 -165 -53 -138 10 -176 21 -219 66 -31 34
-37 47 -33 70 4 17 1 32 -7 39 -14 12 -31 49 -71 159 -26 69 -40 86 -51 59z
m-29 -406 c3 -6 -10 -17 -29 -26 -18 -9 -43 -26 -54 -38 l-21 -22 28 -33 c34
-38 43 -41 28 -8 -7 13 -15 22 -19 20 -5 -3 -8 -1 -8 5 0 5 14 20 30 33 17 13
46 36 65 52 31 25 35 26 35 9 0 -10 5 -24 11 -30 16 -16 18 -73 2 -73 -7 0
-13 7 -13 15 0 9 -9 15 -21 15 -19 0 -19 -1 -4 -16 13 -14 14 -19 3 -34 -7
-10 -39 -53 -70 -96 -31 -44 -72 -94 -91 -111 -34 -32 -54 -43 -43 -24 4 5 8
51 11 102 6 101 16 148 47 222 20 46 22 47 64 47 23 0 45 -4 49 -9z"/>
<path d="M4483 1267 c20 -8 19 -11 -23 -29 -57 -24 -97 -63 -105 -99 -8 -33
-12 -35 -36 -13 -10 9 -26 14 -34 10 -21 -8 -20 -9 159 -204 123 -134 141
-150 159 -141 18 10 16 15 -34 67 -30 31 -57 58 -61 60 -23 11 -1 19 50 18 69
-1 127 26 160 74 50 74 10 185 -80 219 -34 13 -37 31 -5 32 12 0 31 4 42 8 12
5 -30 8 -97 7 -79 0 -110 -4 -95 -9z m130 -68 c42 -22 77 -63 83 -97 20 -103
-118 -176 -226 -120 -48 24 -90 77 -90 112 0 33 34 81 71 99 39 19 130 22 162
6z"/>
<path d="M4830 1234 c0 -2 9 -21 20 -41 51 -95 31 -195 -57 -280 -49 -48 -52
-54 -41 -78 14 -31 26 -32 34 -1 6 26 80 103 90 94 15 -15 -169 -354 -250
-461 -17 -23 -35 -47 -39 -53 -4 -7 22 -30 65 -59 l72 -48 21 29 c25 37 197
215 202 210 8 -7 -58 -137 -103 -205 -25 -38 -43 -75 -39 -81 3 -6 29 -26 57
-45 l51 -34 41 57 c36 49 41 54 44 34 2 -12 -6 -42 -17 -65 -12 -24 -21 -46
-21 -48 0 -3 31 -27 68 -52 l69 -47 135 0 136 0 6 35 c4 19 17 47 30 62 34 41
52 81 71 153 16 64 95 186 103 161 7 -21 -28 -252 -43 -281 -8 -16 -15 -52
-15 -80 l0 -50 143 0 c144 1 162 5 183 41 11 20 105 101 110 96 2 -2 -2 -21
-9 -43 -8 -21 -17 -51 -21 -67 l-6 -27 80 0 80 0 30 47 c28 43 30 54 30 138
l0 90 -92 22 c-121 29 -263 100 -403 204 -60 45 -124 94 -141 109 -27 23 -42
28 -120 33 -238 16 -406 92 -463 211 -40 82 -23 156 53 223 25 22 46 45 46 51
0 5 -24 13 -52 17 -29 4 -72 13 -95 20 -24 7 -43 11 -43 9z m386 -931 c-10
-136 -38 -216 -81 -227 -45 -11 -49 6 -16 69 17 32 31 65 31 74 0 37 51 161
67 161 2 0 2 -35 -1 -77z"/>
<path d="M1801 1159 c-338 -41 -596 -239 -652 -499 -17 -78 -6 -222 21 -295
32 -87 33 -88 115 -70 39 8 99 15 136 15 l65 0 23 297 c30 385 26 363 66 363
18 0 47 -3 64 -6 l31 -7 -6 -81 c-3 -44 -9 -114 -13 -153 -4 -40 -5 -73 -1
-73 3 0 54 58 114 129 144 173 129 162 209 154 57 -5 65 -8 57 -22 -5 -9 -73
-92 -150 -186 -78 -93 -137 -171 -131 -173 5 -2 48 4 94 12 46 9 89 16 96 16
11 0 12 -22 6 -104 l-7 -104 49 -4 c26 -3 49 -4 50 -4 1 1 8 124 16 274 8 150
18 276 21 279 4 4 79 2 167 -4 188 -14 216 -24 238 -91 8 -27 11 -59 6 -88
l-6 -45 -62 3 -62 3 3 45 c4 66 -5 74 -91 78 l-74 4 -7 -168 c-4 -93 -9 -203
-12 -245 l-6 -76 73 0 c80 1 98 11 99 55 0 18 -4 22 -17 18 -10 -3 -30 -8 -45
-12 l-28 -6 0 56 c0 31 1 56 3 56 2 0 46 9 97 20 128 27 130 27 130 -14 0 -34
0 -35 33 -25 17 5 92 35 164 66 152 66 145 50 81 182 -94 196 -326 357 -589
411 -109 23 -272 31 -368 19z"/>
<path d="M4095 1048 c-42 -23 -65 -52 -65 -81 0 -27 -2 -29 -27 -21 -87 26
-167 -1 -188 -64 -11 -31 -11 -31 -30 -13 -13 12 -27 16 -38 12 -16 -6 -11
-15 35 -68 40 -46 60 -62 80 -62 l27 -1 -24 36 c-40 59 -29 105 32 130 56 24
90 6 191 -101 65 -70 91 -92 102 -85 12 7 8 16 -18 47 -101 119 -112 135 -112
168 0 24 7 39 27 54 66 53 106 38 217 -82 69 -75 86 -88 104 -83 20 7 16 14
-55 92 -43 47 -96 96 -119 110 -44 26 -105 31 -139 12z"/>
<path d="M3046 1037 c-18 -69 -19 -70 -109 -111 -80 -36 -92 -39 -127 -30 -36
10 -37 10 -27 -8 7 -10 22 -18 34 -18 17 0 23 -6 23 -24 0 -25 75 -196 87
-196 8 0 83 51 83 56 0 2 -11 14 -25 28 -14 14 -25 33 -25 42 0 11 -6 15 -20
11 -11 -3 -23 -1 -26 4 -3 5 0 10 5 10 6 1 16 3 21 4 6 1 13 3 17 4 4 0 -4 12
-18 25 -31 28 -33 69 -5 74 14 3 17 0 12 -13 -3 -9 1 -26 10 -38 15 -22 15
-21 9 8 -4 19 -3 25 2 18 15 -22 63 7 63 37 0 14 12 43 25 65 14 22 25 43 25
46 0 13 -31 18 -34 6z"/>
<path d="M804 705 c-41 -47 -55 -70 -48 -79 5 -7 26 -36 47 -64 22 -29 43 -52
48 -52 5 0 11 12 15 28 4 15 12 36 19 47 6 11 15 47 19 81 6 55 5 62 -17 83
l-24 22 -59 -66z"/>
<path d="M4418 714 c-4 -3 -2 -19 2 -36 5 -16 8 -60 6 -97 l-3 -67 61 -42 c40
-28 63 -39 70 -32 6 6 13 49 17 98 4 48 10 99 14 115 6 22 4 27 -12 27 -10 0
-36 9 -58 20 -38 19 -85 26 -97 14z"/>
<path d="M3466 590 c-44 -33 -83 -60 -87 -60 -5 0 -24 14 -43 30 l-34 30 -171
-124 -171 -125 35 -27 c19 -14 35 -29 35 -33 0 -6 -121 -98 -160 -121 -11 -7
-4 -18 35 -54 49 -46 49 -46 121 -46 51 0 73 4 77 14 7 17 162 126 179 126 8
0 30 -14 50 -30 l37 -31 42 31 c23 16 45 30 49 30 11 0 85 -61 85 -70 0 -5
-17 -22 -39 -39 l-39 -31 703 0 c387 0 701 2 699 4 -2 2 -87 59 -189 128 -102
68 -242 165 -311 214 l-126 91 -42 -31 -41 -30 -45 32 c-25 18 -50 32 -55 32
-8 0 -160 -109 -160 -115 0 -5 168 -125 175 -125 4 0 24 14 45 30 21 17 41 30
45 30 14 0 85 -55 85 -66 0 -14 -154 -134 -172 -134 -7 0 -30 11 -50 25 -20
14 -40 25 -43 25 -4 0 -21 -11 -39 -25 -18 -14 -40 -25 -48 -25 -15 0 -260
184 -266 199 -1 4 16 21 39 36 l41 29 -34 28 c-18 15 -36 28 -40 28 -25 1 2
32 72 83 44 33 80 60 80 62 0 1 -16 15 -36 30 l-35 27 -38 -26 c-20 -14 -42
-26 -47 -26 -5 0 -25 13 -44 30 -19 16 -37 29 -40 29 -3 0 -41 -26 -84 -59z"/>
<path d="M1690 426 l-55 -11 -8 -55 c-4 -30 -6 -61 -5 -68 4 -17 122 -65 126
-52 2 6 15 23 28 39 17 20 25 46 30 94 l7 67 -34 -1 c-19 -1 -59 -6 -89 -13z"/>
<path d="M2682 412 c-25 -14 -30 -20 -20 -30 9 -9 1 -12 -37 -12 -60 0 -124
-27 -153 -65 -47 -60 -16 -164 65 -216 42 -26 56 -29 125 -29 43 0 78 2 78 5
0 3 -7 17 -16 31 -11 17 -22 23 -35 19 -32 -10 -96 14 -123 46 -36 42 -36 100
-1 128 55 42 125 38 181 -11 33 -29 35 -30 59 -14 14 9 25 20 25 25 0 11 -101
141 -109 141 -3 -1 -21 -9 -39 -18z"/>
<path d="M1943 223 c-18 -7 -33 -18 -33 -23 0 -6 21 -40 48 -75 l47 -64 66 -1
c59 0 67 2 76 23 12 26 68 57 102 57 36 0 99 -31 116 -56 12 -19 24 -24 60
-24 25 0 45 4 45 8 0 20 -74 92 -113 111 -52 25 -144 28 -187 6 -15 -8 -42
-31 -59 -52 -19 -23 -34 -34 -40 -28 -4 6 -28 37 -52 71 l-44 61 -32 -14z"/>
<path d="M1302 175 c-87 -24 -92 -31 -26 -40 79 -9 97 -20 90 -51 l-6 -24 109
0 c88 0 110 3 115 15 7 19 39 19 77 -1 17 -8 46 -14 65 -12 l36 3 -56 34 c-97
58 -169 82 -264 87 -59 3 -104 -1 -140 -11z"/>
</g>
</svg>
