<?xml version="1.0" standalone="no"?>
<!DOCTYPE svg PUBLIC "-//W3C//DTD SVG 20010904//EN"
 "http://www.w3.org/TR/2001/REC-SVG-20010904/DTD/svg10.dtd">
<svg version="1.0" xmlns="http://www.w3.org/2000/svg"
 width="600.000000pt" height="400.000000pt" viewBox="0 0 600.000000 400.000000"
 preserveAspectRatio="xMidYMid meet">
<metadata>
Created by potrace 1.15, written by Peter Selinger 2001-2017
</metadata>
<g transform="translate(0.000000,400.000000) scale(0.100000,-0.100000)"
fill="#000000" stroke="none">
<path d="M0 2000 l0 -2000 3000 0 3000 0 0 2000 0 2000 -3000 0 -3000 0 0
-2000z m4410 163 c39 -27 49 -45 50 -90 0 -33 -6 -50 -29 -75 -25 -28 -36 -33
-76 -33 -40 0 -51 5 -76 33 -43 47 -41 102 5 148 39 39 85 45 126 17z m383
-21 c51 -51 37 -136 -28 -167 -52 -24 -83 -19 -121 19 -27 27 -34 42 -34 74 0
100 112 145 183 74z m-2405 -1464 c15 -15 15 -51 0 -66 -17 -17 -1559 -17
-1576 0 -15 15 -15 51 0 66 17 17 1559 17 1576 0z"/>
</g>
</svg>
