<?xml version="1.0" standalone="no"?>
<!DOCTYPE svg PUBLIC "-//W3C//DTD SVG 20010904//EN"
 "http://www.w3.org/TR/2001/REC-SVG-20010904/DTD/svg10.dtd">
<svg version="1.0" xmlns="http://www.w3.org/2000/svg"
 width="365.000000pt" height="253.000000pt" viewBox="0 0 365.000000 253.000000"
 preserveAspectRatio="xMidYMid meet">
<metadata>
Created by potrace 1.15, written by Peter Selinger 2001-2017
</metadata>
<g transform="translate(0.000000,253.000000) scale(0.100000,-0.100000)"
fill="#000000" stroke="none">
<path d="M2625 1448 c-10 -6 -30 -24 -43 -40 -29 -34 -42 -35 -92 -3 -60 38
-95 42 -130 16 -28 -20 -39 -21 -309 -21 -276 0 -280 0 -286 21 -6 19 -13 21
-53 16 -37 -4 -53 -12 -80 -42 -32 -35 -33 -39 -28 -98 7 -84 7 -84 0 -153
-11 -107 -16 -104 210 -104 185 0 194 -1 199 -20 5 -18 14 -20 105 -20 111 0
112 -1 112 -69 0 -24 -9 -52 -25 -74 -23 -35 -24 -37 -5 -47 30 -16 56 -12 87
13 146 122 178 126 228 28 21 -42 17 -140 -8 -190 -23 -46 -21 -64 9 -100 32
-39 105 -61 201 -62 86 -1 143 21 196 76 61 62 90 136 95 238 4 85 3 90 -32
162 -48 97 -127 176 -239 238 -86 47 -87 48 -87 86 0 21 6 44 14 50 8 6 19 25
26 42 11 25 10 32 -5 49 -21 23 -32 24 -60 8z m-267 -105 c12 -13 33 -23 47
-23 17 0 25 -6 25 -17 0 -17 -24 -18 -357 -18 -273 0 -357 -3 -360 -12 -4 -10
51 -13 239 -16 l243 -2 -277 -3 -278 -2 0 53 c0 30 2 56 4 58 2 2 159 4 348 4
342 0 343 0 366 -22z m157 -143 c0 -66 -3 -120 -6 -120 -3 0 -11 11 -17 25
l-12 25 -173 0 c-137 0 -177 -3 -193 -15 -17 -13 -14 -14 41 -15 57 -1 59 -1
35 -15 -14 -8 -51 -14 -83 -15 l-58 0 15 29 c22 42 71 61 158 61 153 1 204 25
228 108 13 45 18 52 40 52 l25 0 0 -120z m-381 -25 c-23 -7 -50 -20 -61 -29
-16 -14 -50 -17 -226 -19 l-207 -2 0 32 0 32 268 0 c235 -1 262 -2 226 -14z
m353 -141 c10 -2 9 -12 -4 -39 -9 -19 -20 -35 -24 -35 -3 0 -27 9 -52 20 -53
24 -214 50 -305 50 -37 0 -61 4 -57 9 5 9 413 5 442 -5z"/>
</g>
</svg>
