<?xml version="1.0" standalone="no"?>
<!DOCTYPE svg PUBLIC "-//W3C//DTD SVG 20010904//EN"
 "http://www.w3.org/TR/2001/REC-SVG-20010904/DTD/svg10.dtd">
<svg version="1.0" xmlns="http://www.w3.org/2000/svg"
 width="691.000000pt" height="389.000000pt" viewBox="0 0 691.000000 389.000000"
 preserveAspectRatio="xMidYMid meet">
<metadata>
Created by potrace 1.15, written by Peter Selinger 2001-2017
</metadata>
<g transform="translate(0.000000,389.000000) scale(0.100000,-0.100000)"
fill="#000000" stroke="none">
<path d="M0 3216 l0 -673 84 -17 c117 -23 299 -76 452 -131 175 -63 454 -200
454 -223 2 -117 -1 -637 -4 -639 -2 -2 -30 14 -61 36 -32 23 -54 42 -49 43 5
1 -85 5 -199 8 l-209 5 -5 150 c-3 83 -7 152 -10 155 -2 2 -3 -68 -2 -155 l1
-160 -226 -3 -226 -2 0 -185 c0 -141 3 -185 13 -185 19 0 226 -103 303 -151
85 -53 238 -166 296 -219 24 -22 48 -40 54 -40 6 0 32 42 58 93 141 270 250
473 258 482 7 7 7 -2 2 -25 -4 -19 -8 -53 -7 -75 0 -26 -1 -30 -4 -12 -2 15
-8 25 -13 22 -4 -3 -6 -14 -3 -25 4 -14 0 -20 -11 -20 -10 0 -13 -6 -10 -15 4
-8 1 -15 -5 -15 -6 0 -11 -5 -11 -11 0 -5 4 -7 10 -4 6 4 10 -15 10 -50 l0
-57 -37 3 c-28 2 -37 -1 -35 -11 17 -75 17 -73 -17 -68 -24 3 -35 0 -42 -13
-7 -14 -6 -18 3 -15 7 1 10 1 5 -1 -4 -3 -5 -8 -2 -13 3 -4 -3 -7 -12 -6 -9 0
-18 -5 -20 -12 -3 -7 1 -11 7 -10 7 2 15 -4 17 -12 4 -13 3 -13 -6 0 -9 12
-11 13 -11 1 0 -8 -3 -12 -6 -8 -4 3 -13 -1 -21 -9 -11 -11 -12 -18 -4 -28 8
-10 8 -20 1 -37 -10 -23 -10 -23 -6 -2 6 35 -13 27 -29 -11 -8 -19 -20 -38
-25 -41 -7 -4 -8 -19 -5 -36 6 -28 -9 -42 -18 -16 -7 19 -36 -59 -31 -85 3
-18 3 -19 -4 -5 -11 26 -75 -86 -75 -133 1 -24 -2 -29 -6 -16 -6 15 -10 11
-26 -23 -10 -23 -22 -41 -27 -41 -4 0 -8 -9 -8 -20 0 -11 -5 -20 -11 -20 -5 0
-7 -5 -4 -10 3 -6 2 -10 -4 -10 -10 0 -27 -38 -23 -53 1 -4 -3 -7 -9 -7 -6 0
-9 -9 -6 -20 3 -10 1 -18 -5 -17 -5 1 -28 -34 -51 -78 -23 -44 -46 -83 -51
-86 -5 -4 -5 -12 -2 -18 4 -6 3 -11 -1 -11 -5 0 -23 -27 -41 -60 l-33 -60 190
0 c163 0 191 2 191 15 0 16 0 16 45 19 22 1 30 -3 29 -15 -1 -15 48 -16 537
-18 297 -1 539 1 539 4 0 3 -9 23 -20 45 -24 47 -25 60 -5 60 8 0 24 9 35 20
l20 20 55 -40 c48 -36 55 -45 55 -75 0 -35 1 -35 43 -35 32 1 50 8 76 30 31
26 36 28 55 15 63 -45 179 35 160 110 -15 60 -120 98 -156 58 -29 -33 -49 -83
-43 -106 5 -18 1 -26 -20 -35 -14 -7 -27 -12 -29 -12 -2 0 -7 50 -11 110 l-7
110 -29 0 c-29 0 -29 -1 -29 -57 0 -80 -7 -88 -57 -68 -36 15 -41 20 -46 58
-4 31 -15 50 -41 74 -20 18 -41 33 -48 33 -42 0 -108 -76 -108 -122 0 -8 -8
-22 -18 -31 -17 -16 -20 -15 -53 12 l-34 29 -32 -31 -33 -31 -35 34 -35 34
-32 -31 -33 -32 -31 28 -30 27 92 188 c84 173 117 227 128 215 2 -2 20 -37 40
-78 21 -40 39 -71 40 -70 3 4 208 479 230 534 7 19 -10 60 -102 234 l-111 211
-1 350 0 350 146 0 147 0 -6 -127 c-4 -71 -7 -188 -7 -260 l0 -133 -75 0 -76
0 93 -107 c51 -60 103 -121 116 -137 12 -16 24 -27 26 -25 11 12 266 628 266
643 0 36 -368 370 -542 492 -85 60 -92 72 -86 159 l3 55 -57 0 c-57 0 -58 0
-58 -29 0 -31 -21 -46 -39 -28 -6 6 -11 21 -11 34 0 17 -6 23 -22 23 -39 1
-104 36 -128 70 -34 48 -38 109 -9 160 40 70 75 85 207 85 l112 -1 0 175 0
174 82 157 82 158 -18 60 c-13 42 -17 75 -13 106 5 34 3 44 -6 40 -8 -3 -13
-27 -14 -70 0 -36 -3 -68 -7 -71 -3 -4 -6 -15 -6 -25 0 -10 -5 -18 -11 -18 -5
0 -8 -4 -5 -8 2 -4 -17 -48 -44 -97 -27 -50 -62 -116 -76 -147 l-27 -58 -260
0 c-221 0 -261 2 -271 15 -8 11 -10 -54 -8 -250 2 -166 -1 -265 -7 -265 -5 0
-36 11 -68 25 -32 13 -121 46 -198 72 l-140 48 -3 83 -3 82 29 0 c48 0 92 12
92 24 0 36 -34 119 -66 160 l-36 48 -16 -24 c-9 -13 -21 -26 -26 -30 -20 -14
-79 -8 -100 10 -21 17 -21 17 -3 -4 17 -21 17 -21 -35 -27 -29 -4 -68 -7 -85
-7 -41 0 -42 -13 -4 -51 32 -31 75 -38 114 -18 21 11 21 11 6 -7 -9 -10 -15
-24 -12 -30 5 -14 -69 -23 -197 -25 -52 -1 -84 -3 -70 -6 96 -14 90 -11 90
-53 0 -47 2 -47 -122 -24 l-88 16 -2 197 c-1 108 -1 274 1 369 3 169 3 172
-18 172 l-21 0 0 -674z m1982 -1347 l-3 -132 -45 44 c-39 38 -44 48 -44 88 0
40 5 51 42 88 23 24 45 43 48 43 3 0 4 -59 2 -131z m-926 -1449 c27 -39 77
-110 112 -157 34 -48 62 -90 62 -93 0 -9 -39 -43 -73 -65 -27 -17 -28 -17 -68
9 l-41 27 -39 -25 c-21 -14 -42 -26 -46 -26 -5 0 -25 11 -45 25 l-38 25 -41
-26 c-41 -26 -42 -26 -76 -7 -19 10 -37 21 -39 25 -7 11 255 358 270 358 7 0
35 -32 62 -70z"/>
<path d="M2413 3878 c7 -4 20 -8 29 -8 13 0 18 -13 24 -56 9 -73 1 -115 -30
-161 -31 -46 -33 -72 -5 -107 17 -21 28 -26 67 -26 56 0 125 30 145 62 8 12
18 43 22 68 10 62 28 94 98 173 l60 68 -211 -3 c-116 -1 -205 -6 -199 -10z"/>
<path d="M4240 3886 c0 -5 141 -42 193 -51 l37 -6 0 -113 c0 -62 -3 -140 -6
-174 l-7 -60 -41 1 c-22 0 -57 -2 -77 -6 -31 -6 -39 -14 -59 -58 -27 -57 -22
-75 26 -98 25 -13 36 -12 89 1 33 9 62 15 64 13 1 -2 0 -59 -4 -127 l-7 -124
-51 24 c-73 35 -102 42 -142 31 -63 -18 -80 -73 -26 -86 50 -12 100 -43 132
-83 23 -29 36 -37 44 -30 14 12 104 -4 145 -25 65 -34 111 -113 112 -191 1
-109 -78 -202 -180 -212 l-49 -4 -7 -97 c-3 -53 -6 -124 -6 -157 l0 -62 -67 6
c-46 3 -101 18 -167 44 -141 56 -208 71 -311 71 -109 -1 -199 -22 -317 -75
-84 -37 -91 -39 -197 -39 -105 0 -115 2 -192 36 -126 55 -210 75 -319 75 -113
0 -181 -15 -315 -69 -70 -28 -123 -43 -174 -47 -61 -6 -79 -12 -105 -35 -27
-24 -31 -34 -31 -78 0 -67 31 -101 101 -108 27 -3 54 -10 60 -15 7 -5 17 -39
24 -76 36 -192 131 -329 269 -384 46 -19 75 -23 166 -22 123 0 180 17 266 79
l46 33 38 -45 c47 -56 103 -83 175 -83 69 0 124 25 171 76 l35 40 38 -28 c124
-90 314 -105 453 -37 122 59 203 176 239 348 10 46 24 90 32 97 7 8 30 14 50
14 21 0 48 7 60 16 13 9 25 14 26 13 2 -2 36 -83 76 -179 135 -327 262 -625
271 -640 6 -9 7 73 3 210 l-6 225 225 213 225 214 37 86 c44 103 76 162 87
162 4 0 8 -72 8 -159 0 -179 -4 -171 81 -171 27 0 49 -5 49 -10 0 -6 -8 -27
-19 -48 -36 -72 -36 -80 1 -87 l34 -6 -35 -71 c-28 -55 -36 -83 -36 -126 l0
-56 60 -13 c33 -8 102 -26 153 -40 51 -14 96 -23 100 -19 4 4 7 47 7 95 0 80
-3 93 -36 159 l-35 72 25 0 c50 0 54 12 27 75 -14 31 -26 61 -26 66 0 5 22 9
49 9 85 0 81 -8 81 169 0 86 4 162 9 170 12 18 35 -17 65 -101 44 -117 63
-154 97 -180 19 -14 95 -86 169 -158 74 -72 176 -171 227 -220 66 -64 103
-110 132 -163 23 -40 41 -80 41 -88 0 -8 6 -25 13 -39 29 -55 28 -59 -4 -50
-19 6 -42 4 -67 -4 l-37 -14 30 -7 c17 -5 103 -27 193 -50 l162 -42 0 399 c0
219 -2 398 -4 398 -2 0 -26 -11 -53 -24 -98 -49 -158 -61 -308 -61 -157 0
-213 11 -322 60 -119 55 -199 155 -218 273 -6 40 -8 42 -24 28 -15 -14 -20
-11 -60 35 l-42 49 0 521 c1 286 -2 531 -5 545 l-6 25 -229 -1 c-158 -1 -229
-5 -229 -12 0 -6 -8 -4 -18 5 -20 18 -101 56 -120 57 -10 0 -12 -8 -7 -29 4
-20 -1 -42 -16 -71 -23 -45 -20 -63 15 -84 13 -9 28 -5 66 17 28 15 55 27 60
27 6 0 10 -33 10 -80 l0 -81 -29 22 c-23 17 -38 20 -68 16 -59 -10 -84 -36
-111 -113 -27 -80 -20 -118 23 -134 55 -21 83 -13 137 41 40 40 49 46 45 27
-4 -12 -7 -33 -7 -45 0 -17 -7 -23 -32 -26 -32 -4 -32 -4 5 -5 20 -1 37 -5 37
-9 4 -162 3 -523 -2 -523 -3 0 -10 17 -15 37 l-9 37 -27 -46 c-34 -59 -108
-124 -174 -155 -66 -30 -188 -56 -233 -49 l-35 5 -43 -117 c-29 -80 -43 -134
-43 -172 l-2 -55 -7 60 c-4 33 -13 233 -19 445 -6 212 -14 418 -17 458 l-6 72
60 0 c53 0 65 4 115 40 30 22 65 56 77 75 20 33 22 44 15 129 -7 98 2 134 39
165 26 22 20 76 -10 100 -71 56 -234 -13 -234 -98 0 -34 -29 -100 -53 -119
-15 -13 -21 86 -29 468 l-3 125 50 7 c28 4 77 16 110 27 l60 19 -362 1 c-200
1 -363 -1 -363 -3z m1602 -1658 c-7 -112 -13 -212 -15 -223 -3 -25 -54 -34
-187 -33 -89 0 -136 10 -127 26 3 4 -2 57 -10 117 -7 61 -16 153 -19 205 -4
54 -11 98 -18 102 -6 4 79 8 189 8 l200 0 -13 -202z m-2853 -64 c70 -21 144
-91 161 -154 24 -88 -9 -228 -71 -303 -17 -20 -52 -49 -77 -65 -42 -24 -56
-27 -142 -27 -78 0 -102 4 -135 22 -105 57 -175 183 -175 320 0 110 55 174
180 209 64 18 197 17 259 -2z m1028 -8 c64 -20 107 -56 135 -109 17 -34 20
-53 15 -112 -12 -152 -94 -276 -206 -309 -201 -59 -359 48 -392 267 -14 88 -2
141 43 193 30 34 85 68 138 85 39 13 209 3 267 -15z m-613 -164 c10 -12 20
-51 27 -101 10 -86 31 -161 55 -198 13 -21 13 -22 -68 -25 -128 -5 -201 1
-188 17 20 24 51 131 60 209 6 49 16 86 26 97 22 24 66 24 88 1z m2304 -195
c33 -39 20 -127 -28 -180 l-28 -32 -26 24 c-37 35 -60 102 -51 148 4 21 9 41
11 45 8 13 111 9 122 -5z"/>
<path d="M6082 3823 c8 -155 117 -244 260 -214 109 23 178 115 178 238 l0 43
-221 0 -221 0 4 -67z"/>
<path d="M2166 3689 c-15 -12 -50 -33 -79 -48 -34 -17 -62 -42 -84 -72 -31
-46 -31 -47 -10 -53 12 -3 36 -6 52 -6 58 0 95 -51 95 -132 0 -32 9 -34 49
-13 40 20 54 62 49 142 -4 53 -1 78 14 115 16 36 17 51 8 67 -14 28 -59 27
-94 0z"/>
<path d="M3042 3664 c-60 -29 -95 -71 -111 -130 -14 -53 -84 -120 -135 -130
-25 -4 -68 2 -139 20 -117 30 -166 32 -207 11 -45 -23 -62 -68 -76 -198 -13
-127 -22 -148 -79 -173 l-30 -13 27 -1 c15 0 33 7 42 15 8 8 18 15 22 15 3 0
4 -53 0 -117 -3 -65 -9 -242 -12 -393 -4 -151 -8 -278 -11 -282 -2 -5 1 -8 6
-8 6 0 19 19 28 43 55 141 188 361 306 505 l59 73 -4 245 -3 244 50 0 c56 0
74 10 147 77 26 24 57 43 68 43 21 0 21 -1 -3 -32 -28 -37 -52 -102 -62 -168
l-7 -45 109 10 c86 8 97 11 56 13 -41 2 -55 8 -64 24 -9 17 -13 18 -20 7 -7
-11 -9 -9 -9 8 0 12 -3 29 -7 39 -4 12 -3 15 5 10 7 -4 12 -2 12 3 0 6 -4 11
-8 11 -5 0 -9 13 -9 30 0 16 4 27 9 24 5 -3 7 -2 6 3 -4 11 30 59 40 56 4 -2
7 4 7 13 0 8 7 19 15 24 8 5 10 10 5 10 -18 0 -34 -22 -28 -38 4 -10 2 -13 -5
-8 -20 12 -14 28 28 67 29 27 45 36 62 32 17 -3 19 -2 9 5 -11 8 -6 14 25 29
42 21 111 22 227 4 52 -9 67 -16 92 -45 27 -30 30 -40 27 -82 -2 -27 -7 -53
-12 -59 -13 -18 -20 -46 -10 -40 6 3 10 -1 10 -9 0 -9 -5 -16 -11 -16 -5 0 -7
-5 -4 -11 4 -6 -2 -13 -13 -16 -11 -3 -19 -10 -17 -16 7 -19 -46 -51 -95 -58
-37 -5 -31 -7 36 -8 l81 -1 0 30 c0 53 46 83 98 64 9 -4 27 -28 41 -55 17 -34
30 -49 44 -49 16 0 18 -3 10 -17 -5 -10 -17 -44 -26 -75 l-15 -58 -346 0
c-237 0 -344 -3 -341 -11 2 -7 110 -10 331 -9 222 0 326 -3 322 -10 -3 -5 -23
-11 -43 -11 -58 -2 -97 -13 -97 -27 0 -15 -44 -51 -62 -52 -7 0 -13 -4 -13
-10 0 -13 -359 -13 -380 0 -9 6 -17 5 -21 -1 -3 -6 -12 4 -19 21 -10 23 -17
29 -31 25 -14 -5 -19 -1 -19 14 0 12 -3 20 -7 20 -21 -3 -33 2 -28 12 5 7 -6
9 -31 7 l-39 -3 -3 -64 -3 -64 62 7 c34 3 202 6 374 6 l312 0 33 66 c17 36 39
68 47 71 9 4 37 21 64 38 96 65 203 70 314 16 64 -32 88 -35 68 -9 -5 7 -15
31 -21 53 -15 53 -54 105 -100 132 -28 17 -52 23 -100 23 -51 0 -64 3 -69 18
-37 109 -115 208 -200 254 -84 46 -157 62 -243 53 -81 -8 -97 -8 -180 0 -46 4
-64 1 -108 -21z"/>
<path d="M6820 3544 c-153 -23 -240 -64 -322 -152 -125 -133 -163 -326 -117
-582 65 -368 191 -556 433 -651 39 -16 77 -28 84 -29 9 0 12 137 12 655 0 711
3 673 -52 644 -16 -8 -24 -8 -35 4 -13 13 -13 17 6 36 12 12 35 24 51 28 23 4
30 11 30 29 0 21 -5 24 -32 23 -18 -1 -44 -3 -58 -5z m-30 -134 c0 -11 -17
-43 -39 -71 -45 -59 -70 -128 -78 -217 -5 -53 -10 -66 -31 -80 -23 -15 -26
-15 -44 8 -31 39 -13 143 45 253 49 94 147 165 147 107z"/>
<path d="M5094 2794 c-46 -21 -74 -50 -74 -77 0 -30 12 -41 70 -61 60 -21 90
-6 109 52 12 38 11 45 -4 62 -27 30 -67 40 -101 24z"/>
<path d="M5112 1658 c-8 -8 -12 -56 -12 -149 l0 -137 -37 20 c-46 23 -113 20
-151 -9 -49 -37 -66 -70 -66 -128 0 -58 17 -91 65 -127 30 -23 147 -42 165
-27 8 7 14 7 18 0 7 -12 -1 -281 -9 -289 -3 -3 -5 10 -6 29 0 19 -3 28 -6 21
-4 -10 -9 -9 -20 5 -10 13 -16 15 -19 6 -7 -17 -24 -16 -38 2 -7 10 -16 12
-25 6 -12 -8 -1 -42 57 -191 l72 -181 0 -255 0 -254 30 0 30 0 2 182 3 182 77
-180 76 -179 796 -3 796 -2 0 425 c0 278 -3 425 -10 425 -10 0 -109 -25 -335
-86 -71 -20 -242 -64 -380 -100 -368 -94 -680 -176 -850 -223 -82 -23 -155
-41 -162 -41 -10 0 -13 123 -13 623 0 612 -2 647 -30 647 -3 0 -11 -5 -18 -12z
m830 -1260 c36 -13 68 -66 68 -111 0 -64 -93 -115 -159 -87 -43 17 -81 62 -87
102 -5 29 -1 41 23 67 16 19 43 36 63 40 36 8 45 7 92 -11z"/>
<path d="M25 740 c6 -10 4 -12 -8 -7 -16 6 -17 -23 -17 -363 l0 -370 119 0
118 0 80 153 c157 298 193 374 172 362 -6 -4 -13 2 -16 14 -5 20 -39 38 -50
27 -4 -3 -12 -1 -20 6 -8 6 -39 12 -69 12 -36 1 -54 5 -54 14 0 6 -4 12 -10
12 -15 0 -100 57 -94 63 3 3 -2 3 -13 1 -11 -3 -36 7 -61 25 -23 17 -49 31
-58 31 -8 0 -13 4 -9 9 3 5 0 13 -6 17 -8 5 -9 3 -4 -6z"/>
<path d="M3495 541 c-89 -23 -160 -112 -156 -196 0 -5 16 -13 35 -16 19 -3 33
-2 30 3 -3 4 -11 8 -18 8 -25 0 -26 52 -3 100 29 60 96 94 162 84 37 -5 45
-10 45 -28 0 -17 2 -18 10 -6 8 12 10 11 10 -5 0 -12 6 -27 13 -33 17 -18 16
-60 -1 -67 -8 -3 -11 -12 -8 -20 3 -8 1 -15 -5 -15 -6 0 -7 -5 -3 -12 4 -6 3
-9 -2 -5 -5 3 -18 -1 -29 -9 -18 -13 -10 -14 75 -8 52 3 99 10 103 14 14 12
-3 77 -33 123 -43 68 -147 108 -225 88z"/>
<path d="M3288 259 c-11 -6 -18 -22 -18 -40 0 -20 -12 -43 -38 -72 -39 -43
-102 -130 -102 -142 0 -3 44 -4 98 -2 110 6 122 8 122 17 0 4 14 13 31 20 17
7 38 20 47 29 11 12 16 13 20 3 5 -17 22 -15 22 4 0 14 2 14 16 0 9 -9 19 -29
23 -44 l7 -27 222 -3 c122 -1 222 1 222 4 0 11 -86 127 -109 148 -13 12 -21
31 -21 52 0 47 -38 72 -83 56 -94 -33 -378 -35 -411 -2 -12 12 -26 12 -48 -1z
m271 -40 c114 -1 138 -3 111 -11 -46 -13 -63 -22 -60 -32 4 -19 -29 -26 -119
-26 -91 0 -171 15 -171 32 0 4 -8 8 -17 9 -12 0 -13 2 -5 6 10 4 10 8 0 21
-12 14 -6 15 51 9 35 -4 130 -7 210 -8z"/>
</g>
</svg>
