<?xml version="1.0" standalone="no"?>
<!DOCTYPE svg PUBLIC "-//W3C//DTD SVG 20010904//EN"
 "http://www.w3.org/TR/2001/REC-SVG-20010904/DTD/svg10.dtd">
<svg version="1.0" xmlns="http://www.w3.org/2000/svg"
 width="658.000000pt" height="400.000000pt" viewBox="0 0 658.000000 400.000000"
 preserveAspectRatio="xMidYMid meet">
<metadata>
Created by potrace 1.15, written by Peter Selinger 2001-2017
</metadata>
<g transform="translate(0.000000,400.000000) scale(0.100000,-0.100000)"
fill="#000000" stroke="none">
<path d="M0 2000 l0 -2000 3290 0 3290 0 0 2000 0 2000 -3290 0 -3290 0 0
-2000z m3958 1815 c74 -18 190 -69 259 -116 26 -17 84 -69 128 -114 130 -131
207 -305 223 -496 18 -228 -41 -437 -155 -553 -61 -61 -185 -159 -267 -210
-93 -59 -156 -75 -318 -83 -109 -5 -139 -3 -222 16 -53 12 -96 27 -96 32 0 5
-14 9 -31 9 -16 0 -28 4 -25 9 8 12 -18 21 -43 14 -18 -5 -19 -8 -9 -21 11
-13 9 -14 -12 -7 -70 20 -190 110 -250 186 -46 58 -52 80 -14 50 27 -21 27
-21 41 -1 12 17 11 27 -13 82 -22 52 -28 86 -34 188 -9 135 -37 244 -91 352
-16 32 -29 65 -29 75 0 30 73 184 117 248 87 127 186 226 283 281 108 62 410
94 558 59z m-1322 -356 c128 -63 297 -230 266 -261 -8 -8 -18 -8 -36 0 -13 6
-26 9 -29 6 -2 -3 -2 -36 1 -74 5 -72 -12 -120 -41 -120 -7 0 -20 -9 -30 -20
-9 -11 -24 -20 -32 -20 -9 0 -13 -4 -10 -10 4 -6 -7 -10 -24 -10 -17 0 -31 -5
-31 -11 0 -8 -11 -9 -31 -5 -46 9 -149 57 -149 69 0 6 -3 8 -6 5 -5 -6 60 -97
77 -108 18 -12 26 -60 27 -157 1 -97 0 -103 -29 -142 -16 -23 -29 -45 -29 -51
0 -5 -4 -10 -9 -10 -6 0 -18 -13 -27 -29 -10 -17 -28 -32 -41 -36 -13 -3 -23
-10 -23 -15 0 -6 -6 -10 -14 -10 -8 0 -16 -5 -18 -10 -2 -6 -20 -13 -40 -16
l-37 -6 -4 73 c-1 41 -5 -24 -7 -143 -1 -120 -3 -224 -4 -230 -1 -10 36 -14
139 -18 77 -3 131 -7 120 -8 -11 -1 -34 -11 -51 -21 -33 -20 -165 -46 -188
-38 -17 7 -26 -22 -26 -85 0 -27 -3 -48 -7 -48 -5 -1 -45 -2 -90 -3 l-81 -3
-6 36 c-3 19 -6 57 -6 84 0 27 -3 47 -6 44 -3 -4 -33 4 -67 15 l-62 22 68 3
67 3 0 259 0 260 -67 -2 -68 -2 63 -3 62 -4 0 -104 c0 -95 -2 -104 -17 -98
-34 12 -88 52 -113 83 -14 16 -38 44 -53 61 -16 17 -26 37 -23 44 2 7 -2 19
-9 25 -19 16 -10 30 14 23 18 -5 19 -2 8 34 -25 88 -5 212 41 248 7 6 14 18
16 28 3 21 65 87 82 87 6 0 14 7 18 15 3 8 12 12 21 9 12 -5 15 -31 17 -148
l2 -141 5 155 c6 167 12 188 68 244 30 31 97 65 127 66 12 0 16 5 12 15 -3 8
-9 22 -12 30 -3 8 -1 15 5 15 6 0 11 9 11 19 0 11 4 22 9 26 6 3 8 15 6 27 -3
15 5 31 25 50 27 24 51 31 140 41 22 3 30 19 17 36 -18 21 22 8 119 -40z m404
-1353 c8 -7 40 -25 70 -41 30 -16 61 -35 68 -42 7 -7 16 -13 20 -13 4 0 32
-24 63 -52 118 -112 198 -234 239 -363 l22 -70 -36 -60 c-81 -134 -126 -300
-126 -463 l0 -99 -63 -74 c-35 -41 -76 -83 -91 -94 -16 -11 -34 -25 -40 -31
-16 -16 -93 -55 -136 -71 -70 -25 -180 -36 -296 -30 -200 11 -366 82 -510 220
-135 127 -215 294 -239 497 -8 70 -15 99 -20 86 -13 -29 3 -225 24 -301 22
-79 21 -95 -2 -37 -50 125 -72 384 -42 491 19 64 75 185 82 177 3 -3 -2 -17
-11 -30 -15 -23 -66 -168 -66 -187 0 -5 4 -9 8 -9 4 0 14 21 20 47 31 115 120
263 158 263 7 0 22 13 33 28 19 28 24 29 125 35 177 10 340 69 487 178 62 46
68 48 140 51 41 2 81 4 89 4 8 1 22 -4 30 -10z m1490 -348 c19 -6 62 -25 95
-41 33 -17 64 -30 69 -29 18 5 186 -148 186 -170 0 -4 -24 -8 -54 -8 -30 0
-58 -4 -61 -10 -3 -5 2 -10 13 -10 17 0 18 -5 12 -45 -4 -26 -12 -51 -18 -57
-17 -17 -142 -26 -184 -14 -44 13 -115 64 -123 88 -3 9 -16 19 -28 21 -12 2 5
5 38 7 170 7 85 17 -204 24 -179 4 -334 12 -345 16 -18 8 -17 9 10 9 16 1 58
12 91 25 34 13 64 22 67 19 3 -3 12 0 21 7 8 7 24 10 35 7 11 -3 20 -1 20 4 0
5 9 9 20 9 13 0 20 7 20 19 0 11 4 22 9 25 4 3 11 23 15 45 l6 39 62 6 c106
11 138 17 133 26 -6 10 46 3 95 -12z m-200 -523 c-7 -8 -26 -15 -42 -15 l-29
0 22 -29 c33 -44 36 -110 9 -159 -13 -22 -36 -50 -51 -61 -16 -12 -29 -27 -29
-34 0 -7 25 -37 55 -67 67 -66 82 -104 65 -165 -23 -84 -94 -125 -215 -125
-88 0 -131 15 -168 59 -20 25 -27 43 -27 76 0 75 59 123 173 140 45 7 58 17
37 30 -5 3 -10 15 -10 25 0 15 -9 21 -42 26 -84 14 -139 99 -116 181 16 57 36
80 91 107 46 23 65 25 171 26 104 0 117 -2 106 -15z m230 -50 l0 -65 60 0 c57
0 60 -1 60 -25 0 -24 -3 -25 -60 -25 l-59 0 -3 -62 c-3 -55 -5 -63 -23 -63
-18 0 -20 8 -23 62 l-3 62 -62 3 c-54 3 -62 5 -62 23 0 18 8 20 63 23 l62 3 0
64 c0 63 1 65 25 65 24 0 25 -2 25 -65z"/>
<path d="M4076 1188 c-24 -22 -30 -48 -27 -116 1 -33 62 -92 95 -92 42 0 66
32 66 90 0 62 -21 105 -60 125 -38 20 -44 19 -74 -7z"/>
<path d="M4065 808 c-60 -33 -80 -81 -55 -129 28 -52 150 -67 211 -26 62 41
65 112 6 147 -36 22 -128 27 -162 8z"/>
</g>
</svg>
